<?xml version="1.0" encoding="utf-8"?>
<!-- Generator: Adobe Illustrator 19.0.0, SVG Export Plug-In . SVG Version: 6.00 Build 0)  -->
<svg version="1.1" id="Layer_1" xmlns="http://www.w3.org/2000/svg" xmlns:xlink="http://www.w3.org/1999/xlink" x="0px" y="0px"
	 viewBox="0 0 661.3 119.8" style="enable-background:new 0 0 661.3 119.8;" xml:space="preserve">
<style type="text/css">
	.st0{fill:none;stroke:#0C783D;stroke-width:3;stroke-linecap:round;stroke-linejoin:round;stroke-miterlimit:10;}
	.st1{fill:#0C783D;}
	.st2{fill:#0D443C;}
	.st3{fill:#FFFFFF;}
	.st4{fill-rule:evenodd;clip-rule:evenodd;fill:#0C783D;}
	.st5{fill-rule:evenodd;clip-rule:evenodd;fill:#FFFFFF;}
</style>
<g id="XMLID_1_">
	<polyline id="XMLID_45_" class="st0" points="1.5,1.5 1.5,16.4 306,16.4 338.2,33.4 369.5,16.5 659.8,16.5 659.8,1.5 	"/>
	<g id="XMLID_15_">
		<g id="XMLID_604_">
			<path id="XMLID_673_" class="st1" d="M211.5,104.4h5.7v1.9h-3.8v3.4h3.8v1.9h-3.8v5.3h-1.9V104.4z"/>
			<path id="XMLID_670_" class="st1" d="M232,110.6c0,0.9-0.2,1.7-0.5,2.4c-0.3,0.8-0.8,1.4-1.4,2c-0.6,0.6-1.3,1-2,1.3
				s-1.6,0.5-2.5,0.5c-0.9,0-1.7-0.2-2.5-0.5c-0.8-0.3-1.4-0.8-2-1.3c-0.6-0.6-1-1.2-1.4-2c-0.3-0.8-0.5-1.6-0.5-2.4
				c0-0.9,0.2-1.7,0.5-2.4s0.8-1.4,1.4-2c0.6-0.6,1.3-1,2-1.3c0.8-0.3,1.6-0.5,2.5-0.5c0.9,0,1.7,0.2,2.5,0.5s1.4,0.8,2,1.3
				c0.6,0.6,1,1.2,1.4,2C231.8,108.9,232,109.7,232,110.6z M221.3,110.6c0,0.6,0.1,1.2,0.3,1.7c0.2,0.5,0.5,1,0.9,1.4
				c0.4,0.4,0.9,0.7,1.4,0.9c0.5,0.2,1.1,0.3,1.7,0.3c0.6,0,1.2-0.1,1.7-0.3c0.5-0.2,1-0.5,1.4-0.9s0.7-0.8,0.9-1.4
				c0.2-0.5,0.3-1.1,0.3-1.7s-0.1-1.2-0.3-1.7c-0.2-0.5-0.5-1-0.9-1.4c-0.4-0.4-0.8-0.7-1.4-0.9s-1.1-0.3-1.7-0.3
				c-0.6,0-1.2,0.1-1.7,0.3c-0.5,0.2-1,0.5-1.4,0.9c-0.4,0.4-0.7,0.8-0.9,1.4C221.4,109.4,221.3,110,221.3,110.6z"/>
			<path id="XMLID_667_" class="st1" d="M239.1,113.1l1.8,3.7h-2l-1.3-2.9c-0.4,0.1-0.9,0.2-1.4,0.2h-0.1v2.7H234v-12.5h2
				c1.4,0,2.5,0.5,3.5,1.4c1,1,1.4,2.1,1.4,3.5c0,1.4-0.5,2.5-1.4,3.5C239.4,112.9,239.2,113,239.1,113.1z M235.9,112.3h0.1
				c0.8,0,1.6-0.3,2.2-0.9c0.6-0.6,0.9-1.3,0.9-2.2s-0.3-1.6-0.9-2.2c-0.6-0.6-1.3-0.9-2.2-0.9h-0.1V112.3z"/>
			<path id="XMLID_665_" class="st1" d="M242,104.3h8.1v2H247v10.4h-1.9v-10.4H242V104.3z"/>
			<path id="XMLID_662_" class="st1" d="M252,115.1l-0.7,1.7h-2l5-13l5,13h-2l-0.7-1.7H252z M252.7,113.2h3.2l-1.6-4.1L252.7,113.2z
				"/>
			<path id="XMLID_660_" class="st1" d="M261.3,104.4h1.9v10.5h4.3v1.9h-6.2V104.4z"/>
			<path id="XMLID_658_" class="st1" d="M269.5,104.4h5.7v1.9h-3.8v4.6h3.8v1.9h-3.8v2.2h3.8v1.9h-5.7V104.4z"/>
			<path id="XMLID_656_" class="st1" d="M286,114.2v2.2c-0.7,0.3-1.5,0.4-2.3,0.4c-0.9,0-1.7-0.2-2.5-0.5c-0.8-0.3-1.4-0.8-2-1.3
				c-0.6-0.6-1-1.2-1.4-2c-0.3-0.8-0.5-1.6-0.5-2.4c0-0.9,0.2-1.7,0.5-2.4s0.8-1.4,1.4-2c0.6-0.6,1.3-1,2-1.3
				c0.8-0.3,1.6-0.5,2.5-0.5c0.8,0,1.6,0.1,2.3,0.4v2.2c-0.2-0.1-0.4-0.2-0.7-0.3c-0.5-0.2-1.1-0.3-1.7-0.3c-0.6,0-1.2,0.1-1.7,0.3
				c-0.5,0.2-1,0.5-1.4,0.9c-0.4,0.4-0.7,0.8-0.9,1.4c-0.2,0.5-0.3,1.1-0.3,1.7s0.1,1.2,0.3,1.7c0.2,0.5,0.5,1,0.9,1.4
				c0.4,0.4,0.9,0.7,1.4,0.9c0.5,0.2,1.1,0.3,1.7,0.3c0.6,0,1.2-0.1,1.7-0.3C285.5,114.5,285.8,114.3,286,114.2z"/>
			<path id="XMLID_654_" class="st1" d="M288,104.4h5.7v1.9h-3.8v4.6h3.8v1.9h-3.8v2.2h3.8v1.9H288V104.4z"/>
			<path id="XMLID_652_" class="st2" d="M301.7,116.9c-0.8,0-1.4-0.2-1.8-0.5s-0.5-0.9-0.5-1.6v-9.1l1.4-0.2v9.2
				c0,0.2,0,0.4,0.1,0.6s0.1,0.3,0.2,0.4s0.2,0.2,0.4,0.2s0.3,0.1,0.5,0.1L301.7,116.9z"/>
			<path id="XMLID_649_" class="st2" d="M305.9,109c0.5,0,1,0.1,1.4,0.2c0.4,0.1,0.7,0.3,0.9,0.6c0.2,0.3,0.4,0.6,0.5,0.9
				s0.1,0.8,0.1,1.2v4.8c-0.1,0-0.3,0-0.5,0.1c-0.2,0-0.4,0.1-0.7,0.1s-0.5,0.1-0.9,0.1c-0.3,0-0.6,0-0.9,0c-0.4,0-0.8,0-1.2-0.1
				s-0.7-0.2-0.9-0.4s-0.5-0.4-0.6-0.8c-0.1-0.3-0.2-0.7-0.2-1.1c0-0.4,0.1-0.8,0.3-1.1s0.4-0.5,0.7-0.7s0.6-0.3,1-0.4
				s0.8-0.1,1.2-0.1c0.1,0,0.3,0,0.4,0c0.1,0,0.3,0,0.4,0.1c0.1,0,0.2,0,0.3,0.1s0.2,0,0.2,0V112c0-0.2,0-0.4-0.1-0.7
				s-0.1-0.4-0.3-0.6s-0.3-0.3-0.5-0.4c-0.2-0.1-0.5-0.2-0.9-0.2c-0.5,0-0.8,0-1.2,0.1c-0.3,0.1-0.6,0.1-0.8,0.2l-0.2-1.1
				c0.2-0.1,0.5-0.2,0.9-0.2S305.4,109,305.9,109z M306,115.8c0.3,0,0.6,0,0.9,0c0.2,0,0.5,0,0.6-0.1v-2.3c-0.1,0-0.3-0.1-0.5-0.1
				c-0.2,0-0.5-0.1-0.8-0.1c-0.2,0-0.4,0-0.7,0c-0.2,0-0.4,0.1-0.6,0.2s-0.3,0.2-0.5,0.4s-0.2,0.4-0.2,0.6c0,0.5,0.2,0.8,0.5,1
				S305.5,115.8,306,115.8z"/>
			<path id="XMLID_646_" class="st2" d="M315.3,107.8c-0.2,0-0.5-0.1-0.6-0.2c-0.2-0.2-0.3-0.4-0.3-0.7s0.1-0.5,0.3-0.7
				s0.4-0.2,0.6-0.2s0.5,0.1,0.6,0.2c0.2,0.2,0.3,0.4,0.3,0.7s-0.1,0.5-0.3,0.7C315.7,107.7,315.5,107.8,315.3,107.8z M316,116.8
				h-1.4v-7.6h1.4V116.8z"/>
			<path id="XMLID_644_" class="st2" d="M318.4,109.4c0.3-0.1,0.7-0.2,1.2-0.2c0.5-0.1,1.1-0.1,1.8-0.1c0.5,0,0.9,0.1,1.2,0.2
				s0.6,0.3,0.8,0.6c0.1,0,0.2-0.1,0.3-0.2s0.3-0.2,0.5-0.3s0.5-0.2,0.7-0.2c0.3-0.1,0.5-0.1,0.9-0.1c0.6,0,1.1,0.1,1.4,0.3
				s0.7,0.4,0.9,0.7s0.4,0.7,0.4,1.1c0.1,0.4,0.1,0.9,0.1,1.4v4.3h-1.4v-4c0-0.4,0-0.8-0.1-1.2s-0.1-0.6-0.2-0.8
				c-0.1-0.2-0.3-0.4-0.5-0.5c-0.2-0.1-0.5-0.2-0.8-0.2c-0.5,0-0.8,0.1-1.1,0.2c-0.3,0.1-0.5,0.2-0.6,0.3c0.1,0.3,0.1,0.5,0.2,0.8
				s0.1,0.6,0.1,1v4.3h-1.4v-4c0-0.4,0-0.8-0.1-1.2s-0.1-0.6-0.3-0.8c-0.1-0.2-0.3-0.4-0.5-0.5c-0.2-0.1-0.5-0.2-0.8-0.2
				c-0.1,0-0.3,0-0.4,0c-0.2,0-0.3,0-0.4,0s-0.3,0-0.4,0.1s-0.2,0-0.2,0v6.4h-1.4V109.4z"/>
			<path id="XMLID_641_" class="st2" d="M333.5,109c0.5,0,1,0.1,1.4,0.2c0.4,0.1,0.7,0.3,0.9,0.6c0.2,0.3,0.4,0.6,0.5,0.9
				s0.1,0.8,0.1,1.2v4.8c-0.1,0-0.3,0-0.5,0.1c-0.2,0-0.4,0.1-0.7,0.1s-0.5,0.1-0.9,0.1c-0.3,0-0.6,0-0.9,0c-0.4,0-0.8,0-1.2-0.1
				s-0.7-0.2-0.9-0.4s-0.5-0.4-0.6-0.8c-0.1-0.3-0.2-0.7-0.2-1.1c0-0.4,0.1-0.8,0.3-1.1s0.4-0.5,0.7-0.7s0.6-0.3,1-0.4
				s0.8-0.1,1.2-0.1c0.1,0,0.3,0,0.4,0c0.1,0,0.3,0,0.4,0.1c0.1,0,0.2,0,0.3,0.1s0.2,0,0.2,0V112c0-0.2,0-0.4-0.1-0.7
				s-0.1-0.4-0.3-0.6s-0.3-0.3-0.5-0.4c-0.2-0.1-0.5-0.2-0.9-0.2c-0.5,0-0.8,0-1.2,0.1c-0.3,0.1-0.6,0.1-0.8,0.2l-0.2-1.1
				c0.2-0.1,0.5-0.2,0.9-0.2S333,109,333.5,109z M333.6,115.8c0.3,0,0.6,0,0.9,0c0.2,0,0.5,0,0.6-0.1v-2.3c-0.1,0-0.3-0.1-0.5-0.1
				c-0.2,0-0.5-0.1-0.8-0.1c-0.2,0-0.4,0-0.7,0c-0.2,0-0.4,0.1-0.6,0.2s-0.3,0.2-0.5,0.4s-0.2,0.4-0.2,0.6c0,0.5,0.2,0.8,0.5,1
				S333.1,115.8,333.6,115.8z"/>
			<path id="XMLID_638_" class="st2" d="M343.5,116c-0.1,0.1-0.3,0.2-0.7,0.3c-0.3,0.1-0.7,0.2-1.2,0.2c-0.5,0-0.9-0.1-1.3-0.2
				c-0.4-0.1-0.8-0.4-1.1-0.7s-0.5-0.7-0.7-1.2c-0.2-0.5-0.3-1-0.3-1.6c0-0.6,0.1-1.1,0.2-1.5s0.4-0.9,0.7-1.2
				c0.3-0.3,0.7-0.6,1.2-0.8s1-0.3,1.6-0.3c0.6,0,1.2,0,1.7,0.1s0.9,0.2,1.2,0.3v6.8c0,1.2-0.3,2-0.9,2.5c-0.6,0.5-1.5,0.8-2.8,0.8
				c-0.5,0-0.9,0-1.4-0.1c-0.4-0.1-0.8-0.2-1.1-0.3l0.2-1.2c0.3,0.1,0.6,0.2,1,0.3c0.4,0.1,0.8,0.1,1.2,0.1c0.8,0,1.4-0.2,1.8-0.5
				c0.4-0.3,0.5-0.8,0.5-1.5V116z M343.5,110.4c-0.1,0-0.3-0.1-0.5-0.1s-0.5-0.1-0.9-0.1c-0.7,0-1.3,0.2-1.7,0.7
				c-0.4,0.5-0.6,1.1-0.6,1.9c0,0.4,0.1,0.8,0.2,1.1c0.1,0.3,0.3,0.6,0.5,0.8s0.4,0.4,0.7,0.5s0.5,0.1,0.8,0.1c0.4,0,0.7-0.1,1-0.2
				s0.5-0.2,0.7-0.4V110.4z"/>
			<path id="XMLID_635_" class="st2" d="M346.8,113c0-0.7,0.1-1.3,0.3-1.8s0.5-0.9,0.8-1.3s0.7-0.6,1.1-0.7s0.9-0.2,1.3-0.2
				c1,0,1.8,0.3,2.4,1c0.5,0.6,0.8,1.6,0.8,2.9c0,0.1,0,0.1,0,0.2s0,0.2,0,0.3h-5.2c0.1,0.8,0.3,1.4,0.7,1.8s1,0.6,1.9,0.6
				c0.5,0,0.9,0,1.2-0.1s0.6-0.2,0.7-0.2l0.2,1.1c-0.2,0.1-0.5,0.2-0.9,0.3s-0.9,0.1-1.4,0.1c-0.7,0-1.2-0.1-1.7-0.3
				c-0.5-0.2-0.9-0.5-1.2-0.8c-0.3-0.4-0.5-0.8-0.7-1.3C346.9,114.1,346.8,113.6,346.8,113z M352.1,112.3c0-0.6-0.1-1.1-0.5-1.5
				s-0.8-0.6-1.3-0.6c-0.3,0-0.6,0.1-0.8,0.2s-0.4,0.3-0.6,0.5c-0.2,0.2-0.3,0.4-0.4,0.7c-0.1,0.3-0.2,0.5-0.2,0.8H352.1z"/>
			<path id="XMLID_633_" class="st2" d="M355.5,109.4c0.3-0.1,0.7-0.2,1.2-0.2s1.1-0.1,1.8-0.1c0.6,0,1.1,0.1,1.5,0.3
				c0.4,0.2,0.7,0.4,1,0.7c0.2,0.3,0.4,0.7,0.5,1.1c0.1,0.4,0.1,0.9,0.1,1.4v4.3h-1.4v-4c0-0.5,0-0.9-0.1-1.2s-0.2-0.6-0.3-0.8
				s-0.3-0.4-0.6-0.4s-0.5-0.1-0.9-0.1c-0.1,0-0.3,0-0.5,0c-0.2,0-0.3,0-0.4,0s-0.3,0-0.4,0.1s-0.2,0-0.2,0v6.4h-1.4V109.4z"/>
			<path id="XMLID_630_" class="st2" d="M372.4,105.7l1.4-0.2v11.2c-0.3,0.1-0.7,0.2-1.2,0.3c-0.5,0.1-1.1,0.1-1.7,0.1
				c-0.6,0-1.1-0.1-1.6-0.3c-0.5-0.2-0.9-0.4-1.2-0.8s-0.6-0.8-0.8-1.3s-0.3-1-0.3-1.7c0-0.6,0.1-1.1,0.2-1.6s0.4-0.9,0.7-1.3
				s0.7-0.6,1.1-0.8s0.9-0.3,1.5-0.3c0.4,0,0.8,0.1,1.2,0.2s0.6,0.2,0.8,0.3V105.7z M372.4,110.8c-0.2-0.1-0.4-0.3-0.7-0.4
				s-0.7-0.2-1-0.2c-0.4,0-0.7,0.1-1,0.2s-0.5,0.3-0.7,0.6s-0.3,0.5-0.4,0.9s-0.1,0.7-0.1,1.1c0,0.9,0.2,1.6,0.7,2.1s1,0.7,1.8,0.7
				c0.4,0,0.7,0,0.9-0.1s0.4-0.1,0.6-0.1V110.8z"/>
			<path id="XMLID_627_" class="st2" d="M375.7,113c0-0.7,0.1-1.3,0.3-1.8s0.5-0.9,0.8-1.3s0.7-0.6,1.1-0.7s0.9-0.2,1.3-0.2
				c1,0,1.8,0.3,2.4,1c0.5,0.6,0.8,1.6,0.8,2.9c0,0.1,0,0.1,0,0.2s0,0.2,0,0.3h-5.2c0.1,0.8,0.3,1.4,0.7,1.8s1,0.6,1.9,0.6
				c0.5,0,0.9,0,1.2-0.1s0.6-0.2,0.7-0.2l0.2,1.1c-0.2,0.1-0.5,0.2-0.9,0.3s-0.9,0.1-1.4,0.1c-0.7,0-1.2-0.1-1.7-0.3
				c-0.5-0.2-0.9-0.5-1.2-0.8c-0.3-0.4-0.5-0.8-0.7-1.3C375.8,114.1,375.7,113.6,375.7,113z M380.9,112.3c0-0.6-0.1-1.1-0.5-1.5
				s-0.8-0.6-1.3-0.6c-0.3,0-0.6,0.1-0.8,0.2s-0.4,0.3-0.6,0.5c-0.2,0.2-0.3,0.4-0.4,0.7c-0.1,0.3-0.2,0.5-0.2,0.8H380.9z"/>
			<path id="XMLID_625_" class="st2" d="M390.1,116.9c-0.8,0-1.4-0.2-1.8-0.5s-0.5-0.9-0.5-1.6v-9.1l1.4-0.2v9.2
				c0,0.2,0,0.4,0.1,0.6s0.1,0.3,0.2,0.4s0.2,0.2,0.4,0.2s0.3,0.1,0.5,0.1L390.1,116.9z"/>
			<path id="XMLID_622_" class="st2" d="M394.3,109c0.5,0,1,0.1,1.4,0.2c0.4,0.1,0.7,0.3,0.9,0.6c0.2,0.3,0.4,0.6,0.5,0.9
				s0.1,0.8,0.1,1.2v4.8c-0.1,0-0.3,0-0.5,0.1c-0.2,0-0.4,0.1-0.7,0.1s-0.5,0.1-0.9,0.1c-0.3,0-0.6,0-0.9,0c-0.4,0-0.8,0-1.2-0.1
				s-0.7-0.2-0.9-0.4s-0.5-0.4-0.6-0.8c-0.1-0.3-0.2-0.7-0.2-1.1c0-0.4,0.1-0.8,0.3-1.1s0.4-0.5,0.7-0.7s0.6-0.3,1-0.4
				s0.8-0.1,1.2-0.1c0.1,0,0.3,0,0.4,0c0.1,0,0.3,0,0.4,0.1c0.1,0,0.2,0,0.3,0.1s0.2,0,0.2,0V112c0-0.2,0-0.4-0.1-0.7
				s-0.1-0.4-0.3-0.6s-0.3-0.3-0.5-0.4c-0.2-0.1-0.5-0.2-0.9-0.2c-0.5,0-0.8,0-1.2,0.1c-0.3,0.1-0.6,0.1-0.8,0.2l-0.2-1.1
				c0.2-0.1,0.5-0.2,0.9-0.2S393.9,109,394.3,109z M394.5,115.8c0.3,0,0.6,0,0.9,0c0.2,0,0.5,0,0.6-0.1v-2.3c-0.1,0-0.3-0.1-0.5-0.1
				c-0.2,0-0.5-0.1-0.8-0.1c-0.2,0-0.4,0-0.7,0c-0.2,0-0.4,0.1-0.6,0.2s-0.3,0.2-0.5,0.4s-0.2,0.4-0.2,0.6c0,0.5,0.2,0.8,0.5,1
				S393.9,115.8,394.5,115.8z"/>
			<path id="XMLID_620_" class="st1" d="M405.3,104.4h5.7v1.9h-3.8v4.6h3.8v1.9h-3.8v2.2h3.8v1.9h-5.7V104.4z"/>
			<path id="XMLID_618_" class="st1" d="M417.7,111l2.8-4.3l1.9-2.9v13h-1.9v-6.6l-2.8,4.3l-2.8-4.3v6.6H413v-13l1.9,2.9L417.7,111z
				"/>
			<path id="XMLID_615_" class="st1" d="M426.3,114.2v2.7h-1.9v-12.5h2c1.4,0,2.5,0.5,3.5,1.4c1,1,1.4,2.1,1.4,3.5
				c0,1.4-0.5,2.5-1.4,3.5c-1,1-2.1,1.4-3.5,1.4H426.3z M426.3,112.3h0.1c0.8,0,1.6-0.3,2.2-0.9s0.9-1.3,0.9-2.2s-0.3-1.6-0.9-2.2
				s-1.3-0.9-2.2-0.9h-0.1V112.3z"/>
			<path id="XMLID_612_" class="st1" d="M438.4,113.1l1.8,3.7h-2l-1.3-2.9c-0.4,0.1-0.9,0.2-1.4,0.2h-0.1v2.7h-1.9v-12.5h2
				c1.4,0,2.5,0.5,3.5,1.4c1,1,1.4,2.1,1.4,3.5c0,1.4-0.5,2.5-1.4,3.5C438.7,112.9,438.6,113,438.4,113.1z M435.3,112.3h0.1
				c0.8,0,1.6-0.3,2.2-0.9s0.9-1.3,0.9-2.2s-0.3-1.6-0.9-2.2s-1.3-0.9-2.2-0.9h-0.1V112.3z"/>
			<path id="XMLID_610_" class="st1" d="M442.4,104.4h5.7v1.9h-3.8v4.6h3.8v1.9h-3.8v2.2h3.8v1.9h-5.7V104.4z"/>
			<path id="XMLID_608_" class="st1" d="M452.9,116.8c-0.5,0-1-0.1-1.4-0.2c-0.4-0.1-0.9-0.4-1.3-0.7v-2.3c0.3,0.3,0.5,0.5,0.7,0.6
				s0.3,0.2,0.6,0.3c0.2,0.1,0.5,0.2,0.8,0.3c0.3,0.1,0.5,0.1,0.8,0.1c0.6,0,1-0.2,1.4-0.6c0.4-0.4,0.5-0.8,0.5-1.4
				c0-0.4-0.2-0.8-0.5-1.1c-0.3-0.3-0.8-0.6-1.5-0.9c-0.4-0.2-0.8-0.4-1.1-0.6s-0.6-0.4-0.8-0.6c-0.3-0.3-0.5-0.6-0.6-0.9
				c-0.2-0.4-0.2-0.8-0.2-1.3c0-0.5,0.1-0.9,0.3-1.3c0.2-0.4,0.5-0.8,0.8-1.1c0.4-0.3,0.8-0.5,1.2-0.7c0.5-0.2,0.9-0.3,1.4-0.3
				c0.4,0,0.7,0.1,1,0.2s0.7,0.3,1.1,0.5v1.9c-0.2-0.2-0.4-0.3-0.5-0.3c-0.1,0-0.2-0.1-0.4-0.2c-0.2-0.1-0.3-0.2-0.6-0.2
				c-0.2-0.1-0.4-0.1-0.7-0.1c-0.5,0-1,0.2-1.3,0.5c-0.4,0.3-0.5,0.7-0.5,1.1c0,0.4,0.2,0.7,0.5,1c0.3,0.2,0.8,0.5,1.4,0.8
				c0.4,0.2,0.8,0.4,1.1,0.6c0.3,0.2,0.6,0.4,0.8,0.6c0.3,0.3,0.5,0.6,0.7,1c0.2,0.4,0.3,0.9,0.3,1.4c0,0.5-0.1,1-0.3,1.4
				c-0.2,0.4-0.5,0.8-0.9,1.2c-0.4,0.3-0.8,0.6-1.3,0.8S453.4,116.8,452.9,116.8z"/>
			<path id="XMLID_605_" class="st1" d="M460.8,115.1l-0.7,1.7h-2l5-13l5,13h-2l-0.7-1.7H460.8z M461.5,113.2h3.2l-1.6-4.1
				L461.5,113.2z"/>
		</g>
	</g>
	<g id="XMLID_27_">
		<path id="XMLID_37_" class="st3" d="M326.8,78.1c-0.5-0.4-0.9-0.7-1.4-1c-3.7-2.6-7.8-3.2-12-1.4c-7.4,3.1-10.2,11.9-9.5,17.8
			c0.3,2.7,2.3,4.7,5.6,4.6c18.9-0.1,37.7-0.1,56.6,0c3.1,0,4.8-2.3,4.9-4.5c0.2-5.2-1.3-9.8-5.2-13.5c-1.5-1.4-3.2-2.4-5.4-2.8
			c0.5,0.7,1,1.2,1.4,1.7c0.4,0.5,0.3,1-0.2,1.4c-1.7,1.4-5,1.4-6.7,0c-0.5-0.4-0.7-0.9-0.3-1.5c0.4-0.5,0.9-1.1,1.3-1.6
			c-0.1-0.1-0.1-0.2-0.2-0.3c-1.6,0.8-3.3,1.7-4.9,2.5C344.8,70.3,333.5,69.9,326.8,78.1z M328.5,60.6c0,5.3,4.3,9.7,9.5,9.7
			c5.4,0,9.8-4.3,9.9-9.6c0-5.3-4.3-9.7-9.7-9.7C332.9,51,328.5,55.3,328.5,60.6z M309.4,64.1c0,4.8,4,8.9,8.8,8.8
			c4.8,0,8.8-4,8.8-8.7c0-4.9-3.9-8.9-8.7-8.9C313.4,55.4,309.4,59.3,309.4,64.1z M349.7,75.5c5.6,0,11.4,0,16.9,0
			c-0.2-2.8-0.5-5.6-0.6-8.3c-0.2-4.1-3.6-7.4-7.8-7.4c-4.2,0-7.7,3.3-7.9,7.4C350.2,70,349.9,72.8,349.7,75.5z"/>
		<path id="XMLID_33_" class="st4" d="M326.8,78.1c6.7-8.2,18-7.8,24,1.6c1.7-0.8,3.3-1.7,4.9-2.5c0.1,0.1,1.5,0.1,4.7,0.2
			c2.2,0.4,3.9,1.4,5.4,2.8c3.9,3.6,5.4,8.2,5.2,13.5c-0.1,2.2-1.8,4.5-4.9,4.5c-18.9-0.1-37.7-0.1-56.6,0c-3.2,0-5.2-2-5.6-4.6
			c-0.7-5.9,2.1-14.7,9.5-17.8c4.2-1.8,8.2-1.2,12,1.4C325.8,77.4,326.3,77.7,326.8,78.1z M338.2,95.6c0.9-1.1,1.8-2,2.6-3
			c0.2-0.2,0.3-0.7,0.3-1c-0.5-3.6-1-7.1-1.6-10.6c-0.3-1.6-0.7-3.2,1.1-4.3c0.1-0.1,0.2-0.2,0.3-0.3c0.5-0.6,0.4-1.2-0.3-1.4
			c-1-0.3-2-0.6-3-0.6c-0.8,0.1-1.5,0.7-2.2,1.1c0.4,0.6,0.7,1.4,1.2,1.8c0.7,0.6,0.8,1.2,0.7,2.1c-0.6,4-1.2,8.1-1.8,12.2
			c0,0.3,0,0.7,0.2,1C336.4,93.6,337.3,94.5,338.2,95.6z M318.2,95.8c0.8-1,1.5-1.8,2.2-2.6c0.2-0.3,0.4-0.8,0.3-1.2
			c-0.5-3.7-1-7.3-1.6-11c-0.1-0.8,0.1-1.3,0.6-1.8c0.5-0.4,0.7-1.1,1.1-1.6c-0.7-0.4-1.3-0.8-2-1.1c-0.3-0.1-0.8-0.1-1.2,0
			c-0.7,0.3-1.4,0.7-2,1.1c0.4,0.6,0.7,1.1,1.1,1.7c0,0.1,0.1,0.1,0.2,0.2c0.6,0.4,0.6,0.9,0.5,1.5c-0.6,3.6-1.1,7.3-1.6,11
			c-0.1,0.4,0,1,0.3,1.3C316.6,94.1,317.4,94.9,318.2,95.8z"/>
		<path id="XMLID_32_" class="st4" d="M328.5,60.6c0-5.3,4.4-9.7,9.7-9.6c5.3,0,9.7,4.4,9.7,9.7c0,5.3-4.4,9.7-9.9,9.6
			C332.8,70.3,328.5,65.9,328.5,60.6z"/>
		<path id="XMLID_31_" class="st4" d="M309.4,64.1c0-4.9,4-8.8,8.8-8.8c4.8,0,8.8,4,8.7,8.9c0,4.8-4,8.7-8.8,8.7
			C313.4,73,309.4,69,309.4,64.1z"/>
		<path id="XMLID_30_" class="st4" d="M349.7,75.5c0.2-2.8,0.4-5.5,0.6-8.3c0.2-4.1,3.7-7.4,7.9-7.4c4.2,0,7.6,3.3,7.8,7.4
			c0.1,2.8,0.4,5.5,0.6,8.3C361.1,75.5,355.3,75.5,349.7,75.5z"/>
		<path id="XMLID_29_" class="st5" d="M338.2,95.6c-0.9-1.1-1.8-2.1-2.6-3.1c-0.2-0.2-0.3-0.7-0.2-1c0.6-4.1,1.2-8.1,1.8-12.2
			c0.1-0.9,0-1.5-0.7-2.1c-0.5-0.5-0.8-1.2-1.2-1.8c0.7-0.4,1.5-1.1,2.2-1.1c1-0.1,2,0.3,3,0.6c0.7,0.2,0.8,0.8,0.3,1.4
			c-0.1,0.1-0.1,0.3-0.3,0.3c-1.8,1.1-1.4,2.7-1.1,4.3c0.6,3.5,1.1,7.1,1.6,10.6c0,0.3-0.1,0.7-0.3,1
			C340,93.6,339.1,94.5,338.2,95.6z"/>
		<path id="XMLID_28_" class="st5" d="M318.2,95.8c-0.8-1-1.6-1.8-2.3-2.7c-0.2-0.3-0.3-0.9-0.3-1.3c0.5-3.7,1-7.3,1.6-11
			c0.1-0.6,0.1-1.1-0.5-1.5c-0.1,0-0.1-0.1-0.2-0.2c-0.4-0.6-0.7-1.1-1.1-1.7c0.7-0.4,1.3-0.8,2-1.1c0.3-0.1,0.8-0.1,1.2,0
			c0.7,0.3,1.4,0.7,2,1.1c-0.4,0.6-0.6,1.2-1.1,1.6c-0.6,0.5-0.7,1-0.6,1.8c0.6,3.6,1.1,7.3,1.6,11c0.1,0.4-0.1,0.9-0.3,1.2
			C319.7,94.1,319,94.9,318.2,95.8z"/>
	</g>
</g>
</svg>
