<?xml version="1.0" encoding="utf-8"?>
<!-- Generator: Adobe Illustrator 19.0.0, SVG Export Plug-In . SVG Version: 6.00 Build 0)  -->
<svg version="1.1" id="Layer_1" xmlns="http://www.w3.org/2000/svg" xmlns:xlink="http://www.w3.org/1999/xlink" x="0px" y="0px"
	 viewBox="-16 334.6 577.1 124.4" style="enable-background:new -16 334.6 577.1 124.4;" xml:space="preserve">
<style type="text/css">
	.st0{fill:#0D443C;}
	.st1{fill:#0C783D;}
	.st2{fill:none;stroke:#0C783D;stroke-width:9;stroke-miterlimit:10;}
	.st3{fill:#FFFFFF;}
	.st4{fill:none;stroke:#0C783D;stroke-width:2;stroke-miterlimit:10;}
	.st5{fill:none;stroke:#F4F3F2;stroke-width:3;stroke-linecap:round;stroke-miterlimit:10;}
	.st6{fill:#F4F3F2;}
</style>
<g id="XMLID_154_">
	<g id="XMLID_1135_">
		<path id="XMLID_1206_" class="st0" d="M416.3,377.3V369h5v1h-3.9v2.5h3.4v1h-3.4v3.8H416.3z"/>
		<path id="XMLID_1202_" class="st0" d="M423.5,370.9c0.4,0,0.8,0.1,1.1,0.2s0.6,0.3,0.7,0.5c0.2,0.2,0.3,0.5,0.4,0.8
			c0.1,0.3,0.1,0.6,0.1,1v3.9c-0.1,0-0.2,0-0.4,0.1c-0.2,0-0.4,0.1-0.6,0.1s-0.5,0-0.7,0.1c-0.3,0-0.5,0-0.8,0c-0.4,0-0.7,0-1-0.1
			s-0.6-0.2-0.8-0.3c-0.2-0.2-0.4-0.4-0.5-0.6c-0.1-0.3-0.2-0.6-0.2-0.9c0-0.3,0.1-0.6,0.2-0.9c0.1-0.2,0.3-0.4,0.6-0.6
			c0.2-0.2,0.5-0.3,0.8-0.3c0.3-0.1,0.7-0.1,1-0.1c0.1,0,0.2,0,0.3,0c0.1,0,0.2,0,0.3,0c0.1,0,0.2,0,0.3,0.1c0.1,0.1,0.1,0,0.2,0
			v-0.3c0-0.2,0-0.4-0.1-0.5s-0.1-0.3-0.2-0.5c-0.1-0.1-0.2-0.3-0.4-0.3c-0.2-0.1-0.4-0.1-0.7-0.1c-0.4,0-0.7,0-1,0.1
			c-0.3,0.1-0.5,0.1-0.6,0.2l-0.1-0.9c0.1-0.1,0.4-0.1,0.7-0.2C422.7,370.9,423.1,370.9,423.5,370.9z M423.6,376.5
			c0.3,0,0.5,0,0.7,0s0.4,0,0.5-0.1v-1.9c-0.1,0-0.2-0.1-0.4-0.1c-0.2,0-0.4,0-0.7,0c-0.2,0-0.3,0-0.5,0s-0.4,0.1-0.5,0.2
			s-0.3,0.2-0.4,0.3c-0.1,0.1-0.2,0.3-0.2,0.5c0,0.4,0.1,0.7,0.4,0.8S423.1,376.5,423.6,376.5z M425.3,368.8l-2.1,1.5l-0.5-0.6
			l2-1.7L425.3,368.8z"/>
		<path id="XMLID_1200_" class="st0" d="M429.9,377.4c-0.5,0-0.9-0.1-1.3-0.2c-0.4-0.2-0.7-0.4-1-0.7s-0.5-0.6-0.6-1
			s-0.2-0.8-0.2-1.3s0.1-0.9,0.2-1.3s0.3-0.7,0.6-1c0.3-0.3,0.6-0.5,0.9-0.7c0.4-0.2,0.8-0.2,1.2-0.2c0.3,0,0.6,0,0.8,0.1
			s0.5,0.1,0.8,0.2l-0.3,0.9c-0.2-0.1-0.4-0.1-0.6-0.2s-0.5-0.1-0.7-0.1c-0.6,0-1.1,0.2-1.4,0.6s-0.5,1-0.5,1.7c0,0.3,0,0.6,0.1,0.9
			c0.1,0.3,0.2,0.5,0.4,0.7c0.2,0.2,0.4,0.4,0.6,0.5c0.3,0.1,0.6,0.2,0.9,0.2s0.6,0,0.8-0.1c0.2-0.1,0.4-0.1,0.6-0.2l0.2,0.9
			c-0.1,0-0.2,0.1-0.3,0.1s-0.3,0.1-0.4,0.1s-0.3,0.1-0.5,0.1C430.2,377.4,430,377.4,429.9,377.4z"/>
		<path id="XMLID_1197_" class="st0" d="M432.8,369.9c-0.2,0-0.4-0.1-0.5-0.2s-0.2-0.3-0.2-0.5c0-0.2,0.1-0.4,0.2-0.5
			c0.1-0.1,0.3-0.2,0.5-0.2s0.4,0.1,0.5,0.2c0.1,0.1,0.2,0.3,0.2,0.5c0,0.2-0.1,0.4-0.2,0.5C433.1,369.9,433,369.9,432.8,369.9z
			 M433.3,377.3h-1.1v-6.2h1.1V377.3z"/>
		<path id="XMLID_1195_" class="st0" d="M436.6,377.4c-0.7,0-1.2-0.2-1.5-0.4c-0.3-0.3-0.4-0.7-0.4-1.3v-7.5l1.1-0.2v7.5
			c0,0.2,0,0.3,0,0.5c0,0.1,0.1,0.2,0.2,0.3c0.1,0.1,0.2,0.1,0.3,0.2c0.1,0,0.3,0.1,0.4,0.1L436.6,377.4z"/>
		<path id="XMLID_1193_" class="st0" d="M444.5,371c-0.3,1.2-0.7,2.3-1.1,3.4c-0.4,1.1-0.8,2-1.2,2.9h-1c-0.4-0.8-0.8-1.8-1.2-2.9
			c-0.4-1.1-0.8-2.2-1.1-3.4h1.2c0.1,0.4,0.2,0.8,0.3,1.3c0.1,0.4,0.3,0.9,0.4,1.3s0.3,0.9,0.4,1.3c0.2,0.4,0.3,0.8,0.4,1.1
			c0.1-0.3,0.3-0.7,0.4-1.1c0.2-0.4,0.3-0.8,0.5-1.3c0.1-0.4,0.3-0.9,0.4-1.3c0.1-0.4,0.2-0.9,0.3-1.3H444.5z"/>
		<path id="XMLID_1190_" class="st0" d="M445.7,369.9c-0.2,0-0.4-0.1-0.5-0.2s-0.2-0.3-0.2-0.5c0-0.2,0.1-0.4,0.2-0.5
			c0.1-0.1,0.3-0.2,0.5-0.2s0.4,0.1,0.5,0.2c0.1,0.1,0.2,0.3,0.2,0.5c0,0.2-0.1,0.4-0.2,0.5C446,369.9,445.9,369.9,445.7,369.9z
			 M446.2,377.3h-1.1v-6.2h1.1V377.3z"/>
		<path id="XMLID_1188_" class="st0" d="M449,376.5c0.5,0,0.8-0.1,1-0.2s0.3-0.3,0.3-0.6s-0.1-0.5-0.3-0.6s-0.6-0.3-1.1-0.5
			c-0.2-0.1-0.5-0.2-0.7-0.3s-0.4-0.2-0.6-0.4c-0.2-0.1-0.3-0.3-0.4-0.5c-0.1-0.2-0.1-0.4-0.1-0.7c0-0.6,0.2-1,0.6-1.3
			c0.4-0.3,1-0.5,1.7-0.5c0.2,0,0.4,0,0.5,0c0.2,0,0.3,0,0.5,0.1c0.2,0,0.3,0.1,0.4,0.1s0.2,0.1,0.3,0.1l-0.2,1
			c-0.1-0.1-0.3-0.1-0.6-0.2c-0.3-0.1-0.6-0.1-0.9-0.1s-0.6,0.1-0.8,0.2c-0.2,0.1-0.3,0.3-0.3,0.6c0,0.1,0,0.3,0.1,0.4
			s0.1,0.2,0.2,0.3c0.1,0.1,0.2,0.2,0.4,0.2c0.2,0.1,0.4,0.1,0.6,0.2c0.3,0.1,0.6,0.2,0.8,0.3c0.2,0.1,0.4,0.2,0.6,0.4
			c0.2,0.1,0.3,0.3,0.4,0.5c0.1,0.2,0.1,0.5,0.1,0.8c0,0.6-0.2,1-0.6,1.3s-1,0.4-1.8,0.4c-0.6,0-1,0-1.3-0.1
			c-0.3-0.1-0.5-0.2-0.6-0.2l0.2-1c0.1,0,0.3,0.1,0.6,0.2C448.2,376.4,448.6,376.5,449,376.5z"/>
		<path id="XMLID_1186_" class="st0" d="M457.4,377.1c-0.3,0.1-0.6,0.1-1,0.2c-0.4,0.1-0.9,0.1-1.5,0.1c-0.5,0-0.9-0.1-1.2-0.2
			c-0.3-0.1-0.6-0.3-0.8-0.6c-0.2-0.3-0.3-0.6-0.4-0.9c-0.1-0.3-0.1-0.7-0.1-1.2V371h1.1v3.3c0,0.8,0.1,1.3,0.4,1.6
			c0.2,0.3,0.6,0.5,1.2,0.5c0.1,0,0.2,0,0.4,0c0.1,0,0.2,0,0.4,0c0.1,0,0.2,0,0.3,0c0.1,0,0.2,0,0.2,0v-5.3h1.1v6H457.4z"/>
		<path id="XMLID_1183_" class="st0" d="M460.7,370.9c0.4,0,0.8,0.1,1.1,0.2c0.3,0.1,0.6,0.3,0.7,0.5c0.2,0.2,0.3,0.5,0.4,0.8
			c0.1,0.3,0.1,0.6,0.1,1v3.9c-0.1,0-0.2,0-0.4,0.1c-0.2,0.1-0.4,0.1-0.6,0.1s-0.5,0-0.7,0.1c-0.3,0-0.5,0-0.8,0c-0.4,0-0.7,0-1-0.1
			s-0.6-0.2-0.8-0.3c-0.2-0.2-0.4-0.4-0.5-0.6c-0.1-0.3-0.2-0.6-0.2-0.9c0-0.3,0.1-0.6,0.2-0.9c0.1-0.3,0.3-0.4,0.6-0.6
			c0.2-0.2,0.5-0.3,0.8-0.3c0.3-0.1,0.7-0.1,1-0.1c0.1,0,0.2,0,0.3,0c0.1,0,0.2,0,0.3,0c0.1,0,0.2,0,0.3,0.1c0.1,0,0.1,0,0.2,0v-0.3
			c0-0.2,0-0.4-0.1-0.5s-0.1-0.3-0.2-0.5c-0.1-0.1-0.2-0.3-0.4-0.3c-0.2-0.1-0.4-0.1-0.7-0.1c-0.4,0-0.7,0-1,0.1
			c-0.3,0.1-0.5,0.1-0.6,0.2l-0.1-0.9c0.1-0.1,0.4-0.1,0.7-0.2C460,370.9,460.3,370.9,460.7,370.9z M460.8,376.5c0.3,0,0.5,0,0.7,0
			s0.4,0,0.5-0.1v-1.9c-0.1,0-0.2-0.1-0.4-0.1c-0.2,0-0.4,0-0.7,0c-0.2,0-0.3,0-0.5,0s-0.4,0.1-0.5,0.2c-0.2,0.1-0.3,0.2-0.4,0.3
			c-0.1,0.1-0.2,0.3-0.2,0.5c0,0.4,0.1,0.7,0.4,0.8C460,376.4,460.4,376.5,460.8,376.5z"/>
		<path id="XMLID_1181_" class="st0" d="M466.3,377.4c-0.7,0-1.2-0.2-1.5-0.4c-0.3-0.3-0.4-0.7-0.4-1.3v-7.5l1.1-0.2v7.5
			c0,0.2,0,0.3,0,0.5c0,0.1,0.1,0.2,0.2,0.3c0.1,0.1,0.2,0.1,0.3,0.2c0.1,0,0.3,0.1,0.4,0.1L466.3,377.4z"/>
		<path id="XMLID_1178_" class="st0" d="M467.7,369.9c-0.2,0-0.4-0.1-0.5-0.2s-0.2-0.3-0.2-0.5c0-0.2,0.1-0.4,0.2-0.5
			c0.1-0.1,0.3-0.2,0.5-0.2s0.4,0.1,0.5,0.2c0.1,0.1,0.2,0.3,0.2,0.5c0,0.2-0.1,0.4-0.2,0.5C468.1,369.9,467.9,369.9,467.7,369.9z
			 M468.3,377.3h-1.1v-6.2h1.1V377.3z"/>
		<path id="XMLID_1176_" class="st0" d="M473.8,371.9c-0.2,0.2-0.4,0.4-0.7,0.8c-0.3,0.3-0.6,0.7-0.9,1.1c-0.3,0.4-0.6,0.8-0.9,1.3
			c-0.3,0.4-0.6,0.9-0.8,1.3h3.4v0.9h-4.8v-0.7c0.2-0.4,0.4-0.7,0.7-1.2c0.3-0.4,0.6-0.8,0.9-1.3c0.3-0.4,0.6-0.8,0.9-1.2
			s0.5-0.7,0.8-0.9h-3.1v-0.9h4.5V371.9z"/>
		<path id="XMLID_1173_" class="st0" d="M476.8,370.9c0.4,0,0.8,0.1,1.1,0.2c0.3,0.1,0.6,0.3,0.7,0.5c0.2,0.2,0.3,0.5,0.4,0.8
			c0.1,0.3,0.1,0.6,0.1,1v3.9c-0.1,0-0.2,0-0.4,0.1c-0.2,0.1-0.4,0.1-0.6,0.1s-0.5,0-0.7,0.1c-0.3,0-0.5,0-0.8,0c-0.4,0-0.7,0-1-0.1
			s-0.6-0.2-0.8-0.3c-0.2-0.2-0.4-0.4-0.5-0.6c-0.1-0.3-0.2-0.6-0.2-0.9c0-0.3,0.1-0.6,0.2-0.9c0.1-0.3,0.3-0.4,0.6-0.6
			c0.2-0.2,0.5-0.3,0.8-0.3c0.3-0.1,0.7-0.1,1-0.1c0.1,0,0.2,0,0.3,0c0.1,0,0.2,0,0.3,0c0.1,0,0.2,0,0.3,0.1c0.1,0,0.1,0,0.2,0v-0.3
			c0-0.2,0-0.4-0.1-0.5s-0.1-0.3-0.2-0.5c-0.1-0.1-0.2-0.3-0.4-0.3c-0.2-0.1-0.4-0.1-0.7-0.1c-0.4,0-0.7,0-1,0.1
			c-0.3,0.1-0.5,0.1-0.6,0.2l-0.1-0.9c0.1-0.1,0.4-0.1,0.7-0.2C476,370.9,476.4,370.9,476.8,370.9z M476.9,376.5c0.3,0,0.5,0,0.7,0
			s0.4,0,0.5-0.1v-1.9c-0.1,0-0.2-0.1-0.4-0.1c-0.2,0-0.4,0-0.7,0c-0.2,0-0.3,0-0.5,0s-0.4,0.1-0.5,0.2c-0.2,0.1-0.3,0.2-0.4,0.3
			c-0.1,0.1-0.2,0.3-0.2,0.5c0,0.4,0.1,0.7,0.4,0.8C476.1,376.4,476.4,376.5,476.9,376.5z"/>
		<path id="XMLID_1171_" class="st0" d="M483.2,377.4c-0.5,0-0.9-0.1-1.3-0.2c-0.4-0.2-0.7-0.4-1-0.7s-0.5-0.6-0.6-1
			s-0.2-0.8-0.2-1.3s0.1-0.9,0.2-1.3s0.3-0.7,0.6-1c0.3-0.3,0.6-0.5,0.9-0.7c0.4-0.2,0.8-0.2,1.2-0.2c0.3,0,0.6,0,0.8,0.1
			s0.5,0.1,0.8,0.2l-0.3,0.9c-0.2-0.1-0.4-0.1-0.6-0.2s-0.5-0.1-0.7-0.1c-0.6,0-1.1,0.2-1.4,0.6s-0.5,1-0.5,1.7c0,0.3,0,0.6,0.1,0.9
			c0.1,0.3,0.2,0.5,0.4,0.7c0.2,0.2,0.4,0.4,0.6,0.5c0.3,0.1,0.6,0.2,0.9,0.2s0.6,0,0.8-0.1c0.2-0.1,0.4-0.1,0.6-0.2l0.2,0.9
			c-0.1,0-0.2,0.1-0.3,0.1s-0.3,0.1-0.4,0.1s-0.3,0.1-0.5,0.1C483.5,377.4,483.3,377.4,483.2,377.4z"/>
		<path id="XMLID_1168_" class="st0" d="M486,369.9c-0.2,0-0.4-0.1-0.5-0.2s-0.2-0.3-0.2-0.5c0-0.2,0.1-0.4,0.2-0.5
			c0.1-0.1,0.3-0.2,0.5-0.2s0.4,0.1,0.5,0.2c0.1,0.1,0.2,0.3,0.2,0.5c0,0.2-0.1,0.4-0.2,0.5C486.4,369.9,486.2,369.9,486,369.9z
			 M486.6,377.3h-1.1v-6.2h1.1V377.3z"/>
		<path id="XMLID_1164_" class="st0" d="M493.5,374.2c0,0.5-0.1,0.9-0.2,1.3s-0.3,0.7-0.6,1s-0.6,0.5-0.9,0.7
			c-0.3,0.2-0.8,0.2-1.2,0.2c-0.4,0-0.8-0.1-1.2-0.2c-0.4-0.2-0.7-0.4-0.9-0.7s-0.5-0.6-0.6-1s-0.2-0.8-0.2-1.3s0.1-0.9,0.2-1.3
			s0.3-0.8,0.6-1c0.3-0.2,0.6-0.5,0.9-0.7c0.4-0.2,0.8-0.2,1.2-0.2c0.4,0,0.8,0.1,1.2,0.2s0.7,0.4,0.9,0.7c0.2,0.3,0.5,0.6,0.6,1
			C493.4,373.2,493.5,373.7,493.5,374.2z M492.3,374.2c0-0.7-0.2-1.3-0.5-1.7s-0.7-0.6-1.3-0.6s-1,0.2-1.3,0.6s-0.5,1-0.5,1.7
			c0,0.7,0.2,1.3,0.5,1.7c0.3,0.4,0.7,0.6,1.3,0.6s1-0.2,1.3-0.6C492.2,375.4,492.3,374.9,492.3,374.2z M492.2,368.8l-2.1,1.5
			l-0.5-0.6l2-1.7L492.2,368.8z"/>
		<path id="XMLID_1162_" class="st0" d="M494.5,371.2c0.3-0.1,0.6-0.1,1-0.2s0.9-0.1,1.5-0.1c0.5,0,0.9,0.1,1.2,0.2s0.6,0.3,0.8,0.6
			c0.2,0.3,0.3,0.6,0.4,0.9c0.1,0.4,0.1,0.7,0.1,1.2v3.5h-1.1V374c0-0.4,0-0.7-0.1-1c-0.1-0.3-0.1-0.5-0.3-0.7
			c-0.1-0.2-0.3-0.3-0.5-0.4c-0.2-0.1-0.4-0.1-0.7-0.1c-0.1,0-0.2,0-0.4,0s-0.3,0-0.4,0c-0.1,0-0.2,0-0.3,0c-0.1,0-0.2,0-0.2,0v5.3
			h-1.1v-5.9H494.5z"/>
		<path id="XMLID_1159_" class="st0" d="M507.1,368.2l1.1-0.2v9.1c-0.3,0.1-0.6,0.1-1,0.2c-0.4,0.1-0.9,0.1-1.4,0.1
			s-0.9-0.1-1.3-0.2s-0.7-0.4-1-0.6c-0.3-0.3-0.5-0.6-0.6-1s-0.2-0.9-0.2-1.4s0.1-0.9,0.2-1.3c0.1-0.4,0.3-0.7,0.5-1
			c0.2-0.3,0.5-0.5,0.9-0.7c0.3-0.2,0.7-0.2,1.2-0.2c0.4,0,0.7,0,1,0.1s0.5,0.2,0.6,0.3V368.2z M507.1,372.4
			c-0.1-0.1-0.3-0.2-0.6-0.3s-0.5-0.2-0.8-0.2s-0.6,0.1-0.8,0.2s-0.4,0.3-0.6,0.5c-0.1,0.2-0.2,0.4-0.3,0.7
			c-0.1,0.3-0.1,0.6-0.1,0.9c0,0.7,0.2,1.3,0.5,1.7c0.4,0.4,0.8,0.6,1.4,0.6c0.3,0,0.6,0,0.8,0s0.4-0.1,0.5-0.1L507.1,372.4
			L507.1,372.4z"/>
		<path id="XMLID_1156_" class="st0" d="M509.2,374.2c0-0.6,0.1-1,0.2-1.4c0.1-0.4,0.4-0.8,0.6-1c0.3-0.3,0.6-0.5,0.9-0.6
			c0.3-0.1,0.7-0.2,1.1-0.2c0.8,0,1.5,0.3,1.9,0.8s0.7,1.3,0.7,2.4c0,0,0,0.1,0,0.2s0,0.1,0,0.2h-4.3c0,0.6,0.2,1.1,0.6,1.5
			s0.8,0.5,1.5,0.5c0.4,0,0.7,0,1-0.1c0.3-0.1,0.5-0.1,0.6-0.2l0.2,0.9c-0.1,0.1-0.4,0.1-0.7,0.2c-0.3,0.1-0.7,0.1-1.2,0.1
			s-1-0.1-1.4-0.2c-0.4-0.2-0.7-0.4-1-0.7s-0.4-0.6-0.6-1C509.3,375.1,509.2,374.7,509.2,374.2z M513.5,373.6c0-0.5-0.1-0.9-0.4-1.2
			c-0.3-0.3-0.6-0.5-1.1-0.5c-0.3,0-0.5,0.1-0.7,0.2s-0.4,0.2-0.5,0.4c-0.1,0.2-0.2,0.3-0.3,0.6c-0.1,0.2-0.1,0.4-0.1,0.6h3.1V373.6
			z"/>
		<path id="XMLID_1154_" class="st0" d="M517.6,377.4c-0.7,0-1.2-0.2-1.5-0.4c-0.3-0.3-0.4-0.7-0.4-1.3v-7.5l1.1-0.2v7.5
			c0,0.2,0,0.3,0,0.5c0,0.1,0.1,0.2,0.2,0.3c0.1,0.1,0.2,0.1,0.3,0.2s0.3,0.1,0.4,0.1L517.6,377.4z"/>
		<path id="XMLID_1152_" class="st0" d="M520.7,371.2c0.3-0.1,0.6-0.1,1-0.2s0.9-0.1,1.5-0.1c0.4,0,0.7,0.1,1,0.2s0.5,0.3,0.7,0.5
			c0.1,0,0.1-0.1,0.3-0.2c0.1-0.1,0.3-0.1,0.4-0.2c0.2-0.1,0.4-0.1,0.6-0.2c0.2-0.1,0.4-0.1,0.7-0.1c0.5,0,0.9,0.1,1.2,0.2
			s0.5,0.3,0.7,0.6c0.2,0.3,0.3,0.6,0.3,0.9c0.1,0.4,0.1,0.7,0.1,1.2v3.5H528V374c0-0.4,0-0.7-0.1-0.9c0-0.3-0.1-0.5-0.2-0.7
			c-0.1-0.2-0.2-0.3-0.4-0.4s-0.4-0.1-0.7-0.1c-0.4,0-0.7,0-0.9,0.1s-0.4,0.2-0.5,0.3c0.1,0.2,0.1,0.4,0.1,0.7s0,0.5,0,0.8v3.5h-1.1
			V374c0-0.4,0-0.7-0.1-0.9c0-0.3-0.1-0.5-0.2-0.7c-0.1-0.2-0.2-0.3-0.4-0.4s-0.4-0.1-0.7-0.1c-0.1,0-0.2,0-0.4,0s-0.3,0-0.4,0
			c-0.1,0-0.2,0-0.3,0s-0.2,0-0.2,0v5.3h-1.1v-6H520.7z"/>
		<path id="XMLID_1149_" class="st0" d="M530.1,374.2c0-0.6,0.1-1,0.2-1.4c0.1-0.4,0.4-0.8,0.6-1c0.3-0.3,0.6-0.5,0.9-0.6
			c0.3-0.1,0.7-0.2,1.1-0.2c0.8,0,1.5,0.3,1.9,0.8s0.7,1.3,0.7,2.4c0,0,0,0.1,0,0.2s0,0.1,0,0.2h-4.3c0,0.6,0.2,1.1,0.6,1.5
			s0.8,0.5,1.5,0.5c0.4,0,0.7,0,1-0.1c0.3-0.1,0.5-0.1,0.6-0.2l0.2,0.9c-0.1,0.1-0.4,0.1-0.7,0.2c-0.3,0.1-0.7,0.1-1.2,0.1
			s-1-0.1-1.4-0.2c-0.4-0.2-0.7-0.4-1-0.7s-0.4-0.6-0.6-1C530.2,375.1,530.1,374.7,530.1,374.2z M534.4,373.6c0-0.5-0.1-0.9-0.4-1.2
			c-0.3-0.3-0.6-0.5-1.1-0.5c-0.3,0-0.5,0.1-0.7,0.2s-0.4,0.2-0.5,0.4c-0.1,0.2-0.2,0.3-0.3,0.6c-0.1,0.2-0.1,0.4-0.1,0.6h3.1V373.6
			z"/>
		<path id="XMLID_1147_" class="st0" d="M536.6,371.2c0.3-0.1,0.6-0.1,1-0.2s0.9-0.1,1.5-0.1c0.5,0,0.9,0.1,1.2,0.2s0.6,0.3,0.8,0.6
			c0.2,0.3,0.3,0.6,0.4,0.9c0.1,0.4,0.1,0.7,0.1,1.2v3.5h-1.1V374c0-0.4,0-0.7-0.1-1c-0.1-0.3-0.1-0.5-0.3-0.7
			c-0.2-0.2-0.3-0.3-0.5-0.4c-0.2-0.1-0.4-0.1-0.7-0.1c-0.1,0-0.2,0-0.4,0s-0.3,0-0.4,0c-0.1,0-0.2,0-0.3,0s-0.2,0-0.2,0v5.3h-1.1
			L536.6,371.2L536.6,371.2z"/>
		<path id="XMLID_1145_" class="st0" d="M544.4,376.5c0.5,0,0.8-0.1,1-0.2s0.3-0.3,0.3-0.6s-0.1-0.5-0.3-0.6s-0.6-0.3-1.1-0.5
			c-0.2-0.1-0.5-0.2-0.7-0.3s-0.4-0.2-0.6-0.4c-0.2-0.1-0.3-0.3-0.4-0.5c-0.1-0.2-0.1-0.4-0.1-0.7c0-0.6,0.2-1,0.6-1.3
			c0.4-0.3,1-0.5,1.7-0.5c0.2,0,0.4,0,0.5,0c0.2,0,0.3,0,0.5,0.1c0.2,0,0.3,0.1,0.4,0.1s0.2,0.1,0.3,0.1l-0.2,1
			c-0.1-0.1-0.3-0.1-0.6-0.2s-0.6-0.1-0.9-0.1c-0.3,0-0.6,0.1-0.8,0.2s-0.3,0.3-0.3,0.6c0,0.1,0,0.3,0.1,0.4s0.1,0.2,0.2,0.3
			c0.1,0.1,0.2,0.2,0.4,0.2c0.2,0.1,0.4,0.1,0.6,0.2c0.3,0.1,0.6,0.2,0.8,0.3s0.4,0.2,0.6,0.4c0.2,0.1,0.3,0.3,0.4,0.5
			c0.1,0.2,0.1,0.5,0.1,0.8c0,0.6-0.2,1-0.6,1.3c-0.4,0.3-1,0.4-1.8,0.4c-0.6,0-1,0-1.3-0.1c-0.3-0.1-0.5-0.2-0.6-0.2l0.2-1
			c0.1,0,0.3,0.1,0.6,0.2C543.6,376.4,543.9,376.5,544.4,376.5z"/>
		<path id="XMLID_1142_" class="st0" d="M549.8,370.9c0.4,0,0.8,0.1,1.1,0.2s0.6,0.3,0.7,0.5c0.2,0.2,0.3,0.5,0.4,0.8
			c0.1,0.3,0.1,0.6,0.1,1v3.9c-0.1,0-0.2,0-0.4,0.1c-0.2,0.1-0.4,0.1-0.6,0.1c-0.2,0-0.5,0-0.7,0.1c-0.3,0-0.5,0-0.8,0
			c-0.4,0-0.7,0-1-0.1s-0.6-0.2-0.8-0.3c-0.2-0.2-0.4-0.4-0.5-0.6c-0.1-0.3-0.2-0.6-0.2-0.9c0-0.3,0.1-0.6,0.2-0.9
			c0.1-0.3,0.3-0.4,0.6-0.6c0.2-0.2,0.5-0.3,0.8-0.3c0.3-0.1,0.7-0.1,1-0.1c0.1,0,0.2,0,0.3,0s0.2,0,0.3,0s0.2,0,0.3,0.1
			c0.1,0.1,0.1,0,0.2,0v-0.3c0-0.2,0-0.4-0.1-0.5s-0.1-0.3-0.2-0.5c-0.1-0.1-0.2-0.3-0.4-0.3c-0.2-0.1-0.4-0.1-0.7-0.1
			c-0.4,0-0.7,0-1,0.1c-0.3,0.1-0.5,0.1-0.6,0.2l-0.1-0.9c0.1-0.1,0.4-0.1,0.7-0.2C549,370.9,549.4,370.9,549.8,370.9z M549.8,376.5
			c0.3,0,0.5,0,0.7,0s0.4,0,0.5-0.1v-1.9c-0.1,0-0.2-0.1-0.4-0.1s-0.4,0-0.7,0c-0.2,0-0.3,0-0.5,0s-0.4,0.1-0.5,0.2
			s-0.3,0.2-0.4,0.3c-0.1,0.1-0.2,0.3-0.2,0.5c0,0.4,0.1,0.7,0.4,0.8S549.4,376.5,549.8,376.5z"/>
		<path id="XMLID_1139_" class="st0" d="M552.4,379.5c-0.1,0-0.2,0-0.4,0s-0.3-0.1-0.4-0.1l0.1-0.9c0.1,0,0.2,0,0.3,0.1
			c0.1,0,0.2,0,0.3,0c0.4,0,0.7-0.1,0.8-0.4c0.2-0.2,0.2-0.6,0.2-1v-6.1h1.1v6.1c0,0.8-0.2,1.4-0.5,1.8
			C553.7,379.3,553.1,379.5,552.4,379.5z M554,369.9c-0.2,0-0.4-0.1-0.5-0.2s-0.2-0.3-0.2-0.5c0-0.2,0.1-0.4,0.2-0.5
			c0.1-0.1,0.3-0.2,0.5-0.2s0.4,0.1,0.5,0.2s0.2,0.3,0.2,0.5c0,0.2-0.1,0.4-0.2,0.5C554.4,369.9,554.2,369.9,554,369.9z"/>
		<path id="XMLID_1136_" class="st0" d="M555.6,374.2c0-0.6,0.1-1,0.2-1.4c0.1-0.4,0.4-0.8,0.6-1c0.3-0.3,0.6-0.5,0.9-0.6
			c0.3-0.1,0.7-0.2,1.1-0.2c0.8,0,1.5,0.3,1.9,0.8s0.7,1.3,0.7,2.4c0,0,0,0.1,0,0.2s0,0.1,0,0.2h-4.3c0,0.6,0.2,1.1,0.6,1.5
			s0.8,0.5,1.5,0.5c0.4,0,0.7,0,1-0.1c0.3-0.1,0.5-0.1,0.6-0.2l0.2,0.9c-0.1,0.1-0.4,0.1-0.7,0.2c-0.3,0.1-0.7,0.1-1.2,0.1
			s-1-0.1-1.4-0.2c-0.4-0.2-0.7-0.4-1-0.7s-0.4-0.6-0.6-1C555.6,375.1,555.6,374.7,555.6,374.2z M559.9,373.6c0-0.5-0.1-0.9-0.4-1.2
			c-0.3-0.3-0.6-0.5-1.1-0.5c-0.3,0-0.5,0.1-0.7,0.2s-0.4,0.2-0.5,0.4c-0.1,0.2-0.2,0.3-0.3,0.6c-0.1,0.2-0.1,0.4-0.1,0.6h3.1V373.6
			z"/>
	</g>
</g>
<g id="XMLID_151_">
	<g id="XMLID_732_">
		<path id="XMLID_767_" class="st1" d="M420.7,345.3l3.4,12.6h-1.9l-0.5-2h-3l-0.5,2h-1.9l3.4-12.6
			C419.7,345.3,420.7,345.3,420.7,345.3z M419.2,353.9h1.9l-1-4L419.2,353.9z"/>
		<path id="XMLID_765_" class="st1" d="M430.8,352l2.8-4.3l1.9-2.9v13h-1.9v-6.6l-2.8,4.3l-2.8-4.3v6.6h-1.9v-13l1.9,2.9L430.8,352z
			"/>
		<path id="XMLID_762_" class="st1" d="M439.4,355.2v2.7h-1.9v-12.5h2c1.4,0,2.5,0.5,3.5,1.4c1,1,1.4,2.1,1.4,3.5
			c0,1.4-0.5,2.5-1.4,3.5c-1,1-2.1,1.4-3.5,1.4H439.4z M439.4,353.3h0.1c0.8,0,1.6-0.3,2.2-0.9c0.6-0.6,0.9-1.3,0.9-2.2
			s-0.3-1.6-0.9-2.2s-1.3-0.9-2.2-0.9h-0.1V353.3z"/>
		<path id="XMLID_760_" class="st1" d="M446.5,345.4h1.9v10.5h4.3v1.9h-6.2L446.5,345.4L446.5,345.4z"/>
		<path id="XMLID_758_" class="st1" d="M454.7,345.4h1.9v12.5h-1.9V345.4z"/>
		<path id="XMLID_755_" class="st1" d="M461.3,356.2l-0.7,1.7h-2l5-13l5,13h-2l-0.7-1.7H461.3z M462,354.3h3.2l-1.6-4.1L462,354.3z"
			/>
		<path id="XMLID_753_" class="st1" d="M479.3,357.8c-0.5,0-1-0.1-1.4-0.2s-0.9-0.4-1.3-0.7v-2.3c0.3,0.3,0.5,0.5,0.7,0.6
			s0.3,0.2,0.6,0.3c0.2,0.1,0.5,0.2,0.8,0.3c0.3,0.1,0.5,0.1,0.8,0.1c0.6,0,1-0.2,1.4-0.6c0.4-0.4,0.5-0.8,0.5-1.4
			c0-0.4-0.2-0.8-0.5-1.1c-0.3-0.3-0.8-0.6-1.5-0.9c-0.4-0.2-0.8-0.4-1.1-0.6c-0.3-0.2-0.6-0.4-0.8-0.6c-0.3-0.3-0.5-0.6-0.6-0.9
			c-0.2-0.4-0.2-0.8-0.2-1.3s0.1-0.9,0.3-1.3c0.2-0.4,0.5-0.8,0.8-1.1c0.4-0.3,0.8-0.5,1.2-0.7c0.5-0.2,0.9-0.3,1.4-0.3
			c0.4,0,0.7,0.1,1,0.2c0.3,0.1,0.7,0.3,1.1,0.5v1.9c-0.2-0.2-0.4-0.3-0.5-0.3s-0.2-0.1-0.4-0.2c-0.2-0.1-0.3-0.2-0.6-0.2
			c-0.2-0.1-0.4-0.1-0.7-0.1c-0.5,0-1,0.2-1.3,0.5c-0.4,0.3-0.5,0.7-0.5,1.1s0.2,0.7,0.5,1c0.3,0.2,0.8,0.5,1.4,0.8
			c0.4,0.2,0.8,0.4,1.1,0.6c0.3,0.2,0.6,0.4,0.8,0.6c0.3,0.3,0.5,0.6,0.7,1s0.3,0.9,0.3,1.4s-0.1,1-0.3,1.4
			c-0.2,0.4-0.5,0.8-0.9,1.2c-0.4,0.3-0.8,0.6-1.3,0.8C480.3,357.7,479.8,357.8,479.3,357.8z"/>
		<path id="XMLID_751_" class="st1" d="M490.9,354v-8.7h1.9v8.7c0,1-0.4,1.9-1.1,2.7c-0.7,0.7-1.6,1.1-2.7,1.1s-1.9-0.4-2.7-1.1
			c-0.7-0.7-1.1-1.6-1.1-2.7v-8.7h1.9v8.7c0,0.5,0.2,1,0.6,1.3c0.4,0.4,0.8,0.6,1.3,0.6s1-0.2,1.3-0.6
			C490.7,355,490.9,354.6,490.9,354z"/>
		<path id="XMLID_748_" class="st1" d="M496.7,355.2v2.7h-1.9v-12.5h2c1.4,0,2.5,0.5,3.5,1.4c1,1,1.4,2.1,1.4,3.5
			c0,1.4-0.5,2.5-1.4,3.5c-1,1-2.1,1.4-3.5,1.4H496.7z M496.7,353.3L496.7,353.3c0.9,0,1.7-0.3,2.3-0.9c0.6-0.6,0.9-1.3,0.9-2.2
			s-0.3-1.6-0.9-2.2c-0.6-0.6-1.3-0.9-2.2-0.9h-0.1V353.3z"/>
		<path id="XMLID_746_" class="st1" d="M503.8,345.4h5.7v1.9h-3.8v4.6h3.8v1.9h-3.8v2.2h3.8v1.9h-5.7V345.4z"/>
		<path id="XMLID_743_" class="st1" d="M516.6,354.1l1.8,3.7h-2l-1.3-2.9c-0.4,0.1-0.9,0.2-1.4,0.2h-0.1v2.7h-1.9v-12.4h2
			c1.4,0,2.5,0.5,3.5,1.4c1,1,1.4,2.1,1.4,3.5c0,1.4-0.5,2.5-1.4,3.5C516.9,353.9,516.7,354,516.6,354.1z M513.4,353.3L513.4,353.3
			c0.9,0,1.7-0.3,2.3-0.9c0.6-0.6,0.9-1.3,0.9-2.2s-0.3-1.6-0.9-2.2s-1.3-0.9-2.2-0.9h-0.1V353.3z"/>
		<path id="XMLID_741_" class="st1" d="M520.5,345.4h5.7v1.9h-3.8v4.6h3.8v1.9h-3.8v4h-1.9V345.4z"/>
		<path id="XMLID_739_" class="st1" d="M528.3,345.4h1.9v12.5h-1.9V345.4z"/>
		<path id="XMLID_737_" class="st1" d="M540.9,355.2v2.2c-0.7,0.3-1.5,0.4-2.3,0.4c-0.9,0-1.7-0.2-2.5-0.5c-0.8-0.3-1.4-0.8-2-1.3
			c-0.6-0.6-1-1.2-1.4-2c-0.3-0.8-0.5-1.6-0.5-2.4c0-0.9,0.2-1.7,0.5-2.4c0.3-0.7,0.8-1.4,1.4-2c0.6-0.6,1.3-1,2-1.3
			c0.7-0.3,1.6-0.5,2.5-0.5c0.8,0,1.6,0.1,2.3,0.4v2.2c-0.2-0.1-0.4-0.2-0.7-0.3c-0.5-0.2-1.1-0.3-1.7-0.3c-0.6,0-1.2,0.1-1.7,0.3
			c-0.5,0.2-1,0.5-1.4,0.9s-0.7,0.8-0.9,1.4s-0.3,1.1-0.3,1.7s0.1,1.2,0.3,1.7s0.5,1,0.9,1.4c0.4,0.4,0.9,0.7,1.4,0.9
			c0.5,0.2,1.1,0.3,1.7,0.3c0.6,0,1.2-0.1,1.7-0.3C540.4,355.5,540.7,355.4,540.9,355.2z"/>
		<path id="XMLID_735_" class="st1" d="M542.9,345.4h1.9v12.5h-1.9V345.4z"/>
		<path id="XMLID_733_" class="st1" d="M546.8,345.4h5.7v1.9h-3.8v4.6h3.8v1.9h-3.8v2.2h3.8v1.9h-5.7V345.4z"/>
	</g>
</g>
<g id="XMLID_148_">
	<g id="XMLID_773_">
		<path id="XMLID_820_" class="st1" d="M213.5,420.8h1.9v12.5h-1.9V420.8z"/>
		<path id="XMLID_817_" class="st1" d="M217.4,433.3v-12.4h2.3c1.7,0,3.2,0.6,4.4,1.8s1.8,2.7,1.8,4.4c0,1.7-0.6,3.2-1.8,4.4
			c-1.2,1.2-2.7,1.8-4.4,1.8L217.4,433.3L217.4,433.3z M219.3,422.8v8.6h0.4c1.2,0,2.2-0.4,3.1-1.3c0.8-0.8,1.3-1.9,1.3-3
			c0-1.2-0.4-2.2-1.3-3.1c-0.8-0.8-1.9-1.3-3.1-1.3L219.3,422.8L219.3,422.8z"/>
		<path id="XMLID_815_" class="st1" d="M227.9,420.9h5.7v1.9h-3.8v4.6h3.8v1.9h-3.8v2.2h3.8v1.9h-5.7V420.9z"/>
		<path id="XMLID_812_" class="st1" d="M238.4,431.6l-0.7,1.7h-2l5-13l5,13h-2l-0.7-1.7H238.4z M239.1,429.7h3.2l-1.6-4.1
			L239.1,429.7z"/>
		<path id="XMLID_809_" class="st1" d="M266.3,427.1c0,0.9-0.2,1.7-0.5,2.4c-0.3,0.8-0.8,1.4-1.4,2c-0.6,0.6-1.3,1-2,1.3
			c-0.7,0.3-1.6,0.5-2.5,0.5s-1.7-0.2-2.5-0.5c-0.8-0.3-1.4-0.8-2-1.3c-0.6-0.6-1-1.2-1.4-2c-0.3-0.8-0.5-1.6-0.5-2.4
			c0-0.9,0.2-1.7,0.5-2.4s0.8-1.4,1.4-2c0.6-0.6,1.3-1,2-1.3c0.8-0.3,1.6-0.5,2.5-0.5s1.7,0.2,2.5,0.5c0.8,0.3,1.4,0.8,2,1.3
			c0.6,0.6,1,1.2,1.4,2C266.2,425.5,266.3,426.2,266.3,427.1z M255.6,427.1c0,0.6,0.1,1.2,0.3,1.7c0.2,0.5,0.5,1,0.9,1.4
			c0.4,0.4,0.9,0.7,1.4,0.9c0.5,0.2,1.1,0.3,1.7,0.3s1.2-0.1,1.7-0.3c0.5-0.2,1-0.5,1.4-0.9c0.4-0.4,0.7-0.8,0.9-1.4
			c0.2-0.6,0.3-1.1,0.3-1.7s-0.1-1.2-0.3-1.7s-0.5-1-0.9-1.4c-0.4-0.4-0.8-0.7-1.4-0.9s-1.1-0.3-1.7-0.3s-1.2,0.1-1.7,0.3
			c-0.5,0.2-1,0.5-1.4,0.9c-0.4,0.4-0.7,0.8-0.9,1.4C255.7,425.9,255.6,426.5,255.6,427.1z"/>
		<path id="XMLID_806_" class="st1" d="M273.4,429.6l1.8,3.7h-2l-1.3-2.9c-0.4,0.1-0.9,0.2-1.4,0.2h-0.1v2.7h-1.9v-12.5h2
			c1.4,0,2.5,0.5,3.5,1.4c1,1,1.4,2.1,1.4,3.5c0,1.4-0.5,2.5-1.4,3.5C273.7,429.4,273.6,429.5,273.4,429.6z M270.2,428.8h0.1
			c0.8,0,1.6-0.3,2.2-0.9s0.9-1.3,0.9-2.2s-0.3-1.6-0.9-2.2c-0.6-0.6-1.3-0.9-2.2-0.9h-0.1V428.8z"/>
		<path id="XMLID_804_" class="st1" d="M277.3,420.8h1.9v12.5h-1.9V420.8z"/>
		<path id="XMLID_802_" class="st1" d="M288.3,431.3v-2.1H287v-1.9h2.9v5.5c-0.7,0.3-1.5,0.4-2.3,0.4c-0.9,0-1.7-0.2-2.5-0.5
			c-0.8-0.3-1.4-0.8-2-1.3c-0.6-0.6-1-1.2-1.4-2c-0.3-0.8-0.5-1.6-0.5-2.4c0-0.9,0.2-1.7,0.5-2.4c0.3-0.7,0.8-1.4,1.4-2s1.3-1,2-1.3
			c0.8-0.3,1.6-0.5,2.5-0.5c0.8,0,1.6,0.1,2.3,0.4v2.2c-0.2-0.1-0.4-0.2-0.7-0.3c-0.5-0.2-1.1-0.3-1.7-0.3s-1.2,0.1-1.7,0.3
			c-0.5,0.2-1,0.5-1.4,0.9c-0.4,0.4-0.7,0.8-0.9,1.4s-0.3,1.1-0.3,1.7c0,0.6,0.1,1.2,0.3,1.7s0.5,1,0.9,1.4s0.9,0.7,1.4,0.9
			c0.5,0.2,1.1,0.3,1.7,0.3C287.8,431.4,288.1,431.4,288.3,431.3z"/>
		<path id="XMLID_800_" class="st1" d="M291.9,420.8h1.9v12.5h-1.9V420.8z"/>
		<path id="XMLID_798_" class="st1" d="M301.6,428.1v-7.3h1.9v13l-5.7-7.8v7.2h-1.9v-13L301.6,428.1z"/>
		<path id="XMLID_795_" class="st1" d="M308.2,431.6l-0.7,1.7h-2l5-13l5,13h-2l-0.7-1.7H308.2z M308.9,429.7h3.2l-1.6-4.1
			L308.9,429.7z"/>
		<path id="XMLID_793_" class="st1" d="M317.5,420.9h1.9v10.5h4.3v1.9h-6.2L317.5,420.9L317.5,420.9z"/>
		<path id="XMLID_791_" class="st1" d="M213.5,441.5h2l2.3,7l2.3-7h2l-3.2,9.3v3.2h-2.2v-3.2L213.5,441.5z"/>
		<path id="XMLID_789_" class="st1" d="M238.8,451.4v2.2c-0.7,0.3-1.5,0.4-2.3,0.4c-0.9,0-1.7-0.2-2.5-0.5c-0.8-0.3-1.4-0.8-2-1.3
			c-0.6-0.6-1-1.2-1.4-2c-0.3-0.8-0.5-1.6-0.5-2.4c0-0.9,0.2-1.7,0.5-2.4c0.3-0.7,0.8-1.4,1.4-2c0.6-0.6,1.3-1,2-1.3
			c0.8-0.3,1.6-0.5,2.5-0.5c0.8,0,1.6,0.1,2.3,0.4v2.2c-0.2-0.1-0.4-0.2-0.7-0.3c-0.5-0.2-1.1-0.3-1.7-0.3c-0.6,0-1.2,0.1-1.7,0.3
			s-1,0.5-1.4,0.9c-0.4,0.4-0.7,0.8-0.9,1.4c-0.2,0.6-0.3,1.1-0.3,1.7s0.1,1.2,0.3,1.7s0.5,1,0.9,1.4c0.4,0.4,0.9,0.7,1.4,0.9
			c0.5,0.2,1.1,0.3,1.7,0.3c0.6,0,1.2-0.1,1.7-0.3C238.4,451.6,238.6,451.5,238.8,451.4z"/>
		<path id="XMLID_786_" class="st1" d="M245.9,450.3l1.8,3.7h-2l-1.3-2.9c-0.4,0.1-0.9,0.2-1.4,0.2h-0.1v2.7H241v-12.5h2
			c1.4,0,2.5,0.5,3.5,1.4c1,1,1.4,2.1,1.4,3.5s-0.5,2.5-1.4,3.5C246.2,450,246,450.2,245.9,450.3z M242.7,449.5h0.1
			c0.8,0,1.6-0.3,2.2-0.9s0.9-1.3,0.9-2.2c0-0.9-0.3-1.6-0.9-2.2s-1.3-0.9-2.2-0.9h-0.1V449.5z"/>
		<path id="XMLID_784_" class="st1" d="M249.8,441.6h5.7v1.9h-3.8v4.6h3.8v1.9h-3.8v2.2h3.8v1.9h-5.7V441.6z"/>
		<path id="XMLID_781_" class="st1" d="M260.2,452.3l-0.7,1.7h-2l5-13l5,13h-2l-0.7-1.7H260.2z M261,450.4h3.2l-1.6-4.1L261,450.4z"
			/>
		<path id="XMLID_779_" class="st1" d="M266.6,441.5h8.1v2h-3.1v10.4h-1.9v-10.4h-3.1V441.5z"/>
		<path id="XMLID_777_" class="st1" d="M276.7,441.5h1.9V454h-1.9V441.5z"/>
		<path id="XMLID_774_" class="st1" d="M291.3,452.3l-0.7,1.7h-2l5-13l5,13h-2l-0.7-1.7H291.3z M292.1,450.4h3.2l-1.6-4.1
			L292.1,450.4z"/>
		<path id="XMLID_1_" class="st1" d="M290.5,441.5l-5,13l-5-13h2l3,7.7l3-7.7C288.5,441.5,290.5,441.5,290.5,441.5z"/>
	</g>
</g>
<g id="XMLID_113_">
	<g id="XMLID_557_">
		<path id="XMLID_632_" class="st1" d="M218.1,343.7l3.4,12.6h-1.9l-0.5-2h-3l-0.5,2h-1.9l3.4-12.6H218.1z M216.5,352.3h1.9l-1-4
			L216.5,352.3z"/>
		<path id="XMLID_630_" class="st1" d="M223.5,343.9h1.9v10.5h4.3v1.9h-6.2V343.9z"/>
		<path id="XMLID_628_" class="st1" d="M228.8,343.8h8.1v2h-3.1v10.4h-1.9v-10.4h-3.1V343.8z"/>
		<path id="XMLID_625_" class="st1" d="M238.7,354.6l-0.7,1.7h-2l5-13l5,13h-2l-0.7-1.7H238.7z M239.5,352.7h3.2l-1.7-4.1
			L239.5,352.7z"/>
		<path id="XMLID_623_" class="st1" d="M213.5,364.6h5.7v1.9h-3.8v4.6h3.8v1.9h-3.8v2.2h3.8v1.9h-5.7V364.6z"/>
		<path id="XMLID_621_" class="st1" d="M221.3,364.6h5.7v1.9h-3.8v4.6h3.8v1.9h-3.8v4h-1.9V364.6z"/>
		<path id="XMLID_619_" class="st1" d="M229,364.6h5.7v1.9h-3.8v4.6h3.8v1.9h-3.8v2.2h3.8v1.9H229V364.6z"/>
		<path id="XMLID_617_" class="st1" d="M245.5,374.3v2.2c-0.7,0.3-1.5,0.4-2.3,0.4c-0.9,0-1.7-0.2-2.5-0.5c-0.8-0.3-1.4-0.8-2-1.3
			c-0.6-0.6-1-1.2-1.4-2c-0.3-0.8-0.5-1.6-0.5-2.4c0-0.9,0.2-1.7,0.5-2.4c0.3-0.7,0.8-1.4,1.4-2c0.6-0.6,1.3-1,2-1.3
			c0.8-0.3,1.6-0.5,2.5-0.5c0.8,0,1.6,0.1,2.3,0.4v2.2c-0.2-0.1-0.4-0.2-0.7-0.3c-0.5-0.2-1.1-0.3-1.7-0.3s-1.2,0.1-1.7,0.3
			c-0.5,0.2-1,0.5-1.4,0.9s-0.7,0.8-0.9,1.4c-0.2,0.5-0.3,1.1-0.3,1.7s0.1,1.2,0.3,1.7s0.5,1,0.9,1.4c0.4,0.4,0.9,0.7,1.4,0.9
			c0.5,0.2,1.1,0.3,1.7,0.3s1.2-0.1,1.7-0.3C245.1,374.6,245.3,374.5,245.5,374.3z"/>
		<path id="XMLID_615_" class="st1" d="M247.5,364.5h8.1v2h-3.1v10.4h-1.9v-10.5h-3.1V364.5z"/>
		<path id="XMLID_613_" class="st1" d="M257.6,364.5h1.9V377h-1.9V364.5z"/>
		<path id="XMLID_611_" class="st1" d="M271.5,364.5l-5,13l-5-13h2l3,7.7l3-7.7C269.5,364.5,271.5,364.5,271.5,364.5z"/>
		<path id="XMLID_609_" class="st1" d="M273.6,364.5h1.9V377h-1.9V364.5z"/>
		<path id="XMLID_564_" class="st1" d="M277.5,376.9v-12.3h2.3c1.7,0,3.2,0.6,4.4,1.8c1.2,1.2,1.8,2.7,1.8,4.4
			c0,1.7-0.6,3.2-1.8,4.4s-2.7,1.8-4.4,1.8h-2.3V376.9z M279.3,366.4v8.6h0.4c1.2,0,2.2-0.4,3.1-1.3c0.8-0.8,1.3-1.9,1.3-3
			c0-1.2-0.4-2.2-1.3-3.1c-0.8-0.8-1.9-1.3-3.1-1.3L279.3,366.4L279.3,366.4z"/>
		<path id="XMLID_561_" class="st1" d="M289.2,375.3l-0.7,1.7h-2l5-13l5,13h-2l-0.7-1.7H289.2z M290,373.4h3.2l-1.6-4.1L290,373.4z"
			/>
		<path id="XMLID_558_" class="st1" d="M298.6,376.9v-12.3h2.3c1.7,0,3.2,0.6,4.4,1.8c1.2,1.2,1.8,2.7,1.8,4.4
			c0,1.7-0.6,3.2-1.8,4.4s-2.7,1.8-4.4,1.8h-2.3V376.9z M300.4,366.4v8.6h0.4c1.2,0,2.2-0.4,3.1-1.3c0.8-0.8,1.3-1.9,1.3-3
			c0-1.2-0.4-2.2-1.3-3.1c-0.8-0.8-1.9-1.3-3.1-1.3L300.4,366.4L300.4,366.4z"/>
	</g>
</g>
<g id="XMLID_134_">
	<g id="XMLID_405_">
		<path id="XMLID_430_" class="st1" d="M30.6,355v-12.5h2.9c0.8,0,1.5,0.3,2,0.8c0.6,0.6,0.8,1.2,0.8,2c0,0.8-0.3,1.4-0.8,2
			c0.6,0.2,1.1,0.5,1.6,1c0.8,0.8,1.1,1.7,1.1,2.8s-0.4,2-1.1,2.8c-0.8,0.8-1.7,1.1-2.7,1.1H30.6z M32.5,346.5h1
			c0.3,0,0.5-0.1,0.7-0.3c0.2-0.2,0.3-0.5,0.3-0.8c0-0.3-0.1-0.5-0.3-0.8c-0.2-0.2-0.4-0.3-0.7-0.3h-1V346.5z M32.5,348.8v2.9v1.4
			h1.9c0.5,0,1-0.2,1.4-0.6s0.6-0.9,0.6-1.5s-0.2-1.1-0.6-1.5s-0.9-0.6-1.4-0.6L32.5,348.8L32.5,348.8z"/>
		<path id="XMLID_427_" class="st1" d="M42.1,353.3l-0.7,1.7h-2l5-13.1l5,13.1h-2l-0.7-1.7H42.1z M42.9,351.4H46l-1.6-4.2
			L42.9,351.4z"/>
		<path id="XMLID_425_" class="st1" d="M51.5,352.5c0.7,0.4,1.3,0.6,1.8,0.6s1-0.2,1.3-0.6c0.4-0.4,0.6-0.8,0.6-1.4v-8.7H57v8.8
			c0,1.1-0.4,2-1.1,2.7c-0.7,0.7-1.6,1.1-2.7,1.1c-0.6,0-1.2-0.1-1.8-0.4L51.5,352.5L51.5,352.5z"/>
		<path id="XMLID_422_" class="st1" d="M71.8,348.7c0,0.9-0.2,1.7-0.5,2.4c-0.3,0.8-0.8,1.4-1.4,2s-1.3,1-2,1.3
			c-0.8,0.3-1.6,0.5-2.5,0.5s-1.7-0.2-2.5-0.5c-0.8-0.3-1.4-0.8-2-1.3c-0.6-0.6-1-1.2-1.4-2c-0.3-0.8-0.5-1.6-0.5-2.4
			c0-0.9,0.2-1.7,0.5-2.5c0.3-0.8,0.8-1.4,1.4-2s1.3-1,2-1.3c0.8-0.3,1.6-0.5,2.5-0.5s1.7,0.2,2.5,0.5c0.8,0.3,1.4,0.8,2,1.3
			c0.6,0.6,1,1.2,1.4,2C71.7,347,71.8,347.8,71.8,348.7z M61.1,348.7c0,0.6,0.1,1.2,0.3,1.7c0.2,0.5,0.5,1,0.9,1.4
			c0.4,0.4,0.9,0.7,1.4,0.9c0.5,0.2,1.1,0.3,1.7,0.3s1.2-0.1,1.7-0.3c0.5-0.2,1-0.5,1.4-0.9c0.4-0.4,0.7-0.9,0.9-1.4
			c0.2-0.5,0.3-1.1,0.3-1.7s-0.1-1.2-0.3-1.7c-0.2-0.5-0.5-1-0.9-1.4s-0.8-0.7-1.4-0.9c-0.6-0.2-1.1-0.4-1.7-0.4s-1.2,0.1-1.7,0.3
			s-1,0.5-1.4,0.9s-0.7,0.9-0.9,1.4C61.2,347.5,61.1,348.1,61.1,348.7z"/>
		<path id="XMLID_420_" class="st1" d="M76.5,355c-0.5,0-1-0.1-1.4-0.2c-0.4-0.1-0.9-0.4-1.3-0.7v-2.3c0.3,0.3,0.5,0.5,0.7,0.6
			c0.2,0.1,0.3,0.2,0.6,0.4c0.2,0.1,0.5,0.2,0.8,0.3s0.5,0.1,0.8,0.1c0.6,0,1-0.2,1.4-0.6s0.5-0.8,0.5-1.4c0-0.4-0.2-0.8-0.5-1.1
			s-0.8-0.6-1.5-0.9c-0.4-0.2-0.8-0.4-1.1-0.6c-0.3-0.2-0.6-0.4-0.8-0.7c-0.3-0.3-0.5-0.6-0.6-0.9c-0.2-0.4-0.2-0.8-0.2-1.3
			s0.1-0.9,0.3-1.3c0.1-0.4,0.4-0.8,0.8-1.1c0.4-0.3,0.8-0.5,1.2-0.7c0.5-0.2,0.9-0.3,1.4-0.3c0.4,0,0.7,0.1,1,0.2s0.7,0.3,1.1,0.5
			v2c-0.2-0.2-0.4-0.3-0.5-0.3s-0.2-0.1-0.4-0.2c-0.2-0.1-0.3-0.2-0.6-0.2c-0.2-0.1-0.4-0.1-0.7-0.1c-0.5,0-1,0.2-1.3,0.5
			c-0.3,0.3-0.5,0.7-0.5,1.2c0,0.4,0.2,0.7,0.5,1c0.3,0.2,0.8,0.5,1.4,0.8c0.4,0.2,0.8,0.4,1.1,0.6c0.3,0.2,0.6,0.4,0.8,0.6
			c0.3,0.3,0.5,0.6,0.7,1c0.2,0.4,0.3,0.9,0.3,1.4s-0.1,1-0.3,1.4c-0.2,0.5-0.5,0.8-0.9,1.2c-0.4,0.3-0.8,0.6-1.3,0.8
			C77.5,354.9,77,355,76.5,355z"/>
		<path id="XMLID_418_" class="st1" d="M39.3,373.2v2.2c-0.7,0.3-1.5,0.4-2.3,0.4c-0.9,0-1.7-0.2-2.5-0.5c-0.8-0.3-1.4-0.8-2-1.3
			c-0.6-0.6-1-1.2-1.4-2c-0.3-0.8-0.5-1.6-0.5-2.4c0-0.9,0.2-1.7,0.5-2.5s0.8-1.4,1.4-2c0.6-0.6,1.3-1,2-1.3
			c0.8-0.3,1.6-0.5,2.5-0.5c0.8,0,1.6,0.1,2.3,0.4v2.2c-0.2-0.1-0.4-0.2-0.7-0.3c-0.5-0.2-1.1-0.3-1.7-0.3c-0.6,0-1.2,0.1-1.7,0.3
			c-0.5,0.2-1,0.5-1.4,0.9c-0.4,0.4-0.7,0.9-0.9,1.4s-0.3,1.1-0.3,1.7s0.1,1.2,0.3,1.7s0.5,1,0.9,1.4s0.9,0.7,1.4,0.9
			c0.5,0.2,1.1,0.3,1.7,0.3c0.6,0,1.2-0.1,1.7-0.3C38.9,373.4,39.1,373.3,39.3,373.2z"/>
		<path id="XMLID_415_" class="st1" d="M53.2,369.5c0,0.9-0.2,1.7-0.5,2.4c-0.3,0.8-0.8,1.4-1.4,2c-0.6,0.6-1.3,1-2,1.3
			s-1.6,0.5-2.5,0.5s-1.7-0.2-2.5-0.5s-1.4-0.8-2-1.3c-0.6-0.6-1-1.2-1.4-2c-0.3-0.8-0.5-1.6-0.5-2.4c0-0.9,0.2-1.7,0.5-2.5
			c0.3-0.8,0.8-1.4,1.4-2c0.6-0.6,1.3-1,2-1.3c0.8-0.3,1.6-0.5,2.5-0.5s1.7,0.2,2.5,0.5s1.4,0.8,2,1.3c0.6,0.6,1,1.2,1.4,2
			C53.1,367.8,53.2,368.7,53.2,369.5z M42.5,369.5c0,0.6,0.1,1.2,0.3,1.7s0.5,1,0.9,1.4s0.9,0.7,1.4,0.9c0.5,0.2,1.1,0.3,1.7,0.3
			c0.6,0,1.2-0.1,1.7-0.3c0.5-0.2,1-0.5,1.4-0.9s0.7-0.9,0.9-1.4c0.2-0.5,0.3-1.1,0.3-1.7s-0.1-1.2-0.3-1.7c-0.2-0.5-0.5-1-0.9-1.4
			c-0.4-0.4-0.8-0.7-1.4-0.9c-0.6-0.2-1.1-0.3-1.7-0.3c-0.6,0-1.2,0.1-1.7,0.3c-0.5,0.2-1,0.5-1.4,0.9c-0.4,0.4-0.7,0.9-0.9,1.4
			C42.7,368.4,42.5,368.9,42.5,369.5z"/>
		<path id="XMLID_413_" class="st1" d="M58,375.8c-0.5,0-1-0.1-1.4-0.2s-0.9-0.4-1.3-0.7v-2.3c0.3,0.3,0.5,0.5,0.7,0.6
			c0.2,0.1,0.3,0.2,0.6,0.4c0.2,0.1,0.5,0.2,0.8,0.3c0.3,0.1,0.5,0.1,0.8,0.1c0.6,0,1-0.2,1.4-0.6s0.4-0.8,0.4-1.4
			c0-0.4-0.2-0.8-0.5-1.1c-0.3-0.3-0.8-0.6-1.5-0.9c-0.4-0.2-0.8-0.4-1.1-0.6c-0.3-0.2-0.6-0.4-0.8-0.7c-0.3-0.3-0.5-0.6-0.6-0.9
			c-0.2-0.4-0.2-0.8-0.2-1.3s0.1-0.9,0.3-1.3c0.2-0.4,0.5-0.8,0.8-1.1c0.4-0.3,0.8-0.5,1.2-0.7c0.5-0.2,0.9-0.3,1.4-0.3
			c0.4,0,0.7,0.1,1,0.2s0.7,0.3,1.1,0.5v2c-0.2-0.2-0.4-0.3-0.5-0.3s-0.2-0.1-0.4-0.2c-0.2-0.1-0.3-0.2-0.6-0.2
			c-0.2-0.1-0.4-0.1-0.7-0.1c-0.5,0-1,0.2-1.3,0.5c-0.3,0.3-0.5,0.7-0.5,1.2c0,0.4,0.2,0.7,0.5,1s0.8,0.5,1.4,0.8
			c0.4,0.2,0.8,0.4,1.1,0.6s0.6,0.4,0.8,0.6c0.2,0.2,0.5,0.6,0.7,1c0.2,0.4,0.3,0.9,0.3,1.4s-0.1,1-0.3,1.4
			c-0.2,0.4-0.5,0.8-0.9,1.2c-0.4,0.3-0.8,0.6-1.3,0.8C59,375.7,58.5,375.8,58,375.8z"/>
		<path id="XMLID_411_" class="st1" d="M63.5,363.3h8.1v2h-3.1v10.5h-1.9v-10.6h-3.1V363.3z"/>
		<path id="XMLID_408_" class="st1" d="M84.8,369.5c0,0.9-0.2,1.7-0.5,2.4c-0.3,0.8-0.8,1.4-1.4,2c-0.6,0.6-1.3,1-2,1.3
			c-0.8,0.3-1.6,0.5-2.5,0.5s-1.7-0.2-2.5-0.5s-1.4-0.8-2-1.3c-0.6-0.6-1-1.2-1.4-2c-0.3-0.8-0.5-1.6-0.5-2.4c0-0.9,0.2-1.7,0.5-2.5
			c0.3-0.8,0.8-1.4,1.4-2s1.3-1,2-1.3s1.6-0.5,2.5-0.5s1.7,0.2,2.5,0.5s1.4,0.8,2,1.3c0.6,0.6,1,1.2,1.4,2
			C84.7,367.8,84.8,368.7,84.8,369.5z M74.1,369.5c0,0.6,0.1,1.2,0.3,1.7s0.5,1,0.9,1.4s0.9,0.7,1.4,0.9c0.5,0.2,1.1,0.3,1.7,0.3
			s1.2-0.1,1.7-0.3c0.5-0.2,1-0.5,1.4-0.9s0.7-0.9,0.9-1.4s0.3-1.1,0.3-1.7s-0.1-1.2-0.3-1.7s-0.5-1-0.9-1.4
			c-0.4-0.4-0.8-0.7-1.4-0.9c-0.6-0.2-1.1-0.3-1.7-0.3s-1.2,0.1-1.7,0.3c-0.5,0.2-1,0.5-1.4,0.9c-0.4,0.4-0.7,0.9-0.9,1.4
			S74.1,368.9,74.1,369.5z"/>
		<path id="XMLID_406_" class="st1" d="M89.6,375.8c-0.5,0-1-0.1-1.4-0.2s-0.9-0.4-1.3-0.7v-2.3c0.3,0.3,0.5,0.5,0.7,0.6
			c0.2,0.1,0.3,0.2,0.6,0.4c0.2,0.1,0.5,0.2,0.8,0.3c0.3,0.1,0.5,0.1,0.8,0.1c0.6,0,1-0.2,1.4-0.6s0.5-0.8,0.5-1.4
			c0-0.4-0.2-0.8-0.5-1.1c-0.3-0.3-0.8-0.6-1.5-0.9c-0.4-0.2-0.8-0.4-1.1-0.6c-0.3-0.2-0.6-0.4-0.8-0.7c-0.3-0.3-0.5-0.6-0.6-0.9
			c-0.2-0.4-0.2-0.8-0.2-1.3s0.1-0.9,0.3-1.3s0.5-0.8,0.8-1.1c0.4-0.3,0.8-0.5,1.2-0.7c0.5-0.2,0.9-0.3,1.4-0.3c0.4,0,0.7,0.1,1,0.2
			c0.3,0.1,0.7,0.3,1.1,0.5v2c-0.2-0.2-0.4-0.3-0.5-0.3s-0.2-0.1-0.4-0.2c-0.2-0.1-0.3-0.2-0.6-0.2c-0.2-0.1-0.4-0.1-0.7-0.1
			c-0.5,0-1,0.2-1.3,0.5s-0.5,0.7-0.5,1.2c0,0.4,0.2,0.7,0.5,1c0.3,0.2,0.8,0.5,1.4,0.8c0.4,0.2,0.8,0.4,1.1,0.6
			c0.3,0.2,0.6,0.4,0.8,0.6c0.3,0.3,0.5,0.6,0.7,1c0.2,0.4,0.3,0.9,0.3,1.4s-0.1,1-0.3,1.4c-0.2,0.5-0.5,0.8-0.9,1.2
			c-0.4,0.3-0.8,0.6-1.3,0.8S90.1,375.8,89.6,375.8z"/>
	</g>
</g>
<polyline id="XMLID_144_" class="st2" points="154.9,356.4 165.8,370.5 190.9,348.2 "/>
<g id="XMLID_131_">
	<g id="XMLID_133_">
		<g id="XMLID_192_">
			<path id="XMLID_193_" class="st1" d="M-3.4,354c0.8,0.3,1.5,0.6,2,0.8c0.8,0.4,1.7,0.9,2.5,1.4c0.8,0.6,1.5,1.3,1.9,2.2
				c0.5,0.9,0.7,1.9,0.8,3.1c0,1.1-0.3,2.1-0.9,3.1s-1.5,1.9-2.5,2.7c-1.1,0.8-2.4,1.4-3.8,1.8v9.3h-4.8v-8.6
				c-1.5,0-2.8-0.2-3.9-0.5c-1.3-0.2-2.6-0.7-3.9-1.5v-4.9c0.7,0.6,1.3,1,1.8,1.3c0.5,0.3,1.1,0.5,1.7,0.8c0.8,0.3,1.5,0.6,2.4,0.8
				c0.6,0.2,1.3,0.3,1.9,0.3v-9.6c-1.1-0.4-2-0.8-2.7-1.2c-0.9-0.4-1.7-0.9-2.5-1.5c-0.8-0.6-1.4-1.3-1.9-2.1
				c-0.5-0.8-0.7-1.7-0.7-2.8c0.1-1,0.4-2,1-2.9c0.6-0.9,1.4-1.7,2.5-2.4c1-0.7,2.2-1.2,3.6-1.6c0.2-0.1,0.4-0.1,0.6-0.2v-2.4h4.9
				v2.2c0.6,0.1,1.3,0.2,1.8,0.3c0.9,0.2,1.9,0.6,3,1.1v4.1c-0.6-0.3-1-0.5-1.3-0.6c-0.3-0.1-0.6-0.2-1.1-0.4s-1-0.4-1.7-0.5
				c-0.3,0-0.5-0.1-0.8-0.1L-3.4,354L-3.4,354z M-8.2,346.2c-0.2,0.1-0.3,0.2-0.5,0.3c-1.1,0.8-1.7,1.7-1.7,2.8c0,1,0.5,1.8,1.4,2.4
				c0.2,0.1,0.5,0.3,0.8,0.5C-8.2,352.2-8.2,346.2-8.2,346.2z M-3.4,364.6c1-0.9,1.6-2,1.6-3.2c0-1-0.5-1.9-1.4-2.6l-0.1-0.1v5.9
				H-3.4z"/>
		</g>
	</g>
	<polygon id="XMLID_132_" class="st1" points="-12.4,376.2 -6.8,383.6 0,376.2 	"/>
</g>
<g id="XMLID_116_">
	<path id="XMLID_123_" class="st1" d="M378.6,347.9c5.5,0,10.2,1.6,14.5,4c4.4,2.5,8.4,5.7,11.8,9.5c1,1.1,1,2.1,0,3.1
		c-4.2,4.6-9,8.4-14.7,11c-7.8,3.6-15.6,3.4-23.3-0.4c-5.3-2.6-10-6.2-13.9-10.6c-1-1.1-1-2.1,0-3.2c5.3-5.7,11.4-10.2,19-12.5
		C374.2,348.2,376.6,347.9,378.6,347.9z M379.3,352.7c-5.3-0.4-10.3,4.1-10.7,9.5c-0.4,5.9,3.8,10.7,9.8,11.1
		c5.3,0.4,10.3-4.1,10.7-9.5C389.5,357.9,385.3,353.1,379.3,352.7z"/>
	<path id="XMLID_120_" class="st3" d="M379.3,352.7c6,0.4,10.2,5.2,9.8,11.1c-0.3,5.4-5.3,9.8-10.7,9.5c-6-0.4-10.2-5.2-9.8-11.1
		C369,356.8,374,352.3,379.3,352.7z M378.9,366.3c1.9,0,3.4-1.5,3.4-3.4c0-1.8-1.5-3.3-3.4-3.4c-1.9,0-3.4,1.5-3.5,3.3
		C375.5,364.8,377,366.3,378.9,366.3z"/>
	<path id="XMLID_117_" class="st1" d="M378.9,366.3c-1.9,0-3.4-1.5-3.4-3.4c0-1.9,1.5-3.3,3.5-3.3c1.8,0,3.4,1.5,3.4,3.4
		C382.3,364.8,380.8,366.3,378.9,366.3z"/>
</g>
<g id="XMLID_111_">
	<g id="XMLID_145_">
		<g id="XMLID_565_">
			<path id="XMLID_604_" class="st1" d="M32.5,429.4v3.4h-1.9v-12.3h1.9h0.3c1.2,0,2.2,0.4,3,1.3s1.2,1.9,1.2,3.2
				c0,1.2-0.4,2.3-1.2,3.2s-1.8,1.3-3,1.3C32.7,429.4,32.6,429.4,32.5,429.4z M32.5,422.3v5.3c0.1,0,0.2,0,0.3,0
				c0.7,0,1.3-0.3,1.8-0.8s0.7-1.1,0.7-1.9c0-0.8-0.2-1.4-0.7-1.9s-1.1-0.8-1.8-0.8L32.5,422.3L32.5,422.3z"/>
			<path id="XMLID_602_" class="st1" d="M44.8,429.1v-8.7h1.9v8.7c0,1-0.4,1.9-1.1,2.7c-0.7,0.7-1.6,1.1-2.7,1.1
				c-1,0-1.9-0.4-2.7-1.1c-0.7-0.7-1.1-1.6-1.1-2.7v-8.7H41v8.7c0,0.5,0.2,1,0.6,1.3c0.4,0.4,0.8,0.6,1.3,0.6s1-0.2,1.3-0.6
				C44.6,430.1,44.8,429.6,44.8,429.1z"/>
			<path id="XMLID_598_" class="st1" d="M48.7,432.9v-12.4h2.9c0.8,0,1.5,0.3,2,0.8c0.6,0.6,0.8,1.2,0.8,2c0,0.8-0.3,1.4-0.8,2
				c0.6,0.2,1.1,0.5,1.6,1c0.8,0.8,1.1,1.7,1.1,2.7s-0.4,2-1.1,2.7c-0.8,0.8-1.7,1.1-2.7,1.1h-3.8V432.9z M50.6,424.5h1
				c0.3,0,0.5-0.1,0.7-0.3s0.3-0.5,0.3-0.8c0-0.3-0.1-0.5-0.3-0.7c-0.2-0.2-0.4-0.3-0.7-0.3h-1V424.5z M50.6,426.8v2.8v1.4h1.9
				c0.5,0,1-0.2,1.4-0.6c0.4-0.4,0.6-0.9,0.6-1.5c0-0.6-0.2-1.1-0.6-1.5c-0.4-0.4-0.9-0.6-1.4-0.6C52.5,426.8,50.6,426.8,50.6,426.8
				z"/>
			<path id="XMLID_596_" class="st1" d="M58.3,420.5h1.9V431h4.3v1.9h-6.2C58.3,432.9,58.3,420.5,58.3,420.5z"/>
			<path id="XMLID_594_" class="st1" d="M66.5,420.4h1.9v12.5h-1.9V420.4z"/>
			<path id="XMLID_592_" class="st1" d="M79.1,430.3v2.2c-0.7,0.3-1.5,0.4-2.3,0.4c-0.9,0-1.7-0.2-2.5-0.5c-0.8-0.3-1.4-0.8-2-1.3
				c-0.6-0.6-1-1.2-1.4-2c-0.3-0.8-0.5-1.6-0.5-2.4c0-0.9,0.2-1.7,0.5-2.4s0.8-1.4,1.4-2c0.6-0.6,1.3-1,2-1.3
				c0.7-0.3,1.6-0.5,2.5-0.5c0.8,0,1.6,0.1,2.3,0.4v2.2c-0.2-0.1-0.4-0.2-0.7-0.3c-0.5-0.2-1.1-0.3-1.7-0.3s-1.2,0.1-1.7,0.3
				s-1,0.5-1.4,0.9s-0.7,0.8-0.9,1.4c-0.2,0.5-0.3,1.1-0.3,1.7s0.1,1.2,0.3,1.7c0.2,0.5,0.5,1,0.9,1.4s0.9,0.7,1.4,0.9
				s1.1,0.3,1.7,0.3s1.2-0.1,1.7-0.3C78.7,430.5,78.9,430.4,79.1,430.3z"/>
			<path id="XMLID_589_" class="st1" d="M93,426.6c0,0.9-0.2,1.7-0.5,2.4c-0.3,0.8-0.8,1.4-1.4,2c-0.6,0.6-1.3,1-2,1.3
				c-0.7,0.3-1.6,0.5-2.5,0.5s-1.7-0.2-2.5-0.5c-0.8-0.3-1.4-0.8-2-1.3c-0.6-0.6-1-1.2-1.4-2c-0.3-0.8-0.5-1.6-0.5-2.4
				c0-0.9,0.2-1.7,0.5-2.4s0.8-1.4,1.4-2c0.6-0.6,1.3-1,2-1.3c0.7-0.3,1.6-0.5,2.5-0.5s1.7,0.2,2.5,0.5c0.8,0.3,1.4,0.8,2,1.3
				c0.6,0.6,1,1.2,1.4,2C92.9,425,93,425.8,93,426.6z M82.3,426.6c0,0.6,0.1,1.2,0.3,1.7c0.2,0.5,0.5,1,0.9,1.4
				c0.4,0.4,0.9,0.7,1.4,0.9c0.5,0.2,1.1,0.3,1.7,0.3s1.2-0.1,1.7-0.3c0.5-0.2,1-0.5,1.4-0.9c0.4-0.4,0.7-0.8,0.9-1.4
				c0.2-0.6,0.3-1.1,0.3-1.7s-0.1-1.2-0.3-1.7s-0.5-1-0.9-1.4c-0.4-0.4-0.8-0.7-1.4-0.9s-1.1-0.3-1.7-0.3s-1.2,0.1-1.7,0.3
				s-1,0.5-1.4,0.9c-0.4,0.4-0.7,0.8-0.9,1.4C82.4,425.5,82.3,426,82.3,426.6z"/>
			<path id="XMLID_587_" class="st1" d="M33.4,453.6c-0.5,0-1-0.1-1.4-0.2c-0.4-0.1-0.9-0.4-1.3-0.7v-2.3c0.3,0.3,0.5,0.5,0.7,0.6
				c0.2,0.1,0.3,0.2,0.6,0.3c0.2,0.1,0.5,0.2,0.8,0.3s0.5,0.1,0.8,0.1c0.6,0,1-0.2,1.4-0.6s0.5-0.8,0.5-1.4c0-0.4-0.2-0.8-0.5-1.1
				c-0.3-0.3-0.8-0.6-1.5-0.9c-0.4-0.2-0.8-0.4-1.1-0.6c-0.3-0.2-0.6-0.4-0.8-0.6c-0.3-0.3-0.5-0.6-0.6-0.9
				c-0.2-0.4-0.2-0.8-0.2-1.3s0.1-0.9,0.3-1.3c0.2-0.4,0.5-0.8,0.8-1.1c0.4-0.3,0.8-0.5,1.2-0.7c0.5-0.2,0.9-0.3,1.4-0.3
				c0.4,0,0.7,0.1,1,0.2s0.7,0.3,1.1,0.5v1.9c-0.2-0.2-0.4-0.3-0.5-0.3s-0.2-0.1-0.4-0.2c-0.2-0.1-0.3-0.2-0.6-0.2
				c-0.2-0.1-0.4-0.1-0.7-0.1c-0.5,0-1,0.2-1.3,0.5c-0.4,0.3-0.5,0.7-0.5,1.1s0.2,0.7,0.5,1c0.3,0.2,0.8,0.5,1.4,0.8
				c0.4,0.2,0.8,0.4,1.1,0.6s0.6,0.4,0.8,0.6c0.3,0.3,0.5,0.6,0.7,1s0.3,0.9,0.3,1.4s-0.1,1-0.3,1.4s-0.5,0.8-0.9,1.2
				c-0.4,0.3-0.8,0.6-1.3,0.8C34.4,453.5,33.9,453.6,33.4,453.6z"/>
			<path id="XMLID_585_" class="st1" d="M39.4,441.2h5.7v1.9h-3.8v4.6h3.8v1.9h-3.8v2.2h3.8v1.9h-5.7V441.2z"/>
			<path id="XMLID_583_" class="st1" d="M54.2,451.6v-2.1h-1.3v-1.9h2.9v5.5c-0.7,0.3-1.5,0.4-2.3,0.4c-0.9,0-1.7-0.2-2.5-0.5
				c-0.8-0.3-1.4-0.8-2-1.3c-0.6-0.6-1-1.2-1.4-2c-0.3-0.8-0.5-1.6-0.5-2.4c0-0.9,0.2-1.7,0.5-2.4c0.3-0.7,0.8-1.4,1.4-2
				s1.3-1,2-1.3c0.8-0.3,1.6-0.5,2.5-0.5c0.8,0,1.6,0.1,2.3,0.4v2.2c-0.2-0.1-0.4-0.2-0.7-0.3c-0.5-0.2-1.1-0.3-1.7-0.3
				s-1.2,0.1-1.7,0.3c-0.5,0.2-1,0.5-1.4,0.9c-0.4,0.4-0.7,0.8-0.9,1.4c-0.2,0.5-0.3,1.1-0.3,1.7s0.1,1.2,0.3,1.7
				c0.2,0.5,0.5,1,0.9,1.4c0.4,0.4,0.9,0.7,1.4,0.9c0.5,0.2,1.1,0.3,1.7,0.3C53.7,451.6,54,451.6,54.2,451.6z"/>
			<path id="XMLID_581_" class="st1" d="M62.5,447.8l2.8-4.3l1.9-2.9v13h-1.9V447l-2.8,4.3l-2.8-4.3v6.6h-1.9v-13l1.9,2.9
				L62.5,447.8z"/>
			<path id="XMLID_579_" class="st1" d="M69.2,441.2H75v1.9h-3.8v4.6H75v1.9h-3.8v2.2H75v1.9h-5.7v-12.5H69.2z"/>
			<path id="XMLID_577_" class="st1" d="M82.7,448.4v-7.3h1.9v13l-5.7-7.8v7.2H77v-13L82.7,448.4z"/>
			<path id="XMLID_575_" class="st1" d="M86.6,441.1h8.1v2h-3.1v10.4h-1.9v-10.4h-3.1V441.1z"/>
			<path id="XMLID_572_" class="st1" d="M96.6,451.9l-0.7,1.7h-2l5-13l5,13h-2l-0.7-1.7H96.6z M97.3,450h3.2l-1.6-4.1L97.3,450z"/>
			<path id="XMLID_569_" class="st1" d="M105.9,453.6v-12.4h2.3c1.7,0,3.2,0.6,4.4,1.8c1.2,1.2,1.8,2.7,1.8,4.4
				c0,1.7-0.6,3.2-1.8,4.4c-1.2,1.2-2.7,1.8-4.4,1.8C108.2,453.6,105.9,453.6,105.9,453.6z M107.8,443v8.6h0.4
				c1.2,0,2.2-0.4,3.1-1.3c0.8-0.8,1.3-1.9,1.3-3c0-1.2-0.4-2.2-1.3-3.1c-0.8-0.8-1.9-1.3-3.1-1.3h-0.4V443z"/>
			<path id="XMLID_566_" class="st1" d="M129.1,447.3c0,0.9-0.2,1.7-0.5,2.4c-0.3,0.8-0.8,1.4-1.4,2c-0.6,0.6-1.3,1-2,1.3
				c-0.7,0.3-1.6,0.5-2.5,0.5s-1.7-0.2-2.5-0.5c-0.8-0.3-1.4-0.8-2-1.3c-0.6-0.6-1-1.2-1.4-2c-0.3-0.8-0.5-1.6-0.5-2.4
				c0-0.9,0.2-1.7,0.5-2.4c0.3-0.7,0.8-1.4,1.4-2c0.6-0.6,1.3-1,2-1.3c0.7-0.3,1.6-0.5,2.5-0.5s1.7,0.2,2.5,0.5
				c0.8,0.3,1.4,0.8,2,1.3c0.6,0.6,1,1.2,1.4,2C128.9,445.7,129.1,446.5,129.1,447.3z M118.4,447.3c0,0.6,0.1,1.2,0.3,1.7
				s0.5,1,0.9,1.4s0.9,0.7,1.4,0.9c0.5,0.2,1.1,0.3,1.7,0.3c0.6,0,1.2-0.1,1.7-0.3c0.5-0.2,1-0.5,1.4-0.9s0.7-0.8,0.9-1.4
				s0.3-1.1,0.3-1.7c0-0.6-0.1-1.2-0.3-1.7s-0.5-1-0.9-1.4c-0.4-0.4-0.8-0.7-1.4-0.9c-0.6-0.2-1.1-0.3-1.7-0.3
				c-0.6,0-1.2,0.1-1.7,0.3c-0.5,0.2-1,0.5-1.4,0.9c-0.4,0.4-0.7,0.8-0.9,1.4S118.4,446.7,118.4,447.3z"/>
		</g>
	</g>
	<line id="XMLID_112_" class="st4" x1="42.6" y1="419.9" x2="46.6" y2="416.6"/>
</g>
<g id="XMLID_101_">
	<path id="XMLID_106_" class="st3" d="M171.9,447.5c1,0,1.9,0,2.7,0c0.2,0,0.4-0.2,0.5-0.4c0.3-0.7,0.6-1.4,0.7-2.2
		c0.3-1.3,0.5-2.7,1.4-3.8c1.2-1.5,2.2-3.1,2.9-4.8c1.3-3.2,2-6.4,1.4-9.9c-1.2-7.2-8.4-11.7-15.4-9.8c-6.2,1.7-10.1,7.6-9.2,14.5
		c0.5,3.6,1.9,6.7,4.1,9.5c0.9,1.2,1.4,2.5,1.7,3.9c0.2,0.8,0.4,1.7,0.7,2.5c0.1,0.2,0.3,0.4,0.4,0.4c0.9,0,1.9,0,2.9,0
		c0-0.1,0-0.2,0-0.3c-0.9-4-1.7-8-2.6-12.1c-0.1-0.4-0.1-0.8,0.3-1.1c0.4-0.3,0.8-0.2,1.1,0.1c0.7,0.5,1.4,0.9,2.1,1.4
		c0.3-0.8,0.7-1.6,1-2.3c0.2-0.4,0.4-0.7,0.8-0.7c0.5,0,0.7,0.3,0.8,0.7c0.3,0.8,0.6,1.5,0.9,2.3c0.7-0.5,1.4-1,2.1-1.5
		c0.3-0.2,0.7-0.3,1,0c0.2,0.2,0.2,0.6,0.3,0.9c0,0.1,0,0.2,0,0.3c-0.5,2.5-1.1,5-1.6,7.6C172.6,444.3,172.2,445.8,171.9,447.5z
		 M172.5,436.6c-0.4,0.3-0.8,0.6-1.1,0.8c-0.7,0.5-1.2,0.3-1.5-0.5c-0.2-0.4-0.3-0.8-0.5-1.3c-0.1,0.3-0.2,0.5-0.3,0.7
		c-0.1,0.2-0.2,0.5-0.3,0.7c-0.3,0.7-0.8,0.8-1.4,0.4c-0.4-0.3-0.8-0.5-1.3-0.9c0.8,3.7,1.6,7.3,2.3,10.8c0.6,0,1.2,0,1.8,0
		C171,443.9,171.7,440.3,172.5,436.6z M174.6,451.4c-3.6,0-7,0-10.6,0c0.2,0.3,0.3,0.6,0.5,0.8c0.8,1.2,2,1.7,3.3,2
		c0.3,0.1,0.4,0.1,0.5,0.4c0.3,0.7,1.1,1,1.7,0.5c0.3-0.2,0.4-0.5,0.7-0.9C172.3,454,173.8,453.3,174.6,451.4z M163.8,450.2
		c3.7,0,7.3,0,11,0c0-0.6,0-1.1,0-1.6c-3.7,0-7.3,0-11,0C163.8,449.2,163.8,449.7,163.8,450.2z"/>
	<path id="XMLID_105_" class="st1" d="M171.9,447.5c0.3-1.6,0.7-3.2,1-4.7c0.5-2.5,1.1-5,1.6-7.6c0-0.1,0.1-0.2,0-0.3
		c-0.1-0.3-0.1-0.7-0.3-0.9c-0.3-0.3-0.6-0.2-1,0c-0.7,0.5-1.4,1-2.1,1.5c-0.3-0.8-0.6-1.5-0.9-2.3c-0.2-0.4-0.4-0.7-0.8-0.7
		c-0.4,0-0.7,0.3-0.8,0.7c-0.3,0.8-0.6,1.5-1,2.3c-0.7-0.5-1.4-1-2.1-1.4c-0.4-0.3-0.7-0.4-1.1-0.1c-0.4,0.3-0.4,0.6-0.3,1.1
		c0.9,4,1.7,8,2.6,12.1c0,0.1,0,0.1,0,0.3c-1,0-1.9,0-2.9,0c-0.2,0-0.4-0.2-0.4-0.4c-0.3-0.8-0.5-1.6-0.7-2.5
		c-0.3-1.4-0.8-2.7-1.7-3.9c-2.2-2.8-3.6-6-4.1-9.5c-0.9-6.9,3-12.8,9.2-14.5c7-1.9,14.2,2.7,15.4,9.8c0.6,3.4-0.1,6.7-1.4,9.9
		c-0.7,1.7-1.7,3.3-2.9,4.8c-0.9,1.1-1.1,2.5-1.4,3.8c-0.2,0.7-0.5,1.5-0.7,2.2c-0.1,0.2-0.3,0.4-0.5,0.4
		C173.8,447.5,172.9,447.5,171.9,447.5z"/>
	<path id="XMLID_104_" class="st1" d="M172.5,436.6c-0.8,3.7-1.6,7.2-2.3,10.8c-0.6,0-1.1,0-1.8,0c-0.8-3.6-1.5-7.1-2.3-10.8
		c0.5,0.3,0.9,0.6,1.3,0.9c0.6,0.4,1.1,0.3,1.4-0.4c0.1-0.2,0.2-0.5,0.3-0.7c0.1-0.2,0.2-0.4,0.3-0.7c0.2,0.5,0.3,0.9,0.5,1.3
		c0.3,0.8,0.8,0.9,1.5,0.5C171.7,437.2,172.1,436.9,172.5,436.6z"/>
	<path id="XMLID_103_" class="st1" d="M174.6,451.4c-0.8,1.9-2.3,2.6-4,2.9c-0.3,0.3-0.4,0.7-0.7,0.9c-0.6,0.5-1.4,0.2-1.7-0.5
		c-0.1-0.3-0.2-0.3-0.5-0.4c-1.3-0.3-2.5-0.8-3.3-2c-0.2-0.2-0.3-0.5-0.5-0.8C167.6,451.4,171.1,451.4,174.6,451.4z"/>
	<path id="XMLID_102_" class="st1" d="M163.8,450.2c0-0.6,0-1.1,0-1.6c3.7,0,7.3,0,11,0c0,0.5,0,1,0,1.6
		C171.2,450.2,167.5,450.2,163.8,450.2z"/>
</g>
<g id="XMLID_93_">
	<circle id="XMLID_100_" class="st1" cx="384.3" cy="438.7" r="20.3"/>
	<polyline id="XMLID_99_" class="st5" points="383.4,423.6 383.4,439.6 394.9,445.3 	"/>
	<circle id="XMLID_98_" class="st6" cx="383.4" cy="453.8" r="1.5"/>
	<circle id="XMLID_97_" class="st6" cx="398.3" cy="438.7" r="1.5"/>
	<circle id="XMLID_96_" class="st6" cx="369.1" cy="438.7" r="1.5"/>
</g>
<g id="XMLID_88_">
	<g id="XMLID_156_">
		<g id="XMLID_893_">
			<path id="XMLID_925_" class="st1" d="M417.5,423.2h1.9v10.5h3.9v1.9h-5.8V423.2z"/>
			<path id="XMLID_922_" class="st1" d="M428,433.9l-0.7,1.7h-2l5-13l5,13h-2l-0.7-1.7H428z M428.7,432h3.2l-1.6-4.1L428.7,432z"/>
			<path id="XMLID_919_" class="st1" d="M442.3,431.9l1.8,3.7h-2l-1.3-2.9c-0.4,0.1-0.9,0.2-1.4,0.2h-0.1v2.7h-1.9v-12.5h2
				c1.4,0,2.5,0.5,3.5,1.4c1,1,1.4,2.1,1.4,3.5c0,1.4-0.5,2.5-1.4,3.5C442.6,431.6,442.5,431.8,442.3,431.9z M439.2,431.1h0.1
				c0.8,0,1.6-0.3,2.2-0.9c0.6-0.6,0.9-1.3,0.9-2.2s-0.3-1.6-0.9-2.2s-1.3-0.9-2.2-0.9h-0.1V431.1z"/>
			<path id="XMLID_917_" class="st1" d="M453.3,433.6v-2.1H452v-1.9h2.9v5.5c-0.7,0.3-1.5,0.4-2.3,0.4c-0.9,0-1.7-0.2-2.5-0.5
				c-0.8-0.3-1.4-0.8-2-1.3c-0.6-0.6-1-1.2-1.4-2c-0.3-0.8-0.5-1.6-0.5-2.4c0-0.9,0.2-1.7,0.5-2.4c0.3-0.7,0.8-1.4,1.4-2
				s1.3-1,2-1.3c0.7-0.3,1.6-0.5,2.5-0.5c0.8,0,1.6,0.1,2.3,0.4v2.2c-0.2-0.1-0.4-0.2-0.7-0.3c-0.5-0.2-1.1-0.3-1.7-0.3
				s-1.2,0.1-1.7,0.3s-1,0.5-1.4,0.9c-0.4,0.4-0.7,0.8-0.9,1.4c-0.2,0.5-0.3,1.1-0.3,1.7s0.1,1.2,0.3,1.7c0.2,0.5,0.5,1,0.9,1.4
				c0.4,0.4,0.9,0.7,1.4,0.9c0.5,0.2,1.1,0.3,1.7,0.3C452.9,433.7,453.1,433.6,453.3,433.6z"/>
			<path id="XMLID_914_" class="st1" d="M459.7,433.9l-0.7,1.7h-2l5-13l5,13h-2l-0.7-1.7H459.7z M460.4,432h3.2l-1.6-4.1L460.4,432z
				"/>
			<path id="XMLID_911_" class="st1" d="M474.9,435.6v-12.4h2.3c1.7,0,3.2,0.6,4.4,1.8c1.2,1.2,1.8,2.7,1.8,4.4
				c0,1.7-0.6,3.2-1.8,4.4c-1.2,1.2-2.7,1.8-4.4,1.8C477.2,435.6,474.9,435.6,474.9,435.6z M476.8,425.1v8.6h0.4
				c1.2,0,2.2-0.4,3.1-1.3c0.8-0.8,1.3-1.9,1.3-3c0-1.2-0.4-2.2-1.3-3.1c-0.8-0.8-1.9-1.3-3.1-1.3h-0.4V425.1z"/>
			<path id="XMLID_909_" class="st1" d="M491,431.8v-8.7h1.9v8.7c0,1-0.4,1.9-1.1,2.7c-0.7,0.7-1.6,1.1-2.7,1.1s-1.9-0.4-2.7-1.1
				c-0.7-0.7-1.1-1.6-1.1-2.7v-8.7h1.9v8.7c0,0.5,0.2,1,0.6,1.3c0.4,0.4,0.8,0.6,1.3,0.6s1-0.2,1.3-0.6
				C490.9,432.8,491,432.3,491,431.8z"/>
			<path id="XMLID_906_" class="st1" d="M500,431.9l1.8,3.7h-2l-1.3-2.9c-0.4,0.1-0.9,0.2-1.4,0.2H497v2.7h-1.9v-12.5h2
				c1.4,0,2.5,0.5,3.5,1.4c1,1,1.4,2.1,1.4,3.5c0,1.4-0.5,2.5-1.4,3.5C500.3,431.6,500.2,431.8,500,431.9z M496.8,431.1L496.8,431.1
				c0.9,0,1.7-0.3,2.3-0.9c0.6-0.6,0.9-1.3,0.9-2.2s-0.3-1.6-0.9-2.2s-1.3-0.9-2.2-0.9h-0.1V431.1z"/>
			<path id="XMLID_903_" class="st1" d="M506.6,433.9l-0.7,1.7h-2l5-13l5,13h-2l-0.7-1.7H506.6z M507.3,432h3.2l-1.6-4.1L507.3,432z
				"/>
			<path id="XMLID_901_" class="st1" d="M523,433v2.2c-0.7,0.3-1.5,0.4-2.3,0.4c-0.9,0-1.7-0.2-2.5-0.5s-1.4-0.8-2-1.3
				c-0.6-0.6-1-1.2-1.4-2c-0.3-0.8-0.5-1.6-0.5-2.4c0-0.9,0.2-1.7,0.5-2.4s0.8-1.4,1.4-2c0.6-0.6,1.3-1,2-1.3
				c0.8-0.3,1.6-0.5,2.5-0.5c0.8,0,1.6,0.1,2.3,0.4v2.2c-0.2-0.1-0.4-0.2-0.7-0.3c-0.5-0.2-1.1-0.3-1.7-0.3c-0.6,0-1.2,0.1-1.7,0.3
				c-0.5,0.2-1,0.5-1.4,0.9s-0.7,0.8-0.9,1.4c-0.2,0.6-0.3,1.1-0.3,1.7c0,0.6,0.1,1.2,0.3,1.7s0.5,1,0.9,1.4
				c0.4,0.4,0.9,0.7,1.4,0.9c0.5,0.2,1.1,0.3,1.7,0.3c0.6,0,1.2-0.1,1.7-0.3C522.6,433.2,522.8,433.1,523,433z"/>
			<path id="XMLID_899_" class="st1" d="M525,423.1h1.9v12.5H525V423.1z"/>
			<path id="XMLID_896_" class="st1" d="M541.7,429.4c0,0.9-0.2,1.7-0.5,2.4c-0.3,0.8-0.8,1.4-1.4,2c-0.6,0.6-1.3,1-2,1.3
				c-0.8,0.3-1.6,0.5-2.5,0.5s-1.7-0.2-2.5-0.5c-0.8-0.3-1.4-0.8-2-1.3c-0.6-0.6-1-1.2-1.4-2c-0.3-0.8-0.5-1.6-0.5-2.4
				c0-0.9,0.2-1.7,0.5-2.4s0.8-1.4,1.4-2c0.6-0.6,1.3-1,2-1.3c0.7-0.3,1.6-0.5,2.5-0.5s1.7,0.2,2.5,0.5c0.8,0.3,1.4,0.8,2,1.3
				c0.6,0.6,1,1.2,1.4,2C541.5,427.7,541.7,428.5,541.7,429.4z M531,429.4c0,0.6,0.1,1.2,0.3,1.7s0.5,1,0.9,1.4
				c0.4,0.4,0.9,0.7,1.4,0.9c0.5,0.2,1.1,0.3,1.7,0.3c0.6,0,1.2-0.1,1.7-0.3c0.5-0.2,1-0.5,1.4-0.9c0.4-0.4,0.7-0.8,0.9-1.4
				s0.3-1.1,0.3-1.7c0-0.6-0.1-1.2-0.3-1.7s-0.5-1-0.9-1.4s-0.8-0.7-1.4-0.9c-0.6-0.2-1.1-0.3-1.7-0.3c-0.6,0-1.2,0.1-1.7,0.3
				c-0.5,0.2-1,0.5-1.4,0.9s-0.7,0.8-0.9,1.4S531,428.8,531,429.4z"/>
			<path id="XMLID_894_" class="st1" d="M549.5,430.4v-7.3h1.9v13l-5.7-7.8v7.2h-1.9v-12.9L549.5,430.4z"/>
		</g>
	</g>
	<line id="XMLID_89_" class="st4" x1="539.1" y1="420.8" x2="543.1" y2="417.5"/>
</g>
<g id="XMLID_90_">
	<g id="XMLID_1225_">
		<path id="XMLID_1280_" class="st0" d="M424.1,446.9c0,0.7-0.1,1.3-0.3,1.9c-0.2,0.5-0.5,1-0.9,1.3c-0.4,0.3-0.9,0.6-1.5,0.8
			c-0.6,0.2-1.2,0.3-1.9,0.3c-0.3,0-0.7,0-1.1,0s-0.8-0.1-1.1-0.2v-8.1c0.3-0.1,0.7-0.1,1.1-0.2c0.4,0,0.8,0,1.1,0
			c0.7,0,1.3,0.1,1.9,0.3s1.1,0.4,1.5,0.8c0.4,0.3,0.7,0.8,0.9,1.3C424,445.6,424.1,446.2,424.1,446.9z M419.6,450.1
			c1.1,0,1.9-0.3,2.5-0.8c0.5-0.6,0.8-1.4,0.8-2.4s-0.3-1.8-0.8-2.4s-1.4-0.8-2.5-0.8c-0.3,0-0.6,0-0.8,0s-0.3,0-0.4,0v6.4
			c0.1,0,0.2,0,0.4,0S419.3,450.1,419.6,450.1z"/>
		<path id="XMLID_1277_" class="st0" d="M425.3,448c0-0.6,0.1-1,0.2-1.4s0.4-0.8,0.6-1c0.3-0.3,0.6-0.5,0.9-0.6
			c0.3-0.1,0.7-0.2,1.1-0.2c0.8,0,1.5,0.3,1.9,0.8s0.7,1.3,0.7,2.4c0,0,0,0.1,0,0.2s0,0.1,0,0.2h-4.3c0,0.6,0.2,1.1,0.6,1.5
			c0.4,0.4,0.8,0.5,1.5,0.5c0.4,0,0.7,0,1-0.1s0.5-0.1,0.6-0.2l0.2,0.9c-0.1,0.1-0.4,0.1-0.7,0.2c-0.3,0.1-0.7,0.1-1.2,0.1
			s-1-0.1-1.4-0.2c-0.4-0.2-0.7-0.4-1-0.7c-0.3-0.3-0.4-0.6-0.6-1C425.4,448.9,425.3,448.4,425.3,448z M429.6,447.3
			c0-0.5-0.1-0.9-0.4-1.2s-0.6-0.5-1.1-0.5c-0.3,0-0.5,0.1-0.7,0.2c-0.2,0.1-0.4,0.2-0.5,0.4s-0.2,0.3-0.3,0.6
			c-0.1,0.2-0.1,0.4-0.2,0.6h3.2V447.3z"/>
		<path id="XMLID_1275_" class="st0" d="M433.8,450.3c0.5,0,0.8-0.1,1-0.2s0.3-0.3,0.3-0.6s-0.1-0.5-0.3-0.6
			c-0.2-0.1-0.6-0.3-1.1-0.5c-0.2-0.1-0.5-0.2-0.7-0.3s-0.4-0.2-0.6-0.4c-0.2-0.1-0.3-0.3-0.4-0.5c-0.1-0.2-0.1-0.4-0.1-0.7
			c0-0.6,0.2-1,0.6-1.3c0.4-0.3,1-0.5,1.7-0.5c0.2,0,0.4,0,0.5,0c0.2,0,0.3,0,0.5,0.1c0.2,0,0.3,0.1,0.4,0.1s0.2,0.1,0.3,0.1l-0.2,1
			c-0.1-0.1-0.3-0.1-0.6-0.2c-0.3-0.1-0.6-0.1-0.9-0.1s-0.6,0.1-0.8,0.2c-0.2,0.1-0.3,0.3-0.3,0.6c0,0.1,0,0.3,0.1,0.4
			s0.1,0.2,0.2,0.3s0.2,0.2,0.4,0.2c0.2,0.1,0.4,0.1,0.6,0.2c0.3,0.1,0.6,0.2,0.8,0.3c0.2,0.1,0.4,0.2,0.6,0.4
			c0.2,0.1,0.3,0.3,0.4,0.5c0.1,0.2,0.1,0.5,0.1,0.8c0,0.6-0.2,1-0.6,1.3c-0.4,0.3-1,0.4-1.8,0.4c-0.6,0-1,0-1.3-0.1
			s-0.5-0.2-0.6-0.2l0.2-1c0.1,0,0.3,0.1,0.6,0.2C432.9,450.2,433.3,450.3,433.8,450.3z"/>
		<path id="XMLID_1272_" class="st0" d="M439.6,444.7c0.4,0,0.8,0.1,1.1,0.2c0.3,0.1,0.6,0.3,0.7,0.5c0.2,0.2,0.3,0.5,0.4,0.8
			c0.1,0.3,0.1,0.6,0.1,1v3.9c-0.1,0-0.2,0-0.4,0.1c-0.2,0.1-0.4,0.1-0.6,0.1s-0.5,0-0.7,0.1c-0.3,0-0.5,0-0.8,0c-0.4,0-0.7,0-1-0.1
			c-0.3-0.1-0.6-0.2-0.8-0.3c-0.2-0.2-0.4-0.4-0.5-0.6c-0.1-0.3-0.2-0.6-0.2-0.9s0.1-0.6,0.2-0.9c0.1-0.3,0.3-0.4,0.6-0.6
			c0.2-0.2,0.5-0.3,0.8-0.3c0.3-0.1,0.7-0.1,1-0.1c0.1,0,0.2,0,0.3,0c0.1,0,0.2,0,0.3,0c0.1,0,0.2,0,0.3,0.1c0.1,0,0.1,0,0.2,0v-0.3
			c0-0.2,0-0.4-0.1-0.5s-0.1-0.3-0.2-0.5c-0.1-0.1-0.2-0.3-0.4-0.3c-0.2-0.1-0.4-0.1-0.7-0.1c-0.4,0-0.7,0-1,0.1
			c-0.3,0.1-0.5,0.1-0.6,0.2l-0.1-0.9c0.1-0.1,0.4-0.1,0.7-0.2C438.9,444.7,439.2,444.7,439.6,444.7z M439.7,450.3
			c0.3,0,0.5,0,0.7,0s0.4,0,0.5-0.1v-1.9c-0.1,0-0.2-0.1-0.4-0.1c-0.2,0-0.4,0-0.7,0c-0.2,0-0.3,0-0.5,0s-0.4,0.1-0.5,0.2
			c-0.2,0.1-0.3,0.2-0.4,0.3c-0.1,0.1-0.2,0.3-0.2,0.5c0,0.4,0.1,0.7,0.4,0.8C438.9,450.2,439.3,450.3,439.7,450.3z"/>
		<path id="XMLID_1270_" class="st0" d="M442.9,452.2c0.1,0,0.2,0.1,0.3,0.1c0.1,0,0.3,0.1,0.4,0.1c0.4,0,0.8-0.1,1-0.3
			c0.2-0.2,0.5-0.5,0.7-1c-0.5-1-1-2-1.4-3.1s-0.8-2.2-1.1-3.3h1.2c0.1,0.4,0.2,0.7,0.3,1.2s0.3,0.8,0.4,1.3
			c0.2,0.4,0.3,0.9,0.5,1.3s0.4,0.9,0.6,1.3c0.3-0.8,0.6-1.7,0.8-2.5c0.2-0.8,0.4-1.7,0.6-2.5h1.2c-0.3,1.2-0.6,2.3-1,3.4
			c-0.4,1.1-0.7,2.1-1.1,3c-0.2,0.4-0.3,0.7-0.5,0.9s-0.4,0.5-0.6,0.6c-0.2,0.1-0.4,0.3-0.7,0.4s-0.6,0.1-0.9,0.1
			c-0.1,0-0.2,0-0.3,0c-0.1,0-0.2,0-0.3,0c-0.1,0-0.2,0-0.3-0.1s-0.1,0-0.2-0.1L442.9,452.2z"/>
		<path id="XMLID_1268_" class="st0" d="M454.5,450.9c-0.3,0.1-0.6,0.1-1,0.2s-0.9,0.1-1.5,0.1c-0.5,0-0.9-0.1-1.2-0.2
			c-0.3-0.1-0.6-0.3-0.8-0.6c-0.2-0.3-0.3-0.6-0.4-0.9c-0.1-0.3-0.1-0.7-0.1-1.2v-3.5h1.1v3.3c0,0.8,0.1,1.3,0.4,1.6
			s0.6,0.5,1.2,0.5c0.1,0,0.2,0,0.4,0c0.1,0,0.2,0,0.4,0c0.1,0,0.2,0,0.3,0c0.1,0,0.2,0,0.2,0v-5.3h1.1v6H454.5z"/>
		<path id="XMLID_1266_" class="st0" d="M456.3,445c0.3-0.1,0.6-0.1,1-0.2s0.9-0.1,1.5-0.1c0.5,0,0.9,0.1,1.2,0.2
			c0.3,0.1,0.6,0.3,0.8,0.6c0.2,0.3,0.3,0.6,0.4,0.9c0.1,0.4,0.1,0.7,0.1,1.2v3.5h-1.1v-3.3c0-0.4,0-0.7-0.1-1
			c-0.1-0.3-0.1-0.5-0.3-0.7c-0.1-0.2-0.3-0.3-0.5-0.4c-0.2-0.1-0.4-0.1-0.7-0.1c-0.1,0-0.2,0-0.4,0s-0.3,0-0.4,0s-0.2,0-0.3,0
			c-0.1,0-0.2,0-0.2,0v5.3h-1.1V445H456.3z"/>
		<path id="XMLID_1263_" class="st0" d="M468.6,447.9c0,0.5-0.1,0.9-0.2,1.3s-0.3,0.7-0.6,1s-0.6,0.5-0.9,0.7
			c-0.3,0.2-0.8,0.2-1.2,0.2c-0.4,0-0.8-0.1-1.2-0.2c-0.4-0.2-0.7-0.4-0.9-0.7s-0.5-0.6-0.6-1s-0.2-0.8-0.2-1.3s0.1-0.9,0.2-1.3
			s0.3-0.8,0.6-1s0.6-0.5,0.9-0.7c0.4-0.2,0.8-0.2,1.2-0.2c0.4,0,0.8,0.1,1.2,0.2c0.4,0.1,0.7,0.4,0.9,0.7s0.5,0.6,0.6,1
			C468.6,447,468.6,447.5,468.6,447.9z M467.5,447.9c0-0.7-0.2-1.3-0.5-1.7s-0.7-0.6-1.3-0.6s-1,0.2-1.3,0.6s-0.5,1-0.5,1.7
			c0,0.7,0.2,1.3,0.5,1.7s0.7,0.6,1.3,0.6s1-0.2,1.3-0.6S467.5,448.6,467.5,447.9z"/>
		<path id="XMLID_1261_" class="st0" d="M471.3,449.7c0,0.1,0,0.1,0,0.2s0,0.1,0,0.2c0,0.5-0.1,1-0.2,1.5s-0.4,1-0.6,1.4l-0.9-0.3
			c0.2-0.4,0.3-0.8,0.4-1.2s0.1-0.8,0.1-1.2c0-0.1,0-0.2,0-0.3s0-0.2,0-0.3C470.1,449.7,471.3,449.7,471.3,449.7z"/>
		<path id="XMLID_1259_" class="st0" d="M475.7,445c0.3-0.1,0.6-0.1,1-0.2s0.9-0.1,1.5-0.1c0.4,0,0.7,0.1,1,0.2
			c0.3,0.1,0.5,0.3,0.7,0.5c0.1,0,0.1-0.1,0.3-0.2c0.1-0.1,0.3-0.1,0.4-0.2c0.2-0.1,0.4-0.1,0.6-0.2s0.4-0.1,0.7-0.1
			c0.5,0,0.9,0.1,1.2,0.2c0.3,0.1,0.5,0.3,0.7,0.6c0.2,0.3,0.3,0.6,0.3,0.9c0.1,0.4,0.1,0.7,0.1,1.2v3.5h-1.1v-3.3
			c0-0.4,0-0.7-0.1-0.9c0-0.3-0.1-0.5-0.2-0.7s-0.2-0.3-0.4-0.4c-0.2-0.1-0.4-0.1-0.7-0.1c-0.4,0-0.7,0-0.9,0.1
			c-0.2,0.1-0.4,0.2-0.5,0.3c0.1,0.2,0.1,0.4,0.1,0.7c0,0.3,0,0.5,0,0.8v3.5h-1.1v-3.3c0-0.4,0-0.7-0.1-0.9
			c-0.1-0.2-0.1-0.5-0.2-0.7s-0.2-0.3-0.4-0.4s-0.4-0.1-0.7-0.1c-0.1,0-0.2,0-0.4,0s-0.3,0-0.4,0s-0.2,0-0.3,0c-0.1,0-0.2,0-0.2,0
			v5.3h-1.1v-6H475.7z"/>
		<path id="XMLID_1256_" class="st0" d="M485.6,448c0-0.6,0.1-1,0.2-1.4s0.4-0.8,0.6-1c0.3-0.3,0.6-0.5,0.9-0.6
			c0.3-0.1,0.7-0.2,1.1-0.2c0.8,0,1.5,0.3,1.9,0.8s0.7,1.3,0.7,2.4c0,0,0,0.1,0,0.2s0,0.1,0,0.2h-4.3c0,0.6,0.2,1.1,0.6,1.5
			c0.4,0.4,0.8,0.5,1.5,0.5c0.4,0,0.7,0,1-0.1s0.5-0.1,0.6-0.2l0.2,0.9c-0.1,0.1-0.4,0.1-0.7,0.2c-0.3,0.1-0.7,0.1-1.2,0.1
			s-1-0.1-1.4-0.2c-0.4-0.2-0.7-0.4-1-0.7c-0.3-0.3-0.4-0.6-0.6-1C485.7,448.9,485.6,448.4,485.6,448z M489.9,447.3
			c0-0.5-0.1-0.9-0.4-1.2s-0.6-0.5-1.1-0.5c-0.3,0-0.5,0.1-0.7,0.2c-0.2,0.1-0.4,0.2-0.5,0.4s-0.2,0.3-0.3,0.6
			c-0.1,0.2-0.1,0.4-0.2,0.6h3.2V447.3z"/>
		<path id="XMLID_1254_" class="st0" d="M494.9,444.7c0.1,0,0.2,0,0.3,0c0.1,0,0.2,0,0.4,0c0.1,0,0.2,0,0.3,0.1c0.1,0,0.2,0,0.2,0.1
			l-0.2,1c-0.1,0-0.2-0.1-0.4-0.1c-0.2,0-0.5-0.1-0.8-0.1c-0.2,0-0.4,0-0.6,0.1c-0.2,0.1-0.3,0.1-0.4,0.1v5.2h-1.1v-6
			c0.3-0.1,0.6-0.2,1-0.3S494.4,444.7,494.9,444.7z"/>
		<path id="XMLID_1251_" class="st0" d="M497.7,443.7c-0.2,0-0.4-0.1-0.5-0.2c-0.1-0.1-0.2-0.3-0.2-0.5c0-0.2,0.1-0.4,0.2-0.5
			c0.1-0.1,0.3-0.2,0.5-0.2s0.4,0.1,0.5,0.2c0.1,0.1,0.2,0.3,0.2,0.5c0,0.2-0.1,0.4-0.2,0.5C498.1,443.6,497.9,443.7,497.7,443.7z
			 M498.3,451.1h-1.1v-6.2h1.1V451.1z"/>
		<path id="XMLID_1248_" class="st0" d="M499.8,448c0-0.6,0.1-1,0.2-1.4s0.4-0.8,0.6-1c0.3-0.3,0.6-0.5,0.9-0.6
			c0.3-0.1,0.7-0.2,1.1-0.2c0.8,0,1.5,0.3,1.9,0.8s0.7,1.3,0.7,2.4c0,0,0,0.1,0,0.2s0,0.1,0,0.2H501c0,0.6,0.2,1.1,0.6,1.5
			c0.4,0.4,0.8,0.5,1.5,0.5c0.4,0,0.7,0,1-0.1s0.5-0.1,0.6-0.2l0.2,0.9c-0.1,0.1-0.4,0.1-0.7,0.2s-0.7,0.1-1.2,0.1s-1-0.1-1.4-0.2
			c-0.4-0.2-0.7-0.4-1-0.7s-0.4-0.6-0.6-1C499.9,448.9,499.8,448.4,499.8,448z M504.1,447.3c0-0.5-0.1-0.9-0.4-1.2
			c-0.3-0.3-0.6-0.5-1.1-0.5c-0.3,0-0.5,0.1-0.7,0.2c-0.2,0.1-0.4,0.2-0.5,0.4c-0.1,0.2-0.2,0.3-0.3,0.6c-0.1,0.2-0.1,0.4-0.1,0.6
			h3.1V447.3z"/>
		<path id="XMLID_1246_" class="st0" d="M506.8,445c0.3-0.1,0.6-0.1,1-0.2s0.9-0.1,1.5-0.1c0.5,0,0.9,0.1,1.2,0.2
			c0.3,0.1,0.6,0.3,0.8,0.6s0.3,0.6,0.4,0.9c0.1,0.4,0.1,0.7,0.1,1.2v3.5h-1.1v-3.3c0-0.4,0-0.7-0.1-1c-0.1-0.3-0.1-0.5-0.3-0.7
			s-0.3-0.3-0.5-0.4c-0.2-0.1-0.4-0.1-0.7-0.1c-0.1,0-0.2,0-0.4,0s-0.3,0-0.4,0c-0.1,0-0.2,0-0.3,0s-0.2,0-0.2,0v5.3h-1.1L506.8,445
			L506.8,445z"/>
		<path id="XMLID_1243_" class="st0" d="M517.6,441.9l1.1-0.2v9.1c-0.3,0.1-0.6,0.1-1,0.2c-0.4,0.1-0.9,0.1-1.4,0.1
			s-0.9-0.1-1.3-0.2c-0.4-0.2-0.7-0.4-1-0.6c-0.3-0.3-0.5-0.6-0.6-1s-0.2-0.9-0.2-1.4s0.1-0.9,0.2-1.3c0.1-0.4,0.3-0.7,0.5-1
			s0.5-0.5,0.9-0.7c0.3-0.2,0.7-0.2,1.2-0.2c0.4,0,0.7,0,1,0.1s0.5,0.2,0.6,0.3V441.9z M517.6,446.1c-0.1-0.1-0.3-0.2-0.6-0.3
			c-0.3-0.1-0.5-0.2-0.8-0.2s-0.6,0.1-0.8,0.2c-0.2,0.1-0.4,0.3-0.6,0.5c-0.1,0.2-0.2,0.4-0.3,0.7s-0.1,0.6-0.1,0.9
			c0,0.7,0.2,1.3,0.5,1.7c0.4,0.4,0.8,0.6,1.4,0.6c0.3,0,0.6,0,0.8,0s0.4-0.1,0.5-0.1L517.6,446.1L517.6,446.1z"/>
		<path id="XMLID_1240_" class="st0" d="M522.6,444.7c0.4,0,0.8,0.1,1.1,0.2s0.6,0.3,0.7,0.5c0.2,0.2,0.3,0.5,0.4,0.8
			c0.1,0.3,0.1,0.6,0.1,1v3.9c-0.1,0-0.2,0-0.4,0.1c-0.2,0-0.4,0.1-0.6,0.1c-0.2,0-0.5,0-0.7,0.1c-0.3,0-0.5,0-0.8,0
			c-0.4,0-0.7,0-1-0.1c-0.3-0.1-0.6-0.2-0.8-0.3c-0.2-0.2-0.4-0.4-0.5-0.6c-0.1-0.3-0.2-0.6-0.2-0.9s0.1-0.6,0.2-0.9
			c0.1-0.3,0.3-0.4,0.6-0.6c0.2-0.2,0.5-0.3,0.8-0.3c0.3-0.1,0.7-0.1,1-0.1c0.1,0,0.2,0,0.3,0s0.2,0,0.3,0s0.2,0,0.3,0.1
			c0.1,0,0.1,0,0.2,0v-0.3c0-0.2,0-0.4-0.1-0.5s-0.1-0.3-0.2-0.5c-0.1-0.1-0.2-0.3-0.4-0.3c-0.2-0.1-0.4-0.1-0.7-0.1
			c-0.4,0-0.7,0-1,0.1c-0.3,0.1-0.5,0.1-0.6,0.2l-0.1-0.9c0.1-0.1,0.4-0.1,0.7-0.2C521.9,444.7,522.2,444.7,522.6,444.7z
			 M522.7,450.3c0.3,0,0.5,0,0.7,0s0.4,0,0.5-0.1v-1.9c-0.1,0-0.2-0.1-0.4-0.1s-0.4,0-0.7,0c-0.2,0-0.3,0-0.5,0s-0.4,0.1-0.5,0.2
			c-0.2,0.1-0.3,0.2-0.4,0.3c-0.1,0.1-0.2,0.3-0.2,0.5c0,0.4,0.1,0.7,0.4,0.8C521.9,450.2,522.3,450.3,522.7,450.3z"/>
		<path id="XMLID_1238_" class="st0" d="M528,449.7c0,0.1,0,0.1,0,0.2s0,0.1,0,0.2c0,0.5-0.1,1-0.2,1.5c-0.1,0.5-0.4,1-0.6,1.4
			l-0.9-0.3c0.2-0.4,0.3-0.8,0.4-1.2c0.1-0.4,0.1-0.8,0.1-1.2c0-0.1,0-0.2,0-0.3s0-0.2,0-0.3C526.8,449.7,528,449.7,528,449.7z"/>
		<path id="XMLID_1236_" class="st0" d="M535.1,451.2c-0.5,0-0.9-0.1-1.3-0.2c-0.4-0.2-0.7-0.4-1-0.7c-0.3-0.3-0.5-0.6-0.6-1
			s-0.2-0.8-0.2-1.3s0.1-0.9,0.2-1.3c0.1-0.4,0.3-0.7,0.6-1c0.3-0.3,0.6-0.5,0.9-0.7c0.4-0.2,0.8-0.2,1.2-0.2c0.3,0,0.6,0,0.8,0.1
			c0.2,0.1,0.5,0.1,0.8,0.2l-0.3,0.9c-0.2-0.1-0.4-0.1-0.6-0.2c-0.2,0-0.5-0.1-0.7-0.1c-0.6,0-1.1,0.2-1.4,0.6
			c-0.3,0.4-0.5,1-0.5,1.7c0,0.3,0,0.6,0.1,0.9c0.1,0.3,0.2,0.5,0.4,0.7s0.4,0.4,0.6,0.5c0.3,0.1,0.6,0.2,0.9,0.2
			c0.3,0,0.6,0,0.8-0.1c0.2-0.1,0.4-0.1,0.6-0.2l0.2,0.9c-0.1,0-0.2,0.1-0.3,0.1s-0.3,0.1-0.4,0.1c-0.2,0-0.3,0.1-0.5,0.1
			C535.4,451.2,535.2,451.2,535.1,451.2z"/>
		<path id="XMLID_1233_" class="st0" d="M537.5,448c0-0.6,0.1-1,0.2-1.4s0.4-0.8,0.6-1c0.3-0.3,0.6-0.5,0.9-0.6
			c0.3-0.1,0.7-0.2,1.1-0.2c0.8,0,1.5,0.3,1.9,0.8s0.7,1.3,0.7,2.4c0,0,0,0.1,0,0.2s0,0.1,0,0.2h-4.3c0,0.6,0.2,1.1,0.6,1.5
			c0.4,0.4,0.8,0.5,1.5,0.5c0.4,0,0.7,0,1-0.1s0.5-0.1,0.6-0.2l0.2,0.9c-0.1,0.1-0.4,0.1-0.7,0.2s-0.7,0.1-1.2,0.1s-1-0.1-1.4-0.2
			c-0.4-0.2-0.7-0.4-1-0.7s-0.4-0.6-0.6-1C537.6,448.9,537.5,448.4,537.5,448z M541.8,447.3c0-0.5-0.1-0.9-0.4-1.2s-0.6-0.5-1.1-0.5
			c-0.3,0-0.5,0.1-0.7,0.2c-0.2,0.1-0.4,0.2-0.5,0.4s-0.2,0.3-0.3,0.6c-0.1,0.2-0.1,0.4-0.1,0.6h3.1V447.3z"/>
		<path id="XMLID_1231_" class="st0" d="M544.5,445c0.3-0.1,0.6-0.1,1-0.2s0.9-0.1,1.5-0.1c0.5,0,0.9,0.1,1.2,0.2
			c0.3,0.1,0.6,0.3,0.8,0.6c0.2,0.3,0.3,0.6,0.4,0.9c0.1,0.4,0.1,0.7,0.1,1.2v3.5h-1.1v-3.3c0-0.4,0-0.7-0.1-1
			c-0.1-0.3-0.1-0.5-0.3-0.7s-0.3-0.3-0.5-0.4c-0.2-0.1-0.4-0.1-0.7-0.1c-0.1,0-0.2,0-0.4,0s-0.3,0-0.4,0c-0.1,0-0.2,0-0.3,0
			s-0.2,0-0.2,0v5.3h-1.1L544.5,445L544.5,445z"/>
		<path id="XMLID_1228_" class="st0" d="M553.3,444.7c0.4,0,0.8,0.1,1.1,0.2s0.6,0.3,0.7,0.5c0.2,0.2,0.3,0.5,0.4,0.8
			c0.1,0.3,0.1,0.6,0.1,1v3.9c-0.1,0-0.2,0-0.4,0.1c-0.2,0.1-0.4,0.1-0.6,0.1c-0.2,0-0.5,0-0.7,0.1c-0.3,0-0.5,0-0.8,0
			c-0.4,0-0.7,0-1-0.1c-0.3-0.1-0.6-0.2-0.8-0.3c-0.2-0.2-0.4-0.4-0.5-0.6c-0.1-0.3-0.2-0.6-0.2-0.9s0.1-0.6,0.2-0.9
			c0.1-0.3,0.3-0.4,0.6-0.6c0.2-0.2,0.5-0.3,0.8-0.3c0.3-0.1,0.7-0.1,1-0.1c0.1,0,0.2,0,0.3,0s0.2,0,0.3,0s0.2,0,0.3,0.1
			c0.1,0.1,0.1,0,0.2,0v-0.3c0-0.2,0-0.4-0.1-0.5s-0.1-0.3-0.2-0.5c-0.1-0.1-0.2-0.3-0.4-0.3c-0.2-0.1-0.4-0.1-0.7-0.1
			c-0.4,0-0.7,0-1,0.1c-0.3,0.1-0.5,0.1-0.6,0.2l-0.1-0.9c0.1-0.1,0.4-0.1,0.7-0.2C552.6,444.7,553,444.7,553.3,444.7z M553.4,450.3
			c0.3,0,0.5,0,0.7,0s0.4,0,0.5-0.1v-1.9c-0.1,0-0.2-0.1-0.4-0.1s-0.4,0-0.7,0c-0.2,0-0.3,0-0.5,0s-0.4,0.1-0.5,0.2
			s-0.3,0.2-0.4,0.3c-0.1,0.1-0.2,0.3-0.2,0.5c0,0.4,0.1,0.7,0.4,0.8S553,450.3,553.4,450.3z"/>
		<path id="XMLID_1226_" class="st0" d="M558.8,450.4c0,0.2-0.1,0.4-0.2,0.6c-0.1,0.2-0.3,0.2-0.6,0.2s-0.4-0.1-0.6-0.2
			c-0.1-0.2-0.2-0.3-0.2-0.6c0-0.2,0.1-0.4,0.2-0.6c0.1-0.2,0.3-0.2,0.6-0.2s0.4,0.1,0.6,0.2C558.8,450,558.8,450.2,558.8,450.4z"/>
	</g>
</g>
<g id="_x37_ab2M5.tif_2_">
	<g id="XMLID_77_">
		<path id="XMLID_84_" class="st1" d="M11.6,438.4c0,0.2,0,0.3,0,0.5c0,4.4,0,8.8,0,13.2c0,0.2,0,0.5,0.1,0.7c0.3,1.2,1.9,1.7,2.8,1
			c0.6-0.4,0.7-1,0.7-1.7c0-7.7,0-15.5,0-23.2c0-0.6-0.1-0.6,0.6-0.6h0.1c0,0.3,0,0.5,0,0.8c0,2.6,0,5.2,0,7.8
			c0,0.5,0.1,0.9,0.5,1.1c0.5,0.3,1,0.4,1.5,0.1c0.5-0.3,0.7-0.7,0.7-1.3c0-3.2,0-6.3,0-9.5c0-2.2-1.7-4.2-4.1-4.1
			c-2.3,0-4.5,0-6.8,0c-0.8,0-1.6,0.2-2.3,0.7c-1.2,0.9-1.8,2-1.8,3.5c0,3.1,0,6.2,0,9.3c0,0.2,0,0.4,0,0.5c0.1,0.6,0.7,1,1.3,1
			c0.6,0,1.1-0.3,1.3-0.9c0.1-0.2,0.1-0.5,0.1-0.7c0-2.7,0-5.4,0-8.1c0-0.2,0-0.4,0.3-0.4s0.4,0.1,0.4,0.4c0,4.1,0,8.3,0,12.4
			c0,3.7,0,7.4,0,11c0,0.9,0.5,1.6,1.2,1.8c1.3,0.4,2.5-0.4,2.5-1.8c0-4.4,0-8.9,0-13.3c0-0.2,0-0.3,0-0.5
			C11.1,438.4,11.3,438.4,11.6,438.4z M11.2,422.5c1.8,0,3.1-1.3,3.1-3.1c0-1.7-1.4-3.1-3.1-3.1s-3.1,1.4-3.1,3.1
			C8.1,421.2,9.4,422.5,11.2,422.5z"/>
		<path id="XMLID_83_" class="st1" d="M11.6,438.4c-0.3,0-0.5,0-0.8,0c0,0.2,0,0.3,0,0.5c0,4.4,0,8.9,0,13.3c0,1.4-1.2,2.2-2.5,1.8
			c-0.7-0.2-1.2-1-1.2-1.8c0-3.7,0-7.4,0-11c0-4.1,0-8.3,0-12.4c0-0.3-0.1-0.4-0.4-0.4s-0.3,0.2-0.3,0.4c0,2.7,0,5.4,0,8.1
			c0,0.2,0,0.5-0.1,0.7c-0.2,0.6-0.7,0.9-1.3,0.9c-0.6,0-1.1-0.5-1.3-1c0-0.2,0-0.4,0-0.5c0-3.1,0-6.2,0-9.3c0-1.5,0.6-2.6,1.8-3.5
			c0.7-0.5,1.5-0.7,2.3-0.7c2.3,0,4.5,0,6.8,0c2.4,0,4.1,2,4.1,4.1c0,3.2,0,6.3,0,9.5c0,0.5-0.2,1-0.7,1.3c-0.5,0.3-1,0.2-1.5-0.1
			c-0.4-0.3-0.5-0.7-0.5-1.1c0-2.6,0-5.2,0-7.8c0-0.3,0-0.5,0-0.8c-0.1,0-0.1,0-0.1,0c-0.8,0-0.6,0-0.6,0.6c0,7.7,0,15.5,0,23.2
			c0,0.7-0.1,1.3-0.7,1.7c-0.9,0.7-2.5,0.2-2.8-1c-0.1-0.2-0.1-0.5-0.1-0.7c0-4.4,0-8.8,0-13.2C11.6,438.8,11.6,438.6,11.6,438.4z"
			/>
		<path id="XMLID_82_" class="st1" d="M-3.8,427.6c1.4,4.7,2.8,9.5,4.2,14.2c-1.4,0-2.7,0-4,0c0,0.2,0,0.3,0,0.5c0,3.4,0,6.8,0,10.2
			c0,1.2-1.1,1.8-2.1,1.4c-0.4-0.2-0.7-0.5-0.8-0.9c0-0.2-0.1-0.5-0.1-0.7c0-3.3,0-6.6,0-9.9c0-0.6,0-0.6-0.7-0.6c0,0.1,0,0.3,0,0.4
			c0,3.3,0,6.7,0,10c0,0.1,0,0.3,0,0.4c-0.1,0.9-0.7,1.4-1.5,1.3c-0.9,0-1.4-0.6-1.4-1.5c0-3.4,0-6.9,0-10.3c0-0.1,0-0.3,0-0.4
			c-1.3,0-2.7,0-4.1,0c1.4-4.8,2.8-9.5,4.2-14.2c-0.5-0.2-0.7-0.1-0.8,0.4c-0.8,2.7-1.6,5.3-2.4,8c-0.2,0.7-0.8,1.1-1.4,0.9
			c-0.7-0.2-1.1-0.8-0.9-1.4c0.1-0.4,0.3-0.9,0.4-1.3c0.6-2.1,1.2-4.3,1.9-6.4c0.2-0.7,0.4-1.4,0.7-2c0.4-1.1,1.8-2.4,3.5-2.4
			c1.4,0,2.9,0,4.3,0c1.9-0.1,3.1,0.9,3.8,2.5c0.4,0.8,0.5,1.7,0.8,2.5c0.7,2.3,1.4,4.7,2,7c0.2,0.6,0,1.2-0.5,1.4
			C0.7,437,0,437-0.3,436.5c-0.1-0.2-0.2-0.4-0.3-0.6c-0.6-2-1.2-3.9-1.8-5.9c-0.2-0.6-0.4-1.2-0.5-1.9C-3,427.5-3,427.5-3.8,427.6z
			"/>
		<path id="XMLID_81_" class="st1" d="M-6.8,422.5c-1.9,0-3.1-1.3-3.1-3.1c0-1.7,1.4-3,3.2-3.1c1.7,0,3.1,1.5,3,3.2
			C-3.8,421.2-5.1,422.5-6.8,422.5z"/>
		<path id="XMLID_80_" class="st1" d="M11.2,422.5c-1.8,0-3.1-1.3-3.1-3c0-1.7,1.4-3.1,3.1-3.1s3.1,1.4,3.1,3.1
			C14.3,421.1,13,422.5,11.2,422.5z"/>
	</g>
</g>
</svg>
