<?xml version="1.0" encoding="utf-8"?>
<!-- Generator: Adobe Illustrator 19.0.0, SVG Export Plug-In . SVG Version: 6.00 Build 0)  -->
<svg version="1.1" id="Layer_1" xmlns="http://www.w3.org/2000/svg" xmlns:xlink="http://www.w3.org/1999/xlink" x="0px" y="0px"
	 viewBox="-114 298.9 381.5 197.1" style="enable-background:new -114 298.9 381.5 197.1;" xml:space="preserve">
<style type="text/css">
	.st0{fill:#0D443C;}
	.st1{fill:#0C783D;}
	.st2{fill:none;stroke:#0C783D;stroke-width:9;stroke-miterlimit:10;}
	.st3{fill:#FFFFFF;}
	.st4{fill:none;stroke:#0C783D;stroke-width:2;stroke-miterlimit:10;}
	.st5{fill:none;stroke:#F4F3F2;stroke-width:3;stroke-linecap:round;stroke-miterlimit:10;}
	.st6{fill:#F4F3F2;}
</style>
<g id="XMLID_154_">
	<g id="XMLID_1135_">
		<path id="XMLID_1206_" class="st0" d="M122.7,414.3V406h5v1h-3.9v2.5h3.4v1h-3.4v3.8H122.7z"/>
		<path id="XMLID_1202_" class="st0" d="M130,407.9c0.4,0,0.8,0.1,1.1,0.2c0.3,0.1,0.6,0.3,0.7,0.5c0.2,0.2,0.3,0.5,0.4,0.8
			s0.1,0.6,0.1,1v3.9c-0.1,0-0.2,0-0.4,0.1c-0.2,0-0.4,0.1-0.6,0.1c-0.2,0-0.5,0-0.7,0.1c-0.3,0-0.5,0-0.8,0c-0.4,0-0.7,0-1-0.1
			c-0.3-0.1-0.6-0.2-0.8-0.3c-0.2-0.2-0.4-0.4-0.5-0.6c-0.1-0.3-0.2-0.6-0.2-0.9c0-0.3,0.1-0.6,0.2-0.9c0.1-0.2,0.3-0.4,0.6-0.6
			c0.2-0.2,0.5-0.3,0.8-0.3c0.3-0.1,0.7-0.1,1-0.1c0.1,0,0.2,0,0.3,0s0.2,0,0.3,0s0.2,0,0.3,0.1s0.1,0,0.2,0v-0.3
			c0-0.2,0-0.4-0.1-0.5c-0.1-0.1-0.1-0.3-0.2-0.5c-0.1-0.1-0.2-0.3-0.4-0.3c-0.2-0.1-0.4-0.1-0.7-0.1c-0.4,0-0.7,0-1,0.1
			c-0.3,0.1-0.5,0.1-0.6,0.2l-0.1-0.9c0.1-0.1,0.4-0.1,0.7-0.2C129.2,407.9,129.6,407.9,130,407.9z M130.1,413.5c0.3,0,0.5,0,0.7,0
			s0.4,0,0.5-0.1v-1.9c-0.1,0-0.2-0.1-0.4-0.1s-0.4,0-0.7,0c-0.2,0-0.3,0-0.5,0s-0.4,0.1-0.5,0.2c-0.1,0.1-0.3,0.2-0.4,0.3
			c-0.1,0.1-0.2,0.3-0.2,0.5c0,0.4,0.1,0.7,0.4,0.8C129.3,413.3,129.6,413.5,130.1,413.5z M131.8,405.8l-2.1,1.5l-0.5-0.6l2-1.7
			L131.8,405.8z"/>
		<path id="XMLID_1200_" class="st0" d="M136.4,414.4c-0.5,0-0.9-0.1-1.3-0.2c-0.4-0.2-0.7-0.4-1-0.7s-0.5-0.6-0.6-1
			s-0.2-0.8-0.2-1.3s0.1-0.9,0.2-1.3c0.1-0.4,0.3-0.7,0.6-1s0.6-0.5,0.9-0.7c0.4-0.2,0.8-0.2,1.2-0.2c0.3,0,0.6,0,0.8,0.1
			s0.5,0.1,0.8,0.2l-0.3,0.9c-0.2-0.1-0.4-0.1-0.6-0.2s-0.5-0.1-0.7-0.1c-0.6,0-1.1,0.2-1.4,0.6c-0.3,0.4-0.5,1-0.5,1.7
			c0,0.3,0,0.6,0.1,0.9c0.1,0.3,0.2,0.5,0.4,0.7c0.2,0.2,0.4,0.4,0.6,0.5c0.3,0.1,0.6,0.2,0.9,0.2c0.3,0,0.6,0,0.8-0.1
			s0.4-0.1,0.6-0.2l0.2,0.9c-0.1,0-0.2,0.1-0.3,0.1s-0.3,0.1-0.4,0.1s-0.3,0.1-0.5,0.1C136.7,414.4,136.5,414.4,136.4,414.4z"/>
		<path id="XMLID_1197_" class="st0" d="M139.2,406.9c-0.2,0-0.4-0.1-0.5-0.2c-0.1-0.1-0.2-0.3-0.2-0.5c0-0.2,0.1-0.4,0.2-0.5
			c0.1-0.1,0.3-0.2,0.5-0.2s0.4,0.1,0.5,0.2c0.1,0.1,0.2,0.3,0.2,0.5c0,0.2-0.1,0.4-0.2,0.5C139.6,406.8,139.4,406.9,139.2,406.9z
			 M139.8,414.3h-1.1v-6.2h1.1V414.3z"/>
		<path id="XMLID_1195_" class="st0" d="M143,414.4c-0.7,0-1.2-0.2-1.5-0.4c-0.3-0.3-0.4-0.7-0.4-1.3v-7.5l1.1-0.2v7.5
			c0,0.2,0,0.3,0,0.5c0,0.1,0.1,0.2,0.2,0.3s0.2,0.1,0.3,0.2c0.1,0,0.3,0.1,0.4,0.1L143,414.4z"/>
		<path id="XMLID_1193_" class="st0" d="M151,408c-0.3,1.2-0.7,2.3-1.1,3.4s-0.8,2-1.2,2.9h-1c-0.4-0.8-0.8-1.8-1.2-2.9
			s-0.8-2.2-1.1-3.4h1.2c0.1,0.4,0.2,0.8,0.3,1.3c0.1,0.4,0.3,0.9,0.4,1.3s0.3,0.9,0.4,1.3c0.2,0.4,0.3,0.8,0.4,1.1
			c0.1-0.3,0.3-0.7,0.4-1.1c0.2-0.4,0.3-0.8,0.5-1.3c0.1-0.4,0.3-0.9,0.4-1.3c0.1-0.4,0.2-0.9,0.3-1.3H151z"/>
		<path id="XMLID_1190_" class="st0" d="M152.1,406.9c-0.2,0-0.4-0.1-0.5-0.2c-0.1-0.1-0.2-0.3-0.2-0.5c0-0.2,0.1-0.4,0.2-0.5
			c0.1-0.1,0.3-0.2,0.5-0.2s0.4,0.1,0.5,0.2c0.1,0.1,0.2,0.3,0.2,0.5c0,0.2-0.1,0.4-0.2,0.5C152.5,406.8,152.3,406.9,152.1,406.9z
			 M152.7,414.3h-1.1v-6.2h1.1V414.3z"/>
		<path id="XMLID_1188_" class="st0" d="M155.5,413.5c0.5,0,0.8-0.1,1-0.2c0.2-0.1,0.3-0.3,0.3-0.6c0-0.3-0.1-0.5-0.3-0.6
			s-0.6-0.3-1.1-0.5c-0.2-0.1-0.5-0.2-0.7-0.3c-0.2-0.1-0.4-0.2-0.6-0.4c-0.2-0.1-0.3-0.3-0.4-0.5s-0.1-0.4-0.1-0.7
			c0-0.6,0.2-1,0.6-1.3s1-0.5,1.7-0.5c0.2,0,0.4,0,0.5,0c0.2,0,0.3,0,0.5,0.1c0.2,0,0.3,0.1,0.4,0.1s0.2,0.1,0.3,0.1l-0.2,1
			c-0.1-0.1-0.3-0.1-0.6-0.2c-0.3-0.1-0.6-0.1-0.9-0.1s-0.6,0.1-0.8,0.2c-0.2,0.1-0.3,0.3-0.3,0.6c0,0.1,0,0.3,0.1,0.4
			c0.1,0.1,0.1,0.2,0.2,0.3s0.2,0.2,0.4,0.2c0.2,0.1,0.4,0.1,0.6,0.2c0.3,0.1,0.6,0.2,0.8,0.3c0.2,0.1,0.4,0.2,0.6,0.4
			c0.2,0.1,0.3,0.3,0.4,0.5c0.1,0.2,0.1,0.5,0.1,0.8c0,0.6-0.2,1-0.6,1.3c-0.4,0.3-1,0.4-1.8,0.4c-0.6,0-1,0-1.3-0.1
			s-0.5-0.2-0.6-0.2l0.2-1c0.1,0,0.3,0.1,0.6,0.2C154.7,413.4,155.1,413.5,155.5,413.5z"/>
		<path id="XMLID_1186_" class="st0" d="M163.8,414.1c-0.3,0.1-0.6,0.1-1,0.2s-0.9,0.1-1.5,0.1c-0.5,0-0.9-0.1-1.2-0.2
			c-0.3-0.1-0.6-0.3-0.8-0.6c-0.2-0.3-0.3-0.6-0.4-0.9c-0.1-0.3-0.1-0.7-0.1-1.2V408h1.1v3.3c0,0.8,0.1,1.3,0.4,1.6
			c0.2,0.3,0.6,0.5,1.2,0.5c0.1,0,0.2,0,0.4,0c0.1,0,0.2,0,0.4,0c0.1,0,0.2,0,0.3,0c0.1,0,0.2,0,0.2,0v-5.3h1.1v6H163.8z"/>
		<path id="XMLID_1183_" class="st0" d="M167.2,407.9c0.4,0,0.8,0.1,1.1,0.2c0.3,0.1,0.6,0.3,0.7,0.5c0.2,0.2,0.3,0.5,0.4,0.8
			s0.1,0.6,0.1,1v3.9c-0.1,0-0.2,0-0.4,0.1s-0.4,0.1-0.6,0.1s-0.5,0-0.7,0.1c-0.3,0-0.5,0-0.8,0c-0.4,0-0.7,0-1-0.1
			c-0.3-0.1-0.6-0.2-0.8-0.3c-0.2-0.2-0.4-0.4-0.5-0.6c-0.1-0.3-0.2-0.6-0.2-0.9c0-0.3,0.1-0.6,0.2-0.9s0.3-0.4,0.6-0.6
			c0.2-0.2,0.5-0.3,0.8-0.3c0.3-0.1,0.7-0.1,1-0.1c0.1,0,0.2,0,0.3,0c0.1,0,0.2,0,0.3,0c0.1,0,0.2,0,0.3,0.1c0.1,0,0.1,0,0.2,0v-0.3
			c0-0.2,0-0.4-0.1-0.5c-0.1-0.1-0.1-0.3-0.2-0.5c-0.1-0.1-0.2-0.3-0.4-0.3c-0.2-0.1-0.4-0.1-0.7-0.1c-0.4,0-0.7,0-1,0.1
			c-0.3,0.1-0.5,0.1-0.6,0.2l-0.1-0.9c0.1-0.1,0.4-0.1,0.7-0.2C166.5,407.9,166.8,407.9,167.2,407.9z M167.3,413.5
			c0.3,0,0.5,0,0.7,0s0.4,0,0.5-0.1v-1.9c-0.1,0-0.2-0.1-0.4-0.1c-0.2,0-0.4,0-0.7,0c-0.2,0-0.3,0-0.5,0s-0.4,0.1-0.5,0.2
			c-0.2,0.1-0.3,0.2-0.4,0.3s-0.2,0.3-0.2,0.5c0,0.4,0.1,0.7,0.4,0.8C166.5,413.4,166.9,413.5,167.3,413.5z"/>
		<path id="XMLID_1181_" class="st0" d="M172.8,414.4c-0.7,0-1.2-0.2-1.5-0.4c-0.3-0.3-0.4-0.7-0.4-1.3v-7.5l1.1-0.2v7.5
			c0,0.2,0,0.3,0,0.5c0,0.1,0.1,0.2,0.2,0.3s0.2,0.1,0.3,0.2c0.1,0,0.3,0.1,0.4,0.1L172.8,414.4z"/>
		<path id="XMLID_1178_" class="st0" d="M174.2,406.9c-0.2,0-0.4-0.1-0.5-0.2c-0.1-0.1-0.2-0.3-0.2-0.5c0-0.2,0.1-0.4,0.2-0.5
			c0.1-0.1,0.3-0.2,0.5-0.2s0.4,0.1,0.5,0.2c0.1,0.1,0.2,0.3,0.2,0.5c0,0.2-0.1,0.4-0.2,0.5C174.6,406.8,174.4,406.9,174.2,406.9z
			 M174.8,414.3h-1.1v-6.2h1.1V414.3z"/>
		<path id="XMLID_1176_" class="st0" d="M180.3,408.9c-0.2,0.2-0.4,0.4-0.7,0.8c-0.3,0.3-0.6,0.7-0.9,1.1c-0.3,0.4-0.6,0.8-0.9,1.3
			c-0.3,0.4-0.6,0.9-0.8,1.3h3.4v0.9h-4.8v-0.7c0.2-0.4,0.4-0.7,0.7-1.2c0.3-0.4,0.6-0.8,0.9-1.3c0.3-0.4,0.6-0.8,0.9-1.2
			c0.3-0.4,0.5-0.7,0.8-0.9h-3.1v-0.9h4.5V408.9z"/>
		<path id="XMLID_1173_" class="st0" d="M183.2,407.9c0.4,0,0.8,0.1,1.1,0.2c0.3,0.1,0.6,0.3,0.7,0.5c0.2,0.2,0.3,0.5,0.4,0.8
			s0.1,0.6,0.1,1v3.9c-0.1,0-0.2,0-0.4,0.1s-0.4,0.1-0.6,0.1s-0.5,0-0.7,0.1c-0.3,0-0.5,0-0.8,0c-0.4,0-0.7,0-1-0.1
			c-0.3-0.1-0.6-0.2-0.8-0.3c-0.2-0.2-0.4-0.4-0.5-0.6c-0.1-0.3-0.2-0.6-0.2-0.9c0-0.3,0.1-0.6,0.2-0.9s0.3-0.4,0.6-0.6
			c0.2-0.2,0.5-0.3,0.8-0.3c0.3-0.1,0.7-0.1,1-0.1c0.1,0,0.2,0,0.3,0c0.1,0,0.2,0,0.3,0c0.1,0,0.2,0,0.3,0.1c0.1,0,0.1,0,0.2,0v-0.3
			c0-0.2,0-0.4-0.1-0.5c-0.1-0.1-0.1-0.3-0.2-0.5c-0.1-0.1-0.2-0.3-0.4-0.3c-0.2-0.1-0.4-0.1-0.7-0.1c-0.4,0-0.7,0-1,0.1
			c-0.3,0.1-0.5,0.1-0.6,0.2l-0.1-0.9c0.1-0.1,0.4-0.1,0.7-0.2C182.5,407.9,182.8,407.9,183.2,407.9z M183.3,413.5
			c0.3,0,0.5,0,0.7,0s0.4,0,0.5-0.1v-1.9c-0.1,0-0.2-0.1-0.4-0.1c-0.2,0-0.4,0-0.7,0c-0.2,0-0.3,0-0.5,0s-0.4,0.1-0.5,0.2
			c-0.2,0.1-0.3,0.2-0.4,0.3s-0.2,0.3-0.2,0.5c0,0.4,0.1,0.7,0.4,0.8C182.5,413.4,182.9,413.5,183.3,413.5z"/>
		<path id="XMLID_1171_" class="st0" d="M189.6,414.4c-0.5,0-0.9-0.1-1.3-0.2c-0.4-0.2-0.7-0.4-1-0.7s-0.5-0.6-0.6-1
			s-0.2-0.8-0.2-1.3s0.1-0.9,0.2-1.3s0.3-0.7,0.6-1s0.6-0.5,0.9-0.7c0.4-0.2,0.8-0.2,1.2-0.2c0.3,0,0.6,0,0.8,0.1s0.5,0.1,0.8,0.2
			l-0.3,0.9c-0.2-0.1-0.4-0.1-0.6-0.2s-0.5-0.1-0.7-0.1c-0.6,0-1.1,0.2-1.4,0.6s-0.5,1-0.5,1.7c0,0.3,0,0.6,0.1,0.9
			c0.1,0.3,0.2,0.5,0.4,0.7c0.2,0.2,0.4,0.4,0.6,0.5c0.3,0.1,0.6,0.2,0.9,0.2s0.6,0,0.8-0.1s0.4-0.1,0.6-0.2l0.2,0.9
			c-0.1,0-0.2,0.1-0.3,0.1s-0.3,0.1-0.4,0.1s-0.3,0.1-0.5,0.1C190,414.4,189.8,414.4,189.6,414.4z"/>
		<path id="XMLID_1168_" class="st0" d="M192.5,406.9c-0.2,0-0.4-0.1-0.5-0.2c-0.1-0.1-0.2-0.3-0.2-0.5c0-0.2,0.1-0.4,0.2-0.5
			c0.1-0.1,0.3-0.2,0.5-0.2s0.4,0.1,0.5,0.2c0.1,0.1,0.2,0.3,0.2,0.5c0,0.2-0.1,0.4-0.2,0.5C192.9,406.8,192.7,406.9,192.5,406.9z
			 M193.1,414.3H192v-6.2h1.1V414.3z"/>
		<path id="XMLID_1164_" class="st0" d="M200,411.1c0,0.5-0.1,0.9-0.2,1.3s-0.3,0.7-0.6,1s-0.6,0.5-0.9,0.7
			c-0.3,0.2-0.8,0.2-1.2,0.2c-0.4,0-0.8-0.1-1.2-0.2c-0.4-0.2-0.7-0.4-0.9-0.7s-0.5-0.6-0.6-1s-0.2-0.8-0.2-1.3s0.1-0.9,0.2-1.3
			s0.3-0.8,0.6-1s0.6-0.5,0.9-0.7c0.4-0.2,0.8-0.2,1.2-0.2c0.4,0,0.8,0.1,1.2,0.2c0.4,0.1,0.7,0.4,0.9,0.7s0.5,0.6,0.6,1
			C199.9,410.2,200,410.7,200,411.1z M198.8,411.1c0-0.7-0.2-1.3-0.5-1.7s-0.7-0.6-1.3-0.6s-1,0.2-1.3,0.6s-0.5,1-0.5,1.7
			c0,0.7,0.2,1.3,0.5,1.7s0.7,0.6,1.3,0.6s1-0.2,1.3-0.6C198.6,412.4,198.8,411.9,198.8,411.1z M198.6,405.8l-2.1,1.5l-0.5-0.6
			l2-1.7L198.6,405.8z"/>
		<path id="XMLID_1162_" class="st0" d="M201,408.2c0.3-0.1,0.6-0.1,1-0.2s0.9-0.1,1.5-0.1c0.5,0,0.9,0.1,1.2,0.2
			c0.3,0.1,0.6,0.3,0.8,0.6c0.2,0.3,0.3,0.6,0.4,0.9c0.1,0.4,0.1,0.7,0.1,1.2v3.5h-1.1V411c0-0.4,0-0.7-0.1-1
			c-0.1-0.3-0.1-0.5-0.3-0.7c-0.1-0.2-0.3-0.3-0.5-0.4s-0.4-0.1-0.7-0.1c-0.1,0-0.2,0-0.4,0s-0.3,0-0.4,0s-0.2,0-0.3,0
			c-0.1,0-0.2,0-0.2,0v5.3h-1V408.2z"/>
		<path id="XMLID_1159_" class="st0" d="M213.6,405.1l1.1-0.2v9.1c-0.3,0.1-0.6,0.1-1,0.2s-0.9,0.1-1.4,0.1s-0.9-0.1-1.3-0.2
			c-0.4-0.1-0.7-0.4-1-0.6c-0.3-0.3-0.5-0.6-0.6-1c-0.1-0.4-0.2-0.9-0.2-1.4s0.1-0.9,0.2-1.3s0.3-0.7,0.5-1s0.5-0.5,0.9-0.7
			c0.3-0.2,0.7-0.2,1.2-0.2c0.4,0,0.7,0,1,0.1c0.3,0.1,0.5,0.2,0.6,0.3L213.6,405.1L213.6,405.1z M213.6,409.3
			c-0.1-0.1-0.3-0.2-0.6-0.3c-0.3-0.1-0.5-0.2-0.8-0.2s-0.6,0.1-0.8,0.2c-0.2,0.1-0.4,0.3-0.6,0.5c-0.1,0.2-0.2,0.4-0.3,0.7
			c-0.1,0.3-0.1,0.6-0.1,0.9c0,0.7,0.2,1.3,0.5,1.7c0.4,0.4,0.8,0.6,1.4,0.6c0.3,0,0.6,0,0.8,0s0.4-0.1,0.5-0.1V409.3z"/>
		<path id="XMLID_1156_" class="st0" d="M215.7,411.2c0-0.6,0.1-1,0.2-1.4c0.1-0.4,0.4-0.8,0.6-1c0.3-0.3,0.6-0.5,0.9-0.6
			c0.3-0.1,0.7-0.2,1.1-0.2c0.8,0,1.5,0.3,1.9,0.8s0.7,1.3,0.7,2.4c0,0,0,0.1,0,0.2s0,0.1,0,0.2h-4.3c0,0.6,0.2,1.1,0.6,1.5
			s0.8,0.5,1.5,0.5c0.4,0,0.7,0,1-0.1s0.5-0.1,0.6-0.2l0.2,0.9c-0.1,0.1-0.4,0.1-0.7,0.2c-0.3,0.1-0.7,0.1-1.2,0.1s-1-0.1-1.4-0.2
			c-0.4-0.2-0.7-0.4-1-0.7s-0.4-0.6-0.6-1C215.8,412.1,215.7,411.6,215.7,411.2z M220,410.5c0-0.5-0.1-0.9-0.4-1.2s-0.6-0.5-1.1-0.5
			c-0.3,0-0.5,0.1-0.7,0.2c-0.2,0.1-0.4,0.2-0.5,0.4c-0.1,0.2-0.2,0.3-0.3,0.6c-0.1,0.2-0.1,0.4-0.1,0.6L220,410.5L220,410.5z"/>
		<path id="XMLID_1154_" class="st0" d="M224.1,414.4c-0.7,0-1.2-0.2-1.5-0.4c-0.3-0.3-0.4-0.7-0.4-1.3v-7.5l1.1-0.2v7.5
			c0,0.2,0,0.3,0,0.5c0,0.1,0.1,0.2,0.2,0.3s0.2,0.1,0.3,0.2c0.1,0.1,0.3,0.1,0.4,0.1L224.1,414.4z"/>
		<path id="XMLID_1152_" class="st0" d="M227.1,408.2c0.3-0.1,0.6-0.1,1-0.2s0.9-0.1,1.5-0.1c0.4,0,0.7,0.1,1,0.2s0.5,0.3,0.7,0.5
			c0.1,0,0.1-0.1,0.3-0.2c0.1-0.1,0.3-0.1,0.4-0.2c0.2-0.1,0.4-0.1,0.6-0.2c0.2-0.1,0.4-0.1,0.7-0.1c0.5,0,0.9,0.1,1.2,0.2
			c0.3,0.1,0.5,0.3,0.7,0.6s0.3,0.6,0.3,0.9c0.1,0.4,0.1,0.7,0.1,1.2v3.5h-1.1V411c0-0.4,0-0.7-0.1-0.9c0-0.3-0.1-0.5-0.2-0.7
			c-0.1-0.2-0.2-0.3-0.4-0.4c-0.2-0.1-0.4-0.1-0.7-0.1c-0.4,0-0.7,0-0.9,0.1c-0.2,0.1-0.4,0.2-0.5,0.3c0.1,0.2,0.1,0.4,0.1,0.7
			s0,0.5,0,0.8v3.5h-1.1V411c0-0.4,0-0.7-0.1-0.9c0-0.3-0.1-0.5-0.2-0.7c-0.1-0.2-0.2-0.3-0.4-0.4s-0.4-0.1-0.7-0.1
			c-0.1,0-0.2,0-0.4,0s-0.3,0-0.4,0s-0.2,0-0.3,0c-0.1,0-0.2,0-0.2,0v5.3h-1.1v-6H227.1z"/>
		<path id="XMLID_1149_" class="st0" d="M236.6,411.2c0-0.6,0.1-1,0.2-1.4c0.1-0.4,0.4-0.8,0.6-1c0.3-0.3,0.6-0.5,0.9-0.6
			c0.3-0.1,0.7-0.2,1.1-0.2c0.8,0,1.5,0.3,1.9,0.8s0.7,1.3,0.7,2.4c0,0,0,0.1,0,0.2s0,0.1,0,0.2h-4.3c0,0.6,0.2,1.1,0.6,1.5
			s0.8,0.5,1.5,0.5c0.4,0,0.7,0,1-0.1s0.5-0.1,0.6-0.2l0.2,0.9c-0.1,0.1-0.4,0.1-0.7,0.2c-0.3,0.1-0.7,0.1-1.2,0.1s-1-0.1-1.4-0.2
			c-0.4-0.2-0.7-0.4-1-0.7s-0.4-0.6-0.6-1C236.6,412.1,236.6,411.6,236.6,411.2z M240.9,410.5c0-0.5-0.1-0.9-0.4-1.2
			s-0.6-0.5-1.1-0.5c-0.3,0-0.5,0.1-0.7,0.2c-0.2,0.1-0.4,0.2-0.5,0.4s-0.2,0.3-0.3,0.6c-0.1,0.2-0.1,0.4-0.1,0.6L240.9,410.5
			L240.9,410.5z"/>
		<path id="XMLID_1147_" class="st0" d="M243.1,408.2c0.3-0.1,0.6-0.1,1-0.2s0.9-0.1,1.5-0.1c0.5,0,0.9,0.1,1.2,0.2
			c0.3,0.1,0.6,0.3,0.8,0.6c0.2,0.3,0.3,0.6,0.4,0.9c0.1,0.4,0.1,0.7,0.1,1.2v3.5H247V411c0-0.4,0-0.7-0.1-1
			c-0.1-0.3-0.1-0.5-0.3-0.7c-0.2-0.2-0.3-0.3-0.5-0.4s-0.4-0.1-0.7-0.1c-0.1,0-0.2,0-0.4,0s-0.3,0-0.4,0s-0.2,0-0.3,0
			c-0.1,0-0.2,0-0.2,0v5.3H243v-5.9H243.1z"/>
		<path id="XMLID_1145_" class="st0" d="M250.9,413.5c0.5,0,0.8-0.1,1-0.2c0.2-0.1,0.3-0.3,0.3-0.6c0-0.3-0.1-0.5-0.3-0.6
			s-0.6-0.3-1.1-0.5c-0.2-0.1-0.5-0.2-0.7-0.3c-0.2-0.1-0.4-0.2-0.6-0.4c-0.2-0.1-0.3-0.3-0.4-0.5s-0.1-0.4-0.1-0.7
			c0-0.6,0.2-1,0.6-1.3s1-0.5,1.7-0.5c0.2,0,0.4,0,0.5,0c0.2,0,0.3,0,0.5,0.1c0.2,0,0.3,0.1,0.4,0.1s0.2,0.1,0.3,0.1l-0.2,1
			c-0.1-0.1-0.3-0.1-0.6-0.2c-0.3-0.1-0.6-0.1-0.9-0.1s-0.6,0.1-0.8,0.2c-0.2,0.1-0.3,0.3-0.3,0.6c0,0.1,0,0.3,0.1,0.4
			c0.1,0.1,0.1,0.2,0.2,0.3s0.2,0.2,0.4,0.2c0.2,0.1,0.4,0.1,0.6,0.2c0.3,0.1,0.6,0.2,0.8,0.3c0.2,0.1,0.4,0.2,0.6,0.4
			c0.2,0.1,0.3,0.3,0.4,0.5c0.1,0.2,0.1,0.5,0.1,0.8c0,0.6-0.2,1-0.6,1.3c-0.4,0.3-1,0.4-1.8,0.4c-0.6,0-1,0-1.3-0.1
			s-0.5-0.2-0.6-0.2l0.2-1c0.1,0,0.3,0.1,0.6,0.2C250,413.4,250.4,413.5,250.9,413.5z"/>
		<path id="XMLID_1142_" class="st0" d="M256.2,407.9c0.4,0,0.8,0.1,1.1,0.2c0.3,0.1,0.6,0.3,0.7,0.5c0.2,0.2,0.3,0.5,0.4,0.8
			s0.1,0.6,0.1,1v3.9c-0.1,0-0.2,0-0.4,0.1s-0.4,0.1-0.6,0.1s-0.5,0-0.7,0.1c-0.3,0-0.5,0-0.8,0c-0.4,0-0.7,0-1-0.1
			c-0.3-0.1-0.6-0.2-0.8-0.3c-0.2-0.2-0.4-0.4-0.5-0.6c-0.1-0.3-0.2-0.6-0.2-0.9c0-0.3,0.1-0.6,0.2-0.9s0.3-0.4,0.6-0.6
			c0.2-0.2,0.5-0.3,0.8-0.3c0.3-0.1,0.7-0.1,1-0.1c0.1,0,0.2,0,0.3,0c0.1,0,0.2,0,0.3,0c0.1,0,0.2,0,0.3,0.1s0.1,0,0.2,0v-0.3
			c0-0.2,0-0.4-0.1-0.5c-0.1-0.1-0.1-0.3-0.2-0.5c-0.1-0.1-0.2-0.3-0.4-0.3c-0.2-0.1-0.4-0.1-0.7-0.1c-0.4,0-0.7,0-1,0.1
			c-0.3,0.1-0.5,0.1-0.6,0.2l-0.1-0.9c0.1-0.1,0.4-0.1,0.7-0.2C255.5,407.9,255.8,407.9,256.2,407.9z M256.3,413.5
			c0.3,0,0.5,0,0.7,0s0.4,0,0.5-0.1v-1.9c-0.1,0-0.2-0.1-0.4-0.1c-0.2,0-0.4,0-0.7,0c-0.2,0-0.3,0-0.5,0s-0.4,0.1-0.5,0.2
			c-0.1,0.1-0.3,0.2-0.4,0.3s-0.2,0.3-0.2,0.5c0,0.4,0.1,0.7,0.4,0.8C255.5,413.3,255.9,413.5,256.3,413.5z"/>
		<path id="XMLID_1139_" class="st0" d="M258.9,416.5c-0.1,0-0.2,0-0.4,0c-0.2,0-0.3-0.1-0.4-0.1l0.1-0.9c0.1,0,0.2,0,0.3,0.1
			c0.1,0,0.2,0,0.3,0c0.4,0,0.7-0.1,0.8-0.4c0.2-0.2,0.2-0.6,0.2-1v-6.1h1.1v6.1c0,0.8-0.2,1.4-0.5,1.8
			C260.1,416.3,259.6,416.5,258.9,416.5z M260.5,406.9c-0.2,0-0.4-0.1-0.5-0.2c-0.1-0.1-0.2-0.3-0.2-0.5c0-0.2,0.1-0.4,0.2-0.5
			c0.1-0.1,0.3-0.2,0.5-0.2s0.4,0.1,0.5,0.2c0.1,0.1,0.2,0.3,0.2,0.5c0,0.2-0.1,0.4-0.2,0.5C260.8,406.8,260.7,406.9,260.5,406.9z"
			/>
		<path id="XMLID_1136_" class="st0" d="M262.1,411.2c0-0.6,0.1-1,0.2-1.4c0.1-0.4,0.4-0.8,0.6-1c0.3-0.3,0.6-0.5,0.9-0.6
			c0.3-0.1,0.7-0.2,1.1-0.2c0.8,0,1.5,0.3,1.9,0.8s0.7,1.3,0.7,2.4c0,0,0,0.1,0,0.2s0,0.1,0,0.2h-4.3c0,0.6,0.2,1.1,0.6,1.5
			s0.8,0.5,1.5,0.5c0.4,0,0.7,0,1-0.1s0.5-0.1,0.6-0.2l0.2,0.9c-0.1,0.1-0.4,0.1-0.7,0.2c-0.3,0.1-0.7,0.1-1.2,0.1s-1-0.1-1.4-0.2
			c-0.4-0.2-0.7-0.4-1-0.7s-0.4-0.6-0.6-1C262.1,412.1,262.1,411.6,262.1,411.2z M266.3,410.5c0-0.5-0.1-0.9-0.4-1.2
			s-0.6-0.5-1.1-0.5c-0.3,0-0.5,0.1-0.7,0.2c-0.2,0.1-0.4,0.2-0.5,0.4s-0.2,0.3-0.3,0.6c-0.1,0.2-0.1,0.4-0.1,0.6L266.3,410.5
			L266.3,410.5z"/>
	</g>
</g>
<g id="XMLID_151_">
	<g id="XMLID_732_">
		<path id="XMLID_767_" class="st1" d="M127.2,382.3l3.4,12.6h-1.9l-0.5-2h-3l-0.5,2h-1.9l3.4-12.6H127.2z M125.7,390.9h1.9l-1-4
			L125.7,390.9z"/>
		<path id="XMLID_765_" class="st1" d="M137.3,389l2.8-4.3l1.9-2.9v13h-1.9v-6.6l-2.8,4.3l-2.8-4.3v6.6h-1.9v-13l1.9,2.9L137.3,389z
			"/>
		<path id="XMLID_762_" class="st1" d="M145.9,392.2v2.7H144v-12.6h2c1.4,0,2.5,0.5,3.5,1.4c1,1,1.4,2.1,1.4,3.5
			c0,1.4-0.5,2.5-1.4,3.5c-1,1-2.1,1.4-3.5,1.4h-0.1V392.2z M145.9,390.3h0.1c0.8,0,1.6-0.3,2.2-0.9s0.9-1.3,0.9-2.2
			c0-0.9-0.3-1.6-0.9-2.2s-1.3-0.9-2.2-0.9h-0.1V390.3z"/>
		<path id="XMLID_760_" class="st1" d="M153,382.4h1.9v10.5h4.3v1.9H153V382.4z"/>
		<path id="XMLID_758_" class="st1" d="M161.2,382.3h1.9v12.5h-1.9V382.3z"/>
		<path id="XMLID_755_" class="st1" d="M167.8,393.1l-0.7,1.7h-2l5-13l5,13h-2l-0.7-1.7H167.8z M168.5,391.2h3.2l-1.6-4.1
			L168.5,391.2z"/>
		<path id="XMLID_753_" class="st1" d="M185.7,394.8c-0.5,0-1-0.1-1.4-0.2s-0.9-0.4-1.3-0.7v-2.3c0.3,0.3,0.5,0.5,0.7,0.6
			c0.2,0.1,0.3,0.2,0.6,0.3c0.2,0.1,0.5,0.2,0.8,0.3c0.3,0.1,0.5,0.1,0.8,0.1c0.6,0,1-0.2,1.4-0.6c0.4-0.4,0.5-0.8,0.5-1.4
			c0-0.4-0.2-0.8-0.5-1.1c-0.3-0.3-0.8-0.6-1.5-0.9c-0.4-0.2-0.8-0.4-1.1-0.6c-0.3-0.2-0.6-0.4-0.8-0.6c-0.3-0.3-0.5-0.6-0.6-0.9
			c-0.2-0.4-0.2-0.8-0.2-1.3s0.1-0.9,0.3-1.3c0.2-0.4,0.5-0.8,0.8-1.1c0.4-0.3,0.8-0.5,1.2-0.7c0.5-0.2,0.9-0.3,1.4-0.3
			c0.4,0,0.7,0.1,1,0.2c0.3,0.1,0.7,0.3,1.1,0.5v2.1c-0.2-0.2-0.4-0.3-0.5-0.3s-0.2-0.1-0.4-0.2c-0.2-0.1-0.3-0.2-0.6-0.2
			c-0.2-0.1-0.4-0.1-0.7-0.1c-0.5,0-1,0.2-1.3,0.5c-0.4,0.3-0.5,0.7-0.5,1.1c0,0.4,0.2,0.7,0.5,1c0.3,0.2,0.8,0.5,1.4,0.8
			c0.4,0.2,0.8,0.4,1.1,0.6c0.3,0.2,0.6,0.4,0.8,0.6c0.3,0.3,0.5,0.6,0.7,1c0.2,0.4,0.3,0.9,0.3,1.4s-0.1,1-0.3,1.4
			c-0.2,0.4-0.5,0.8-0.9,1.2c-0.4,0.3-0.8,0.6-1.3,0.8C186.8,394.7,186.3,394.8,185.7,394.8z"/>
		<path id="XMLID_751_" class="st1" d="M197.4,391v-8.7h1.9v8.7c0,1-0.4,1.9-1.1,2.7c-0.7,0.7-1.6,1.1-2.7,1.1s-1.9-0.4-2.7-1.1
			c-0.7-0.7-1.1-1.6-1.1-2.7v-8.7h1.9v8.7c0,0.5,0.2,1,0.6,1.3c0.4,0.4,0.8,0.6,1.3,0.6s1-0.2,1.3-0.6
			C197.2,392,197.4,391.5,197.4,391z"/>
		<path id="XMLID_748_" class="st1" d="M203.2,392.2v2.7h-1.9v-12.6h2c1.4,0,2.5,0.5,3.5,1.4c1,1,1.4,2.1,1.4,3.5
			c0,1.4-0.5,2.5-1.4,3.5c-1,1-2.1,1.4-3.5,1.4h-0.1V392.2z M203.2,390.3h0.1c0.8,0,1.6-0.3,2.2-0.9s0.9-1.3,0.9-2.2
			c0-0.9-0.3-1.6-0.9-2.2s-1.3-0.9-2.2-0.9h-0.1V390.3z"/>
		<path id="XMLID_746_" class="st1" d="M210.2,382.4h5.7v1.9h-3.8v4.6h3.8v1.9h-3.8v2.1h3.8v1.9h-5.7V382.4z"/>
		<path id="XMLID_743_" class="st1" d="M223.1,391.1l1.8,3.7h-2l-1.3-2.9c-0.4,0.1-0.9,0.2-1.4,0.2h-0.1v2.7H218v-12.5h2
			c1.4,0,2.5,0.5,3.5,1.4c1,1,1.4,2.1,1.4,3.5c0,1.4-0.5,2.5-1.4,3.5C223.4,390.9,223.2,391,223.1,391.1z M219.9,390.3h0.1
			c0.8,0,1.6-0.3,2.2-0.9s0.9-1.3,0.9-2.2c0-0.9-0.3-1.6-0.9-2.2s-1.3-0.9-2.2-0.9h-0.1V390.3z"/>
		<path id="XMLID_741_" class="st1" d="M227,382.4h5.7v1.9h-3.8v4.6h3.8v1.9h-3.8v4H227V382.4z"/>
		<path id="XMLID_739_" class="st1" d="M234.7,382.3h1.9v12.5h-1.9V382.3z"/>
		<path id="XMLID_737_" class="st1" d="M247.3,392.2v2.2c-0.7,0.3-1.5,0.4-2.3,0.4c-0.9,0-1.7-0.2-2.5-0.5c-0.8-0.3-1.4-0.8-2-1.3
			c-0.6-0.6-1-1.2-1.4-2c-0.3-0.8-0.5-1.6-0.5-2.4c0-0.9,0.2-1.7,0.5-2.4c0.3-0.7,0.8-1.4,1.4-2s1.3-1,2-1.3
			c0.7-0.3,1.6-0.5,2.5-0.5c0.8,0,1.6,0.1,2.3,0.4v2.1c-0.2-0.1-0.4-0.2-0.7-0.3c-0.5-0.2-1.1-0.3-1.7-0.3s-1.2,0.1-1.7,0.3
			c-0.5,0.2-1,0.5-1.4,0.9c-0.4,0.4-0.7,0.8-0.9,1.4s-0.3,1.1-0.3,1.7c0,0.6,0.1,1.2,0.3,1.7s0.5,1,0.9,1.4s0.9,0.7,1.4,0.9
			c0.5,0.2,1.1,0.3,1.7,0.3s1.2-0.1,1.7-0.3C246.9,392.5,247.1,392.3,247.3,392.2z"/>
		<path id="XMLID_735_" class="st1" d="M249.4,382.3h1.9v12.5h-1.9V382.3z"/>
		<path id="XMLID_733_" class="st1" d="M253.3,382.4h5.7v1.9h-3.8v4.6h3.8v1.9h-3.8v2.1h3.8v1.9h-5.7V382.4z"/>
	</g>
</g>
<g id="XMLID_148_">
	<g id="XMLID_773_">
		<path id="XMLID_820_" class="st1" d="M126.8,306.3h1.9v12.5h-1.9V306.3z"/>
		<path id="XMLID_817_" class="st1" d="M130.7,318.7v-12.4h2.3c1.7,0,3.2,0.6,4.4,1.8c1.2,1.2,1.8,2.7,1.8,4.4
			c0,1.7-0.6,3.2-1.8,4.4s-2.7,1.8-4.4,1.8H130.7z M132.6,308.2v8.6h0.4c1.2,0,2.2-0.4,3.1-1.3c0.8-0.8,1.3-1.9,1.3-3
			c0-1.2-0.4-2.2-1.3-3.1c-0.8-0.8-1.9-1.3-3.1-1.3L132.6,308.2L132.6,308.2z"/>
		<path id="XMLID_815_" class="st1" d="M141.2,306.3h5.7v1.9h-3.8v4.6h3.8v1.9h-3.8v2.2h3.8v1.9h-5.7V306.3z"/>
		<path id="XMLID_812_" class="st1" d="M151.7,317.1l-0.7,1.7h-2l5-13l5,13h-2l-0.7-1.7H151.7z M152.4,315.2h3.2l-1.6-4.1
			L152.4,315.2z"/>
		<path id="XMLID_809_" class="st1" d="M179.6,312.5c0,0.9-0.2,1.7-0.5,2.4c-0.3,0.8-0.8,1.4-1.4,2s-1.3,1-2,1.3
			c-0.7,0.3-1.6,0.5-2.5,0.5s-1.7-0.2-2.5-0.5c-0.8-0.3-1.4-0.8-2-1.3c-0.6-0.6-1-1.2-1.4-2c-0.3-0.8-0.5-1.6-0.5-2.4
			c0-0.9,0.2-1.7,0.5-2.4c0.3-0.7,0.8-1.4,1.4-2c0.6-0.6,1.3-1,2-1.3c0.8-0.3,1.6-0.5,2.5-0.5s1.7,0.2,2.5,0.5
			c0.8,0.3,1.4,0.8,2,1.3c0.6,0.6,1,1.2,1.4,2C179.5,310.9,179.6,311.6,179.6,312.5z M168.9,312.5c0,0.6,0.1,1.2,0.3,1.7
			c0.2,0.5,0.5,1,0.9,1.4c0.4,0.4,0.9,0.7,1.4,0.9c0.5,0.2,1.1,0.3,1.7,0.3s1.2-0.1,1.7-0.3c0.5-0.2,1-0.5,1.4-0.9
			c0.4-0.4,0.7-0.8,0.9-1.4c0.2-0.6,0.3-1.1,0.3-1.7s-0.1-1.2-0.3-1.7s-0.5-1-0.9-1.4s-0.8-0.7-1.4-0.9c-0.6-0.2-1.1-0.3-1.7-0.3
			s-1.2,0.1-1.7,0.3c-0.5,0.2-1,0.5-1.4,0.9s-0.7,0.8-0.9,1.4C169,311.3,168.9,311.9,168.9,312.5z"/>
		<path id="XMLID_806_" class="st1" d="M186.7,315l1.8,3.7h-2l-1.3-2.9c-0.4,0.1-0.9,0.2-1.4,0.2h-0.1v2.7h-1.9v-12.4h2
			c1.4,0,2.5,0.5,3.5,1.4c1,1,1.4,2.1,1.4,3.5c0,1.4-0.5,2.5-1.4,3.5C187,314.8,186.8,314.9,186.7,315z M183.5,314.2h0.1
			c0.8,0,1.6-0.3,2.2-0.9s0.9-1.3,0.9-2.2c0-0.9-0.3-1.6-0.9-2.2s-1.3-0.9-2.2-0.9h-0.1V314.2z"/>
		<path id="XMLID_804_" class="st1" d="M190.6,306.3h1.9v12.5h-1.9V306.3z"/>
		<path id="XMLID_802_" class="st1" d="M201.6,316.7v-2.1h-1.3v-1.9h2.9v5.5c-0.7,0.3-1.5,0.4-2.3,0.4c-0.9,0-1.7-0.2-2.5-0.5
			c-0.8-0.3-1.4-0.8-2-1.3c-0.6-0.6-1-1.2-1.4-2c-0.3-0.8-0.5-1.6-0.5-2.4c0-0.9,0.2-1.7,0.5-2.4c0.3-0.7,0.8-1.4,1.4-2s1.3-1,2-1.3
			c0.8-0.3,1.6-0.5,2.5-0.5c0.8,0,1.6,0.1,2.3,0.4v2.3c-0.2-0.1-0.4-0.2-0.7-0.3c-0.5-0.2-1.1-0.3-1.7-0.3s-1.2,0.1-1.7,0.3
			c-0.5,0.2-1,0.5-1.4,0.9s-0.7,0.8-0.9,1.4s-0.3,1.1-0.3,1.7c0,0.6,0.1,1.2,0.3,1.7s0.5,1,0.9,1.4c0.4,0.4,0.9,0.7,1.4,0.9
			c0.5,0.2,1.1,0.3,1.7,0.3C201.1,316.8,201.4,316.8,201.6,316.7z"/>
		<path id="XMLID_800_" class="st1" d="M205.2,306.3h1.9v12.5h-1.9V306.3z"/>
		<path id="XMLID_798_" class="st1" d="M214.9,313.6v-7.3h1.9v13l-5.7-7.8v7.2h-1.9v-13L214.9,313.6z"/>
		<path id="XMLID_795_" class="st1" d="M221.5,317.1l-0.7,1.7h-2l5-13l5,13h-2l-0.7-1.7H221.5z M222.2,315.2h3.2l-1.6-4.1
			L222.2,315.2z"/>
		<path id="XMLID_793_" class="st1" d="M230.8,306.3h1.9v10.5h4.3v1.9h-6.2L230.8,306.3L230.8,306.3z"/>
		<path id="XMLID_791_" class="st1" d="M126.8,327h2l2.3,7l2.3-7h2l-3.2,9.2v3.2H130v-3.2L126.8,327z"/>
		<path id="XMLID_789_" class="st1" d="M152.1,336.8v2.2c-0.7,0.3-1.5,0.4-2.3,0.4c-0.9,0-1.7-0.2-2.5-0.5c-0.8-0.3-1.4-0.8-2-1.3
			c-0.6-0.6-1-1.2-1.4-2c-0.3-0.8-0.5-1.6-0.5-2.4c0-0.9,0.2-1.7,0.5-2.4c0.3-0.8,0.8-1.4,1.4-2c0.6-0.6,1.3-1,2-1.3
			c0.8-0.3,1.6-0.5,2.5-0.5c0.8,0,1.6,0.1,2.3,0.4v2.2c-0.2-0.1-0.4-0.2-0.7-0.3c-0.5-0.2-1.1-0.3-1.7-0.3s-1.2,0.1-1.7,0.3
			c-0.5,0.2-1,0.5-1.4,0.9c-0.4,0.4-0.7,0.8-0.9,1.4s-0.3,1.1-0.3,1.7c0,0.6,0.1,1.2,0.3,1.7s0.5,1,0.9,1.4s0.9,0.7,1.4,0.9
			c0.5,0.2,1.1,0.3,1.7,0.3s1.2-0.1,1.7-0.3C151.7,337.1,151.9,336.9,152.1,336.8z"/>
		<path id="XMLID_786_" class="st1" d="M159.2,335.7l1.8,3.7h-2l-1.3-2.9c-0.4,0.1-0.9,0.2-1.4,0.2H156v2.7h-1.9v-12.5h2
			c1.4,0,2.5,0.5,3.5,1.4c1,1,1.4,2.1,1.4,3.5c0,1.4-0.5,2.5-1.4,3.5C159.5,335.5,159.3,335.6,159.2,335.7z M156,334.9h0.1
			c0.8,0,1.6-0.3,2.2-0.9s0.9-1.3,0.9-2.2s-0.3-1.6-0.9-2.2c-0.6-0.6-1.3-0.9-2.2-0.9H156V334.9z"/>
		<path id="XMLID_784_" class="st1" d="M163.1,327h5.7v1.9H165v4.6h3.8v1.9H165v2.2h3.8v1.9h-5.7L163.1,327L163.1,327z"/>
		<path id="XMLID_781_" class="st1" d="M173.5,337.7l-0.7,1.7h-2l5-13l5,13h-2l-0.7-1.7H173.5z M174.3,335.9h3.2l-1.6-4.1
			L174.3,335.9z"/>
		<path id="XMLID_779_" class="st1" d="M179.9,327h8.1v2h-3.1v10.4H183v-10.5h-3.1V327z"/>
		<path id="XMLID_777_" class="st1" d="M190,327h1.9v12.5H190V327z"/>
		<path id="XMLID_774_" class="st1" d="M204.6,337.7l-0.7,1.7h-2l5-13l5,13h-2l-0.7-1.7H204.6z M205.3,335.9h3.2l-1.6-4.1
			L205.3,335.9z"/>
		<path id="XMLID_1_" class="st1" d="M203.8,326.8l-5,13l-5-13h2l3,7.7l3-7.7H203.8z"/>
	</g>
</g>
<g id="XMLID_113_">
	<g id="XMLID_557_">
		<path id="XMLID_632_" class="st1" d="M-45.5,458.3l3.4,12.6H-44l-0.5-2h-3l-0.5,2h-2l3.4-12.6H-45.5z M-47,466.9h1.9l-1-4
			L-47,466.9z"/>
		<path id="XMLID_630_" class="st1" d="M-40.1,458.4h1.9v10.5h4.3v1.9h-6.2C-40.1,470.8-40.1,458.4-40.1,458.4z"/>
		<path id="XMLID_628_" class="st1" d="M-34.7,458.4h8.1v2h-3.1v10.4h-1.9v-10.4h-3.1V458.4z"/>
		<path id="XMLID_625_" class="st1" d="M-24.8,469.2l-0.7,1.7h-2l5-13l5,13h-2l-0.7-1.7H-24.8z M-24.1,467.3h3.2l-1.6-4.1
			L-24.1,467.3z"/>
		<path id="XMLID_623_" class="st1" d="M-50,479.1h5.7v1.9h-3.8v4.6h3.8v1.9h-3.8v2.2h3.8v1.9H-50V479.1z"/>
		<path id="XMLID_621_" class="st1" d="M-42.2,479.1h5.7v1.9h-3.8v4.6h3.8v1.9h-3.8v4h-1.9C-42.2,491.5-42.2,479.1-42.2,479.1z"/>
		<path id="XMLID_619_" class="st1" d="M-34.5,479.1h5.7v1.9h-3.8v4.6h3.8v1.9h-3.8v2.2h3.8v1.9h-5.7V479.1z"/>
		<path id="XMLID_617_" class="st1" d="M-18,488.9v2.2c-0.7,0.3-1.5,0.4-2.3,0.4c-0.9,0-1.7-0.2-2.5-0.5c-0.8-0.3-1.4-0.8-2-1.3
			c-0.6-0.6-1-1.2-1.4-2c-0.3-0.8-0.5-1.6-0.5-2.4c0-0.9,0.2-1.7,0.5-2.4s0.8-1.4,1.4-2s1.3-1,2-1.3c0.8-0.3,1.6-0.5,2.5-0.5
			c0.8,0,1.6,0.1,2.3,0.4v2.2c-0.2-0.1-0.4-0.2-0.7-0.3c-0.5-0.2-1.1-0.3-1.7-0.3s-1.2,0.1-1.7,0.3c-0.5,0.2-1,0.5-1.4,0.9
			c-0.4,0.4-0.7,0.8-0.9,1.4c-0.2,0.5-0.3,1.1-0.3,1.7s0.1,1.2,0.3,1.7c0.2,0.5,0.5,1,0.9,1.4c0.4,0.4,0.9,0.7,1.4,0.9
			c0.5,0.2,1.1,0.3,1.7,0.3s1.2-0.1,1.7-0.3C-18.4,489.2-18.2,489.1-18,488.9z"/>
		<path id="XMLID_615_" class="st1" d="M-16,479.1h8.1v2H-11v10.4h-1.9v-10.4H-16V479.1z"/>
		<path id="XMLID_613_" class="st1" d="M-5.9,479.1H-4v12.5h-1.9V479.1z"/>
		<path id="XMLID_611_" class="st1" d="M8,479.1l-5,13l-5-13h2l3,7.7l3-7.7H8z"/>
		<path id="XMLID_609_" class="st1" d="M10,479.1h1.9v12.5H10V479.1z"/>
		<path id="XMLID_564_" class="st1" d="M13.9,491.5v-12.4h2.3c1.7,0,3.2,0.6,4.4,1.8c1.2,1.2,1.8,2.7,1.8,4.4c0,1.7-0.6,3.2-1.8,4.4
			c-1.2,1.2-2.7,1.8-4.4,1.8H13.9z M15.8,481v8.6h0.4c1.2,0,2.2-0.4,3.1-1.3c0.8-0.8,1.3-1.9,1.3-3c0-1.2-0.4-2.2-1.3-3.1
			c-0.8-0.8-1.9-1.3-3.1-1.3h-0.4V481z"/>
		<path id="XMLID_561_" class="st1" d="M25.7,489.8l-0.7,1.7h-2l5-13l5,13h-2l-0.7-1.7H25.7z M26.4,488h3.2l-1.6-4.1L26.4,488z"/>
		<path id="XMLID_558_" class="st1" d="M35,491.5v-12.4h2.3c1.7,0,3.2,0.6,4.4,1.8c1.2,1.2,1.8,2.7,1.8,4.4c0,1.7-0.6,3.2-1.8,4.4
			c-1.2,1.2-2.7,1.8-4.4,1.8H35z M36.9,481v8.6h0.4c1.2,0,2.2-0.4,3.1-1.3c0.8-0.8,1.3-1.9,1.3-3c0-1.2-0.4-2.2-1.3-3.1
			c-0.8-0.8-1.9-1.3-3.1-1.3h-0.4V481z"/>
	</g>
</g>
<g id="XMLID_134_">
	<g id="XMLID_405_">
		<path id="XMLID_430_" class="st1" d="M-67.4,314.5V302h2.9c0.8,0,1.5,0.3,2,0.8c0.6,0.6,0.8,1.2,0.8,2c0,0.8-0.3,1.4-0.8,2
			c0.6,0.2,1.1,0.5,1.6,1c0.8,0.8,1.1,1.7,1.1,2.8c0,1.1-0.4,2-1.1,2.8c-0.8,0.8-1.7,1.1-2.7,1.1H-67.4z M-65.5,306h1
			c0.3,0,0.5-0.1,0.7-0.3c0.2-0.2,0.3-0.5,0.3-0.8s-0.1-0.5-0.3-0.8c-0.2-0.1-0.4-0.2-0.7-0.2h-1V306z M-65.5,308.3v2.9v1.4h1.9
			c0.5,0,1-0.2,1.4-0.6s0.6-0.9,0.6-1.5s-0.2-1.1-0.6-1.5s-0.9-0.6-1.4-0.6h-1.9V308.3z"/>
		<path id="XMLID_427_" class="st1" d="M-55.9,312.8l-0.7,1.7h-2l5-13.1l5,13.1h-2l-0.7-1.7H-55.9z M-55.1,310.9h3.1l-1.6-4.2
			L-55.1,310.9z"/>
		<path id="XMLID_425_" class="st1" d="M-46.5,312.1c0.7,0.4,1.3,0.6,1.8,0.6s1-0.2,1.3-0.6c0.4-0.4,0.6-0.8,0.6-1.4V302h1.8v8.8
			c0,1.1-0.4,2-1.1,2.7c-0.7,0.7-1.6,1.1-2.7,1.1c-0.6,0-1.2-0.1-1.8-0.4L-46.5,312.1L-46.5,312.1z"/>
		<path id="XMLID_422_" class="st1" d="M-26.2,308.2c0,0.9-0.2,1.7-0.5,2.4c-0.3,0.8-0.8,1.4-1.4,2c-0.6,0.6-1.3,1-2,1.3
			c-0.8,0.3-1.6,0.5-2.5,0.5s-1.7-0.2-2.5-0.5s-1.4-0.8-2-1.3c-0.6-0.6-1-1.2-1.4-2c-0.3-0.7-0.5-1.5-0.5-2.4c0-0.9,0.2-1.7,0.5-2.5
			c0.3-0.8,0.8-1.4,1.4-2c0.6-0.6,1.3-1,2-1.3c0.8-0.3,1.6-0.5,2.5-0.5s1.7,0.2,2.5,0.5s1.4,0.8,2,1.3c0.6,0.6,1,1.2,1.4,2
			C-26.3,306.5-26.2,307.3-26.2,308.2z M-36.9,308.2c0,0.6,0.1,1.2,0.3,1.7c0.2,0.5,0.5,1,0.9,1.4s0.9,0.7,1.4,0.9
			c0.5,0.2,1.1,0.3,1.7,0.3s1.2-0.1,1.7-0.3c0.5-0.2,1-0.5,1.4-0.9s0.7-0.9,0.9-1.4c0.2-0.5,0.3-1.1,0.3-1.7c0-0.6-0.1-1.2-0.3-1.7
			c-0.2-0.5-0.5-1-0.9-1.4c-0.4-0.4-0.8-0.7-1.4-0.9c-0.6-0.2-1.1-0.3-1.7-0.3s-1.2,0.1-1.7,0.3c-0.5,0.2-1,0.5-1.4,0.9
			c-0.4,0.4-0.7,0.9-0.9,1.4S-36.9,307.6-36.9,308.2z"/>
		<path id="XMLID_420_" class="st1" d="M-21.5,314.5c-0.5,0-1-0.1-1.4-0.2s-0.9-0.4-1.3-0.7v-2.3c0.3,0.3,0.5,0.5,0.7,0.6
			s0.3,0.2,0.6,0.4c0.2,0.1,0.5,0.2,0.8,0.3c0.3,0.1,0.5,0.1,0.8,0.1c0.6,0,1-0.2,1.4-0.6c0.4-0.4,0.5-0.8,0.5-1.4
			c0-0.4-0.2-0.8-0.5-1.1c-0.3-0.3-0.8-0.6-1.5-0.9c-0.4-0.2-0.8-0.4-1.1-0.6c-0.3-0.2-0.6-0.4-0.8-0.7c-0.3-0.2-0.5-0.5-0.7-0.9
			s-0.2-0.8-0.2-1.3s0.1-0.9,0.3-1.3c0.2-0.4,0.5-0.7,0.9-1s0.8-0.5,1.2-0.7c0.4-0.2,0.9-0.3,1.4-0.3c0.4,0,0.7,0.1,1,0.2
			c0.3,0.1,0.7,0.3,1.1,0.5v2c-0.2-0.2-0.4-0.3-0.5-0.3s-0.2-0.1-0.4-0.2c-0.1-0.2-0.3-0.2-0.5-0.3s-0.4-0.1-0.7-0.1
			c-0.5,0-1,0.2-1.3,0.5c-0.3,0.3-0.6,0.7-0.6,1.2c0,0.4,0.2,0.7,0.5,1c0.3,0.2,0.8,0.5,1.4,0.8c0.4,0.2,0.8,0.4,1.1,0.6
			c0.3,0.2,0.6,0.4,0.8,0.6c0.3,0.3,0.5,0.6,0.7,1s0.3,0.9,0.3,1.4s-0.1,1-0.3,1.4c-0.2,0.5-0.5,0.8-0.9,1.2
			c-0.4,0.3-0.8,0.6-1.3,0.8C-20.5,314.4-21,314.5-21.5,314.5z"/>
		<path id="XMLID_418_" class="st1" d="M-58.7,332.7v2.2c-0.7,0.3-1.5,0.4-2.3,0.4c-0.9,0-1.7-0.2-2.5-0.5c-0.8-0.3-1.4-0.8-2-1.3
			c-0.6-0.6-1-1.2-1.4-2c-0.3-0.8-0.5-1.6-0.5-2.4c0-0.9,0.2-1.7,0.5-2.5c0.3-0.8,0.8-1.4,1.4-2c0.6-0.6,1.3-1,2-1.3
			c0.8-0.3,1.6-0.5,2.5-0.5c0.8,0,1.6,0.1,2.3,0.4v2.2c-0.2-0.1-0.4-0.2-0.7-0.3c-0.5-0.2-1.1-0.3-1.7-0.3c-0.6,0-1.2,0.1-1.7,0.3
			c-0.5,0.2-1,0.5-1.4,0.9s-0.7,0.9-0.9,1.4s-0.3,1.1-0.3,1.7s0.1,1.2,0.3,1.7s0.5,1,0.9,1.4c0.4,0.4,0.9,0.7,1.4,0.9
			c0.5,0.2,1.1,0.3,1.7,0.3c0.6,0,1.2-0.1,1.7-0.3C-59.1,333-58.9,332.9-58.7,332.7z"/>
		<path id="XMLID_415_" class="st1" d="M-44.8,329.1c0,0.9-0.2,1.7-0.5,2.4c-0.3,0.8-0.8,1.4-1.4,2s-1.3,1-2,1.3
			c-0.7,0.3-1.6,0.5-2.5,0.5s-1.7-0.2-2.5-0.5c-0.8-0.3-1.4-0.8-2-1.3c-0.6-0.6-1-1.2-1.4-2c-0.3-0.8-0.5-1.6-0.5-2.4
			c0-0.9,0.2-1.7,0.5-2.5c0.3-0.8,0.8-1.4,1.4-2c0.6-0.6,1.3-1,2-1.3c0.8-0.3,1.6-0.5,2.5-0.5s1.7,0.2,2.5,0.5
			c0.8,0.3,1.4,0.8,2,1.3c0.6,0.6,1,1.2,1.4,2C-44.9,327.4-44.8,328.2-44.8,329.1z M-55.5,329.1c0,0.6,0.1,1.2,0.3,1.7
			s0.5,1,0.9,1.4c0.4,0.4,0.9,0.7,1.4,0.9c0.5,0.2,1.1,0.3,1.7,0.3c0.6,0,1.2-0.1,1.7-0.3c0.5-0.2,1-0.5,1.4-0.9
			c0.4-0.4,0.7-0.9,0.9-1.4c0.2-0.5,0.3-1.1,0.3-1.7s-0.1-1.2-0.3-1.7c-0.2-0.5-0.5-1-0.9-1.4s-0.8-0.7-1.4-0.9
			c-0.6-0.2-1.1-0.3-1.7-0.3c-0.6,0-1.2,0.1-1.7,0.3c-0.5,0.2-1,0.5-1.4,0.9s-0.7,0.9-0.9,1.4C-55.3,327.9-55.5,328.5-55.5,329.1z"
			/>
		<path id="XMLID_413_" class="st1" d="M-40,335.4c-0.5,0-1-0.1-1.4-0.2c-0.4-0.1-0.9-0.4-1.3-0.7v-2.3c0.3,0.3,0.5,0.5,0.7,0.6
			s0.3,0.2,0.6,0.4c0.2,0.1,0.5,0.2,0.8,0.3c0.3,0.1,0.5,0.1,0.8,0.1c0.6,0,1-0.2,1.4-0.6s0.5-0.8,0.5-1.4c0-0.4-0.2-0.8-0.5-1.1
			c-0.3-0.3-0.9-0.6-1.6-0.9c-0.4-0.2-0.8-0.4-1.1-0.6c-0.3-0.2-0.6-0.4-0.8-0.7c-0.3-0.3-0.5-0.6-0.6-0.9c-0.2-0.4-0.2-0.8-0.2-1.3
			s0.1-0.9,0.3-1.3c0.2-0.4,0.5-0.8,0.8-1.1c0.4-0.3,0.8-0.5,1.2-0.7c0.5-0.2,0.9-0.3,1.4-0.3c0.4,0,0.7,0.1,1,0.2s0.7,0.3,1.1,0.5
			v2c-0.2-0.2-0.4-0.3-0.5-0.3s-0.2-0.1-0.4-0.2c-0.2-0.1-0.3-0.2-0.6-0.2c-0.2-0.1-0.4-0.1-0.7-0.1c-0.5,0-1,0.2-1.3,0.5
			c-0.3,0.3-0.5,0.7-0.5,1.2c0,0.4,0.2,0.7,0.5,1c0.3,0.3,0.8,0.5,1.4,0.8c0.4,0.2,0.8,0.4,1.1,0.6c0.3,0.2,0.6,0.4,0.8,0.6
			c0.2,0.2,0.5,0.6,0.7,1s0.3,0.9,0.3,1.4s-0.1,1-0.3,1.4s-0.5,0.8-0.9,1.2c-0.4,0.3-0.8,0.6-1.3,0.8C-39,335.3-39.5,335.4-40,335.4
			z"/>
		<path id="XMLID_411_" class="st1" d="M-34.5,322.8h8.1v2h-3.1v10.5h-1.9v-10.5h-3.1V322.8z"/>
		<path id="XMLID_408_" class="st1" d="M-13.2,329.1c0,0.9-0.2,1.7-0.5,2.4c-0.3,0.8-0.8,1.4-1.4,2s-1.3,1-2,1.3
			c-0.8,0.3-1.6,0.5-2.5,0.5s-1.7-0.2-2.5-0.5c-0.8-0.3-1.4-0.8-2-1.3c-0.6-0.6-1-1.2-1.4-2c-0.3-0.8-0.5-1.6-0.5-2.4
			c0-0.9,0.2-1.7,0.5-2.5c0.3-0.8,0.8-1.4,1.4-2s1.3-1,2-1.3c0.7-0.3,1.6-0.5,2.5-0.5s1.7,0.2,2.5,0.5c0.8,0.3,1.4,0.8,2,1.3
			c0.6,0.6,1,1.2,1.4,2C-13.3,327.4-13.2,328.2-13.2,329.1z M-23.9,329.1c0,0.6,0.1,1.2,0.3,1.7c0.2,0.5,0.5,1,0.9,1.4
			c0.4,0.4,0.9,0.7,1.4,0.9c0.5,0.2,1.1,0.3,1.7,0.3s1.2-0.1,1.7-0.3c0.5-0.2,1-0.5,1.4-0.9c0.4-0.4,0.7-0.9,0.9-1.4
			c0.2-0.5,0.3-1.1,0.3-1.7s-0.1-1.2-0.3-1.7s-0.5-1-0.9-1.4s-0.8-0.7-1.4-0.9c-0.6-0.2-1.1-0.3-1.7-0.3s-1.2,0.1-1.7,0.3
			c-0.5,0.2-1,0.5-1.4,0.9s-0.7,0.9-0.9,1.4S-23.9,328.5-23.9,329.1z"/>
		<path id="XMLID_406_" class="st1" d="M-8.4,335.4c-0.5,0-1-0.1-1.4-0.2s-0.9-0.4-1.3-0.7v-2.3c0.3,0.3,0.5,0.5,0.7,0.6
			s0.3,0.2,0.6,0.4c0.2,0.1,0.5,0.2,0.8,0.3c0.3,0.1,0.5,0.1,0.8,0.1c0.6,0,1-0.2,1.4-0.6s0.5-0.8,0.5-1.4c0-0.4-0.2-0.8-0.5-1.1
			c-0.3-0.3-0.8-0.6-1.5-0.9c-0.4-0.2-0.8-0.4-1.1-0.6c-0.3-0.2-0.6-0.4-0.8-0.7c-0.3-0.3-0.5-0.6-0.6-0.9c-0.2-0.4-0.2-0.8-0.2-1.3
			s0.1-0.9,0.3-1.3s0.5-0.8,0.8-1.1c0.4-0.3,0.8-0.5,1.2-0.7c0.5-0.2,0.9-0.3,1.4-0.3c0.4,0,0.7,0.1,1,0.2s0.7,0.3,1.1,0.5v2
			c-0.2-0.2-0.4-0.3-0.5-0.3s-0.2-0.1-0.4-0.2s-0.3-0.2-0.6-0.2c-0.2-0.1-0.4-0.1-0.7-0.1c-0.5,0-1,0.2-1.3,0.5
			c-0.3,0.3-0.5,0.7-0.5,1.2c0,0.4,0.2,0.7,0.5,1c0.3,0.2,0.8,0.5,1.4,0.8c0.4,0.2,0.8,0.4,1.1,0.6c0.3,0.2,0.6,0.4,0.8,0.6
			c0.3,0.3,0.5,0.6,0.7,1s0.3,0.9,0.3,1.4s-0.1,1-0.3,1.4c-0.2,0.5-0.5,0.8-0.9,1.2c-0.4,0.3-0.8,0.6-1.3,0.8
			C-7.4,335.3-7.9,335.4-8.4,335.4z"/>
	</g>
</g>
<polyline id="XMLID_144_" class="st2" points="-108.6,470.9 -97.7,485.1 -72.6,462.8 "/>
<g id="XMLID_131_">
	<g id="XMLID_133_">
		<g id="XMLID_192_">
			<path id="XMLID_193_" class="st1" d="M-101.4,313.6c0.8,0.3,1.5,0.6,2,0.8c0.8,0.4,1.7,0.9,2.5,1.4c0.8,0.6,1.5,1.3,1.9,2.2
				c0.5,0.9,0.7,1.9,0.8,3.1c0,1.1-0.3,2.1-0.9,3.1s-1.5,1.9-2.5,2.7c-1.1,0.8-2.4,1.4-3.8,1.8v9.3h-4.8v-8.6
				c-1.5,0-2.8-0.2-3.9-0.5c-1.2-0.3-2.5-0.8-3.9-1.6v-4.9c0.7,0.6,1.3,1,1.8,1.3c0.5,0.3,1.1,0.5,1.7,0.8c0.8,0.4,1.5,0.6,2.4,0.8
				c0.6,0.2,1.3,0.3,1.9,0.3V316c-1.1-0.4-2-0.8-2.7-1.2c-0.9-0.4-1.7-0.9-2.5-1.5c-0.8-0.6-1.4-1.3-1.9-2.1
				c-0.5-0.8-0.7-1.7-0.7-2.8c0.1-1,0.4-2,1-2.9c0.7-0.8,1.5-1.6,2.5-2.3c1-0.7,2.2-1.2,3.6-1.6c0.2-0.1,0.4-0.1,0.6-0.2v-2.5h4.9
				v2.2c0.6,0.1,1.3,0.2,1.8,0.3c0.9,0.2,1.9,0.6,3,1.1v4.1c-0.6-0.3-1-0.5-1.3-0.6c-0.3-0.1-0.6-0.2-1.1-0.4
				c-0.5-0.2-1-0.4-1.7-0.5c-0.3,0-0.5-0.1-0.8-0.1L-101.4,313.6L-101.4,313.6z M-106.2,305.7c-0.2,0.1-0.4,0.2-0.5,0.3
				c-1.2,0.8-1.7,1.7-1.7,2.8c0,1,0.5,1.8,1.4,2.4c0.2,0.1,0.5,0.3,0.8,0.5V305.7z M-101.4,324.1c1-0.9,1.6-2,1.6-3.2
				c0-1-0.5-1.9-1.4-2.6l-0.1-0.1L-101.4,324.1L-101.4,324.1z"/>
		</g>
	</g>
	<polygon id="XMLID_132_" class="st1" points="-110.4,335.7 -104.8,343.1 -98,335.7 	"/>
</g>
<g id="XMLID_116_">
	<path id="XMLID_123_" class="st1" d="M85,384.8c5.5,0,10.2,1.6,14.5,4c4.4,2.5,8.4,5.7,11.8,9.5c1,1.1,1,2.1,0,3.1
		c-4.2,4.6-9,8.4-14.7,11c-7.8,3.6-15.6,3.4-23.3-0.4c-5.3-2.6-10-6.2-13.9-10.6c-1-1.1-1-2.1,0-3.2c5.3-5.7,11.4-10.2,19-12.5
		C80.7,385.1,83.1,384.9,85,384.8z M85.8,389.7c-5.3-0.4-10.3,4.1-10.7,9.5c-0.4,5.9,3.8,10.7,9.8,11.1c5.3,0.4,10.3-4.1,10.7-9.5
		C96,394.8,91.8,390.1,85.8,389.7z"/>
	<path id="XMLID_120_" class="st3" d="M85.8,389.7c6,0.4,10.2,5.2,9.8,11.1c-0.3,5.4-5.3,9.8-10.7,9.5c-6-0.4-10.2-5.2-9.8-11.1
		C75.5,393.7,80.5,389.3,85.8,389.7z M85.4,403.3c1.9,0,3.4-1.5,3.4-3.4c0-1.8-1.5-3.3-3.4-3.4c-1.9,0-3.4,1.5-3.5,3.3
		C82,401.8,83.5,403.3,85.4,403.3z"/>
	<path id="XMLID_117_" class="st1" d="M85.4,403.3c-1.9,0-3.4-1.5-3.4-3.4s1.5-3.3,3.5-3.3c1.8,0,3.4,1.5,3.4,3.4
		C88.8,401.8,87.3,403.3,85.4,403.3z"/>
</g>
<g id="XMLID_111_">
	<g id="XMLID_145_">
		<g id="XMLID_565_">
			<path id="XMLID_604_" class="st1" d="M-65.5,388.9v3.4h-1.9V380h1.9h0.3c1.2,0,2.2,0.4,3,1.3c0.8,0.9,1.2,1.9,1.2,3.2
				c0,1.2-0.4,2.3-1.2,3.2s-1.8,1.3-3,1.3C-65.3,389-65.4,389-65.5,388.9z M-65.5,381.8v5.3c0.1,0,0.2,0,0.3,0
				c0.7,0,1.3-0.3,1.8-0.8s0.7-1.1,0.7-1.9s-0.2-1.4-0.7-1.9s-1.1-0.8-1.8-0.8h-0.3V381.8z"/>
			<path id="XMLID_602_" class="st1" d="M-53.2,388.6v-8.7h1.9v8.7c0,1-0.4,1.9-1.1,2.7c-0.7,0.7-1.6,1.1-2.7,1.1
				c-1,0-1.9-0.4-2.7-1.1c-0.7-0.7-1.1-1.6-1.1-2.7v-8.7h1.9v8.7c0,0.5,0.2,1,0.6,1.3c0.4,0.4,0.8,0.6,1.3,0.6s1-0.2,1.3-0.6
				C-53.4,389.6-53.2,389.1-53.2,388.6z"/>
			<path id="XMLID_598_" class="st1" d="M-49.3,392.4V380h2.9c0.8,0,1.5,0.3,2,0.8c0.6,0.6,0.8,1.2,0.8,2c0,0.8-0.3,1.4-0.8,2
				c0.6,0.2,1.1,0.5,1.6,1c0.8,0.8,1.1,1.7,1.1,2.7s-0.4,2-1.1,2.7c-0.8,0.8-1.7,1.1-2.7,1.1h-3.8V392.4z M-47.4,384h1
				c0.3,0,0.5-0.1,0.7-0.3c0.2-0.2,0.3-0.5,0.3-0.8c0-0.3-0.1-0.5-0.3-0.7c-0.3-0.2-0.5-0.3-0.8-0.3h-1L-47.4,384L-47.4,384z
				 M-47.4,386.3v2.8v1.4h1.9c0.5,0,1-0.2,1.4-0.6s0.6-0.9,0.6-1.5s-0.2-1.1-0.6-1.5s-0.9-0.6-1.4-0.6
				C-45.5,386.3-47.4,386.3-47.4,386.3z"/>
			<path id="XMLID_596_" class="st1" d="M-39.7,380h1.9v10.5h4.3v1.9h-6.2C-39.7,392.4-39.7,380-39.7,380z"/>
			<path id="XMLID_594_" class="st1" d="M-31.5,379.9h1.9v12.5h-1.9V379.9z"/>
			<path id="XMLID_592_" class="st1" d="M-18.9,389.8v2.2c-0.7,0.3-1.5,0.4-2.3,0.4c-0.9,0-1.7-0.2-2.5-0.5s-1.4-0.8-2-1.3
				c-0.6-0.6-1-1.2-1.4-2c-0.3-0.8-0.5-1.6-0.5-2.4c0-0.9,0.2-1.7,0.5-2.4s0.8-1.4,1.4-2s1.3-1,2-1.3c0.7-0.3,1.6-0.5,2.5-0.5
				c0.8,0,1.6,0.1,2.3,0.4v2.2c-0.2-0.1-0.4-0.2-0.7-0.3c-0.4-0.3-1-0.4-1.6-0.4s-1.2,0.1-1.7,0.3c-0.5,0.2-1,0.5-1.4,0.9
				s-0.7,0.8-0.9,1.4c-0.2,0.5-0.3,1.1-0.3,1.7c0,0.6,0.1,1.2,0.3,1.7c0.2,0.5,0.5,1,0.9,1.4c0.4,0.4,0.9,0.7,1.4,0.9
				c0.5,0.2,1.1,0.3,1.7,0.3s1.2-0.1,1.7-0.3C-19.3,390.1-19.1,389.9-18.9,389.8z"/>
			<path id="XMLID_589_" class="st1" d="M-5,386.2c0,0.9-0.2,1.7-0.5,2.4c-0.3,0.8-0.8,1.4-1.4,2s-1.3,1-2,1.3
				c-0.7,0.3-1.6,0.5-2.5,0.5s-1.7-0.2-2.5-0.5c-0.8-0.3-1.4-0.8-2-1.3c-0.6-0.6-1-1.2-1.4-2c-0.3-0.8-0.5-1.6-0.5-2.4
				c0-0.9,0.2-1.7,0.5-2.4s0.8-1.4,1.4-2c0.6-0.6,1.3-1,2-1.3c0.7-0.3,1.6-0.5,2.5-0.5s1.7,0.2,2.5,0.5c0.8,0.3,1.4,0.8,2,1.3
				c0.6,0.6,1,1.2,1.4,2C-5.1,384.5-5,385.3-5,386.2z M-15.7,386.2c0,0.6,0.1,1.2,0.3,1.7c0.2,0.5,0.5,1,0.9,1.4
				c0.4,0.4,0.9,0.7,1.4,0.9c0.5,0.2,1.1,0.3,1.7,0.3s1.2-0.1,1.7-0.3c0.5-0.2,1-0.5,1.4-0.9c0.4-0.4,0.7-0.8,0.9-1.4
				s0.3-1.1,0.3-1.7c0-0.6-0.1-1.2-0.3-1.7s-0.5-1-0.9-1.4s-0.8-0.7-1.4-0.9c-0.6-0.2-1.1-0.3-1.7-0.3s-1.2,0.1-1.7,0.3
				c-0.5,0.2-1,0.5-1.4,0.9s-0.7,0.8-0.9,1.4C-15.6,385-15.7,385.6-15.7,386.2z"/>
			<path id="XMLID_587_" class="st1" d="M-64.6,413.1c-0.5,0-1-0.1-1.4-0.2s-0.9-0.4-1.3-0.7v-2.3c0.3,0.3,0.5,0.5,0.7,0.6
				c0.2,0.1,0.3,0.2,0.6,0.3c0.2,0.1,0.5,0.2,0.8,0.3c0.3,0.1,0.5,0.1,0.8,0.1c0.6,0,1-0.2,1.4-0.6s0.5-0.8,0.5-1.4
				c0-0.4-0.2-0.8-0.5-1.1c-0.3-0.3-0.8-0.6-1.5-0.9c-0.4-0.2-0.8-0.4-1.1-0.6c-0.3-0.2-0.6-0.4-0.8-0.6c-0.3-0.3-0.5-0.6-0.6-0.9
				c-0.2-0.4-0.2-0.8-0.2-1.3s0.1-0.9,0.3-1.3c0.2-0.4,0.5-0.8,0.8-1.1c0.4-0.3,0.8-0.5,1.2-0.7c0.5-0.2,0.9-0.3,1.4-0.3
				c0.4,0,0.7,0.1,1,0.2c0.3,0.1,0.7,0.3,1.1,0.5v1.9c-0.2-0.2-0.4-0.3-0.5-0.3s-0.2-0.1-0.4-0.2c-0.2-0.1-0.3-0.2-0.6-0.2
				c-0.2-0.1-0.4-0.1-0.7-0.1c-0.5,0-1,0.2-1.3,0.5c-0.4,0.3-0.5,0.7-0.5,1.1c0,0.4,0.2,0.7,0.5,1c0.3,0.2,0.8,0.5,1.4,0.8
				c0.4,0.2,0.8,0.4,1.1,0.6c0.3,0.2,0.6,0.4,0.8,0.6c0.3,0.3,0.5,0.6,0.7,1c0.2,0.4,0.3,0.9,0.3,1.4s-0.1,1-0.3,1.4
				s-0.5,0.8-0.9,1.2c-0.4,0.3-0.8,0.6-1.3,0.8C-63.6,413-64.1,413.1-64.6,413.1z"/>
			<path id="XMLID_585_" class="st1" d="M-58.6,400.7h5.7v1.9h-3.8v4.6h3.8v1.9h-3.8v2.2h3.8v1.9h-5.7V400.7z"/>
			<path id="XMLID_583_" class="st1" d="M-43.8,411.1V409h-1.3v-1.9h2.9v5.5c-0.7,0.3-1.5,0.4-2.3,0.4c-0.9,0-1.7-0.2-2.5-0.5
				c-0.8-0.3-1.4-0.8-2-1.3c-0.6-0.6-1-1.2-1.4-2c-0.3-0.8-0.5-1.6-0.5-2.4c0-0.9,0.2-1.7,0.5-2.4c0.3-0.7,0.8-1.4,1.4-2
				s1.3-1,2-1.3c0.8-0.3,1.6-0.5,2.5-0.5c0.8,0,1.6,0.1,2.3,0.4v2.2c-0.2-0.1-0.4-0.2-0.7-0.3c-0.5-0.2-1.1-0.3-1.7-0.3
				s-1.2,0.1-1.7,0.3c-0.5,0.2-1,0.5-1.4,0.9c-0.4,0.4-0.7,0.8-0.9,1.4c-0.2,0.5-0.3,1.1-0.3,1.7c0,0.6,0.1,1.2,0.3,1.7
				c0.2,0.5,0.5,1,0.9,1.4s0.9,0.7,1.4,0.9c0.5,0.2,1.1,0.3,1.7,0.3C-44.3,411.2-44,411.2-43.8,411.1z"/>
			<path id="XMLID_581_" class="st1" d="M-35.5,407.3l2.8-4.3l1.9-2.9v13h-1.9v-6.6l-2.8,4.3l-2.8-4.3v6.6h-1.9v-13l1.9,2.9
				L-35.5,407.3z"/>
			<path id="XMLID_579_" class="st1" d="M-28.8,400.7h5.8v1.9h-3.8v4.6h3.8v1.9h-3.8v2.2h3.8v1.9h-5.7v-12.5H-28.8z"/>
			<path id="XMLID_577_" class="st1" d="M-15.3,407.9v-7.3h1.9v13l-5.7-7.8v7.2H-21v-13L-15.3,407.9z"/>
			<path id="XMLID_575_" class="st1" d="M-11.4,400.6h8.1v2h-3.1V413h-1.9v-10.4h-3.1V400.6z"/>
			<path id="XMLID_572_" class="st1" d="M-1.4,411.4l-0.7,1.7h-2l5-13l5,13h-2l-0.7-1.7H-1.4z M-0.7,409.5h3.2l-1.6-4.1L-0.7,409.5z
				"/>
			<path id="XMLID_569_" class="st1" d="M7.9,413.1v-12.4h2.3c1.7,0,3.2,0.6,4.4,1.8c1.2,1.2,1.8,2.7,1.8,4.4c0,1.7-0.6,3.2-1.8,4.4
				s-2.7,1.8-4.4,1.8C10.2,413.1,7.9,413.1,7.9,413.1z M9.8,402.6v8.6h0.4c1.2,0,2.2-0.4,3.1-1.3c0.8-0.8,1.3-1.9,1.3-3
				c0-1.2-0.4-2.2-1.3-3.1c-0.8-0.8-1.9-1.3-3.1-1.3L9.8,402.6L9.8,402.6z"/>
			<path id="XMLID_566_" class="st1" d="M31.1,406.9c0,0.9-0.2,1.7-0.5,2.4c-0.3,0.8-0.8,1.4-1.4,2c-0.6,0.6-1.3,1-2,1.3
				c-0.7,0.3-1.6,0.5-2.5,0.5s-1.7-0.2-2.5-0.5c-0.8-0.3-1.4-0.8-2-1.3c-0.6-0.6-1-1.2-1.4-2c-0.3-0.8-0.5-1.6-0.5-2.4
				c0-0.9,0.2-1.7,0.5-2.4s0.8-1.4,1.4-2c0.6-0.6,1.3-1,2-1.3c0.7-0.3,1.6-0.5,2.5-0.5s1.7,0.2,2.5,0.5c0.8,0.3,1.4,0.8,2,1.3
				c0.6,0.6,1,1.2,1.4,2C30.9,405.2,31.1,406,31.1,406.9z M20.4,406.9c0,0.6,0.1,1.2,0.3,1.7s0.5,1,0.9,1.4c0.4,0.4,0.9,0.7,1.4,0.9
				c0.5,0.2,1.1,0.3,1.7,0.3c0.6,0,1.2-0.1,1.7-0.3c0.5-0.2,1-0.5,1.4-0.9c0.4-0.4,0.7-0.8,0.9-1.4c0.2-0.6,0.3-1.1,0.3-1.7
				s-0.1-1.2-0.3-1.7s-0.5-1-0.9-1.4c-0.4-0.4-0.8-0.7-1.4-0.9s-1.1-0.3-1.7-0.3c-0.6,0-1.2,0.1-1.7,0.3s-1,0.5-1.4,0.9
				c-0.4,0.4-0.7,0.8-0.9,1.4C20.5,405.7,20.4,406.3,20.4,406.9z"/>
		</g>
	</g>
	<line id="XMLID_112_" class="st4" x1="-55.4" y1="379.5" x2="-51.4" y2="376.2"/>
</g>
<g id="XMLID_101_">
	<path id="XMLID_106_" class="st3" d="M85.2,332.9c1,0,1.9,0,2.7,0c0.2,0,0.4-0.2,0.5-0.4c0.3-0.7,0.6-1.4,0.7-2.2
		c0.3-1.3,0.5-2.7,1.4-3.8c1.2-1.5,2.2-3.1,2.9-4.8c1.3-3.2,2-6.4,1.4-9.9c-1.2-7.2-8.4-11.7-15.4-9.8c-6.2,1.7-10.1,7.6-9.2,14.5
		c0.5,3.6,1.9,6.7,4.1,9.5c0.9,1.2,1.4,2.5,1.7,3.9c0.2,0.8,0.4,1.7,0.7,2.5c0.1,0.2,0.3,0.4,0.4,0.4c0.9,0,1.9,0,2.9,0
		c0-0.1,0-0.2,0-0.3c-0.9-4-1.7-8-2.6-12.1c-0.1-0.4-0.1-0.8,0.3-1.1c0.4-0.3,0.8-0.2,1.1,0.1c0.7,0.5,1.4,0.9,2.1,1.4
		c0.3-0.8,0.7-1.6,1-2.3c0.2-0.4,0.4-0.7,0.8-0.7c0.5,0,0.7,0.3,0.8,0.7c0.3,0.8,0.6,1.5,0.9,2.3c0.7-0.5,1.4-1,2.1-1.5
		c0.3-0.2,0.7-0.3,1,0c0.2,0.2,0.2,0.6,0.3,0.9c0,0.1,0,0.2,0,0.3c-0.5,2.5-1.1,5-1.6,7.6C85.9,329.7,85.5,331.3,85.2,332.9z
		 M85.8,322.1c-0.4,0.3-0.8,0.6-1.1,0.8c-0.7,0.5-1.2,0.3-1.5-0.5c-0.2-0.4-0.3-0.8-0.5-1.3c-0.1,0.3-0.2,0.5-0.3,0.7
		c-0.1,0.2-0.2,0.5-0.3,0.7c-0.3,0.7-0.8,0.8-1.4,0.4c-0.4-0.3-0.8-0.5-1.3-0.9c0.8,3.7,1.6,7.3,2.3,10.8c0.6,0,1.2,0,1.8,0
		C84.2,329.3,85,325.7,85.8,322.1z M87.9,336.8c-3.6,0-7,0-10.6,0c0.2,0.3,0.3,0.6,0.5,0.8c0.8,1.2,2,1.7,3.3,2
		c0.3,0.1,0.4,0.1,0.5,0.4c0.3,0.7,1.1,1,1.7,0.5c0.3-0.2,0.4-0.5,0.7-0.9C85.6,339.4,87.1,338.7,87.9,336.8z M77.1,335.7
		c3.7,0,7.3,0,11,0c0-0.6,0-1.1,0-1.6c-3.7,0-7.3,0-11,0C77.1,334.6,77.1,335.1,77.1,335.7z"/>
	<path id="XMLID_105_" class="st1" d="M85.2,332.9c0.3-1.6,0.7-3.2,1-4.7c0.5-2.5,1.1-5,1.6-7.6c0-0.1,0.1-0.2,0-0.3
		c-0.1-0.3-0.1-0.7-0.3-0.9c-0.3-0.3-0.6-0.2-1,0c-0.7,0.5-1.4,1-2.1,1.5c-0.3-0.8-0.6-1.5-0.9-2.3c-0.2-0.4-0.4-0.7-0.8-0.7
		c-0.4,0-0.7,0.3-0.8,0.7c-0.3,0.8-0.6,1.5-1,2.3c-0.7-0.5-1.4-1-2.1-1.4c-0.4-0.3-0.7-0.4-1.1-0.1c-0.4,0.3-0.4,0.6-0.3,1.1
		c0.9,4,1.7,8,2.6,12.1c0,0.1,0,0.1,0,0.3c-1,0-1.9,0-2.9,0c-0.2,0-0.4-0.2-0.4-0.4c-0.3-0.8-0.5-1.6-0.7-2.5
		c-0.3-1.4-0.8-2.7-1.7-3.9c-2.2-2.8-3.6-6-4.1-9.5c-0.9-6.9,3-12.8,9.2-14.5c7-1.9,14.2,2.7,15.4,9.8c0.6,3.4-0.1,6.7-1.4,9.9
		c-0.7,1.7-1.7,3.3-2.9,4.8c-0.9,1.1-1.1,2.5-1.4,3.8c-0.2,0.7-0.5,1.5-0.7,2.2c-0.1,0.2-0.3,0.4-0.5,0.4
		C87,332.9,86.2,332.9,85.2,332.9z"/>
	<path id="XMLID_104_" class="st1" d="M85.8,322.1c-0.8,3.7-1.6,7.2-2.3,10.8c-0.6,0-1.1,0-1.8,0c-0.8-3.6-1.5-7.1-2.3-10.8
		c0.5,0.3,0.9,0.6,1.3,0.9c0.6,0.4,1.1,0.3,1.4-0.4c0.1-0.2,0.2-0.5,0.3-0.7s0.2-0.4,0.3-0.7c0.2,0.5,0.3,0.9,0.5,1.3
		c0.3,0.8,0.8,0.9,1.5,0.5C85,322.6,85.4,322.4,85.8,322.1z"/>
	<path id="XMLID_103_" class="st1" d="M87.9,336.8c-0.8,1.9-2.3,2.6-4,2.9c-0.3,0.3-0.4,0.7-0.7,0.9c-0.6,0.5-1.4,0.2-1.7-0.5
		c-0.1-0.3-0.2-0.3-0.5-0.4c-1.3-0.3-2.5-0.8-3.3-2c-0.2-0.2-0.3-0.5-0.5-0.8C80.9,336.8,84.3,336.8,87.9,336.8z"/>
	<path id="XMLID_102_" class="st1" d="M77.1,335.7c0-0.6,0-1.1,0-1.6c3.7,0,7.3,0,11,0c0,0.5,0,1,0,1.6
		C84.5,335.7,80.8,335.7,77.1,335.7z"/>
</g>
<g id="XMLID_93_">
	<circle id="XMLID_100_" class="st1" cx="90.7" cy="475.6" r="20.3"/>
	<polyline id="XMLID_99_" class="st5" points="89.9,460.6 89.9,476.6 101.4,482.3 	"/>
	<circle id="XMLID_98_" class="st6" cx="89.9" cy="490.8" r="1.5"/>
	<circle id="XMLID_97_" class="st6" cx="104.7" cy="475.6" r="1.5"/>
	<circle id="XMLID_96_" class="st6" cx="75.6" cy="475.6" r="1.5"/>
</g>
<g id="XMLID_88_">
	<g id="XMLID_156_">
		<g id="XMLID_893_">
			<path id="XMLID_925_" class="st1" d="M123.9,460.2h1.9v10.5h3.9v1.9h-5.8L123.9,460.2L123.9,460.2z"/>
			<path id="XMLID_922_" class="st1" d="M134.4,470.9l-0.7,1.7h-2l5-13l5,13h-2l-0.7-1.7H134.4z M135.2,469h3.2l-1.6-4.1L135.2,469z
				"/>
			<path id="XMLID_919_" class="st1" d="M148.8,468.9l1.8,3.7h-2l-1.3-2.9c-0.4,0.1-0.9,0.2-1.4,0.2h-0.1v2.7h-1.9v-12.5h2
				c1.4,0,2.5,0.5,3.5,1.4c1,1,1.4,2.1,1.4,3.5c0,1.4-0.5,2.5-1.4,3.5C149.1,468.6,149,468.8,148.8,468.9z M145.6,468h0.1
				c0.8,0,1.6-0.3,2.2-0.9s0.9-1.3,0.9-2.2c0-0.9-0.3-1.6-0.9-2.2c-0.6-0.6-1.3-0.9-2.2-0.9h-0.1V468z"/>
			<path id="XMLID_917_" class="st1" d="M159.8,470.6v-2.1h-1.3v-1.9h2.9v5.5c-0.7,0.3-1.5,0.4-2.3,0.4c-0.9,0-1.7-0.2-2.5-0.5
				c-0.8-0.3-1.4-0.8-2-1.3c-0.6-0.6-1-1.2-1.4-2c-0.3-0.8-0.5-1.6-0.5-2.4c0-0.9,0.2-1.7,0.5-2.4s0.8-1.4,1.4-2s1.3-1,2-1.3
				c0.7-0.3,1.6-0.5,2.5-0.5c0.8,0,1.6,0.1,2.3,0.4v2.2c-0.2-0.1-0.4-0.2-0.7-0.3c-0.5-0.2-1.1-0.3-1.7-0.3s-1.2,0.1-1.7,0.3
				c-0.5,0.2-1,0.5-1.4,0.9c-0.4,0.4-0.7,0.8-0.9,1.4c-0.2,0.5-0.3,1.1-0.3,1.7s0.1,1.2,0.3,1.7c0.2,0.5,0.5,1,0.9,1.4
				c0.4,0.4,0.9,0.7,1.4,0.9c0.5,0.2,1.1,0.3,1.7,0.3C159.3,470.6,159.6,470.6,159.8,470.6z"/>
			<path id="XMLID_914_" class="st1" d="M166.1,470.9l-0.7,1.7h-2l5-13l5,13h-2l-0.7-1.7H166.1z M166.9,469h3.2l-1.6-4.1L166.9,469z
				"/>
			<path id="XMLID_911_" class="st1" d="M181.4,472.6v-12.4h2.3c1.7,0,3.2,0.6,4.4,1.8c1.2,1.2,1.8,2.7,1.8,4.4s-0.6,3.2-1.8,4.4
				s-2.7,1.8-4.4,1.8H181.4z M183.2,462v8.6h0.4c1.2,0,2.2-0.4,3.1-1.3c0.8-0.8,1.3-1.9,1.3-3c0-1.2-0.4-2.2-1.3-3.1
				c-0.8-0.8-1.9-1.3-3.1-1.3h-0.4V462z"/>
			<path id="XMLID_909_" class="st1" d="M197.5,468.8v-8.7h1.9v8.7c0,1-0.4,1.9-1.1,2.7c-0.7,0.7-1.6,1.1-2.7,1.1s-1.9-0.4-2.7-1.1
				c-0.7-0.7-1.1-1.6-1.1-2.7v-8.7h1.9v8.7c0,0.5,0.2,1,0.6,1.3c0.4,0.4,0.8,0.6,1.3,0.6s1-0.2,1.3-0.6
				C197.3,469.7,197.5,469.3,197.5,468.8z"/>
			<path id="XMLID_906_" class="st1" d="M206.5,468.9l1.8,3.7h-2l-1.3-2.9c-0.4,0.1-0.9,0.2-1.4,0.2h-0.1v2.7h-1.9v-12.5h2
				c1.4,0,2.5,0.5,3.5,1.4c1,1,1.4,2.1,1.4,3.5c0,1.4-0.5,2.5-1.4,3.5C206.8,468.6,206.6,468.8,206.5,468.9z M203.3,468h0.1
				c0.8,0,1.6-0.3,2.2-0.9s0.9-1.3,0.9-2.2c0-0.9-0.3-1.6-0.9-2.2s-1.3-0.9-2.2-0.9h-0.1V468z"/>
			<path id="XMLID_903_" class="st1" d="M213.1,470.9l-0.7,1.7h-2l5-13l5,13h-2l-0.7-1.7H213.1z M213.8,469h3.2l-1.6-4.1L213.8,469z
				"/>
			<path id="XMLID_901_" class="st1" d="M229.5,470v2.2c-0.7,0.3-1.5,0.4-2.3,0.4c-0.9,0-1.7-0.2-2.5-0.5c-0.8-0.3-1.4-0.8-2-1.3
				c-0.6-0.6-1-1.2-1.4-2c-0.3-0.8-0.5-1.6-0.5-2.4c0-0.9,0.2-1.7,0.5-2.4s0.8-1.4,1.4-2s1.3-1,2-1.3c0.8-0.3,1.6-0.5,2.5-0.5
				c0.8,0,1.6,0.1,2.3,0.4v2.2c-0.2-0.1-0.4-0.2-0.7-0.3c-0.5-0.2-1.1-0.3-1.7-0.3s-1.2,0.1-1.7,0.3c-0.5,0.2-1,0.5-1.4,0.9
				c-0.4,0.4-0.7,0.8-0.9,1.4c-0.2,0.6-0.3,1.1-0.3,1.7s0.1,1.2,0.3,1.7s0.5,1,0.9,1.4c0.4,0.4,0.9,0.7,1.4,0.9
				c0.5,0.2,1.1,0.3,1.7,0.3s1.2-0.1,1.7-0.3C229.1,470.2,229.3,470.1,229.5,470z"/>
			<path id="XMLID_899_" class="st1" d="M231.5,460.1h1.9v12.5h-1.9V460.1z"/>
			<path id="XMLID_896_" class="st1" d="M248.2,466.3c0,0.9-0.2,1.7-0.5,2.4c-0.3,0.8-0.8,1.4-1.4,2s-1.3,1-2,1.3
				c-0.8,0.3-1.6,0.5-2.5,0.5s-1.7-0.2-2.5-0.5c-0.8-0.3-1.4-0.8-2-1.3c-0.6-0.6-1-1.2-1.4-2c-0.3-0.8-0.5-1.6-0.5-2.4
				c0-0.9,0.2-1.7,0.5-2.4s0.8-1.4,1.4-2s1.3-1,2-1.3c0.7-0.3,1.6-0.5,2.5-0.5s1.7,0.2,2.5,0.5c0.8,0.3,1.4,0.8,2,1.3
				c0.6,0.6,1,1.2,1.4,2C248,464.7,248.2,465.5,248.2,466.3z M237.5,466.3c0,0.6,0.1,1.2,0.3,1.7s0.5,1,0.9,1.4
				c0.4,0.4,0.9,0.7,1.4,0.9c0.5,0.2,1.1,0.3,1.7,0.3s1.2-0.1,1.7-0.3c0.5-0.2,1-0.5,1.4-0.9c0.4-0.4,0.7-0.8,0.9-1.4
				c0.2-0.6,0.3-1.1,0.3-1.7s-0.1-1.2-0.3-1.7s-0.5-1-0.9-1.4c-0.4-0.4-0.8-0.7-1.4-0.9c-0.6-0.2-1.1-0.3-1.7-0.3s-1.2,0.1-1.7,0.3
				c-0.5,0.2-1,0.5-1.4,0.9c-0.4,0.4-0.7,0.8-0.9,1.4C237.6,465.2,237.5,465.7,237.5,466.3z"/>
			<path id="XMLID_894_" class="st1" d="M255.9,467.4v-7.3h1.9v13l-5.7-7.8v7.2h-1.9v-13L255.9,467.4z"/>
		</g>
	</g>
	<line id="XMLID_89_" class="st4" x1="245.6" y1="457.8" x2="249.6" y2="454.5"/>
</g>
<g id="XMLID_90_">
	<g id="XMLID_1225_">
		<path id="XMLID_1280_" class="st0" d="M130.6,483.9c0,0.7-0.1,1.3-0.3,1.9c-0.2,0.5-0.5,1-0.9,1.3c-0.4,0.3-0.9,0.6-1.5,0.8
			s-1.2,0.3-1.9,0.3c-0.3,0-0.7,0-1.1,0c-0.4,0-0.8-0.1-1.1-0.2v-8.1c0.3-0.1,0.7-0.1,1.1-0.2c0.4,0,0.8,0,1.1,0
			c0.7,0,1.3,0.1,1.9,0.3s1.1,0.4,1.5,0.8c0.4,0.3,0.7,0.8,0.9,1.3C130.5,482.5,130.6,483.2,130.6,483.9z M126.1,487.1
			c1.1,0,1.9-0.3,2.5-0.8c0.5-0.6,0.8-1.4,0.8-2.4s-0.3-1.8-0.8-2.4c-0.5-0.6-1.4-0.8-2.5-0.8c-0.3,0-0.6,0-0.8,0s-0.3,0-0.4,0v6.4
			c0.1,0,0.2,0,0.4,0S125.7,487.1,126.1,487.1z"/>
		<path id="XMLID_1277_" class="st0" d="M131.8,484.9c0-0.6,0.1-1,0.2-1.4s0.4-0.8,0.6-1c0.3-0.3,0.6-0.5,0.9-0.6
			c0.3-0.1,0.7-0.2,1.1-0.2c0.8,0,1.5,0.3,1.9,0.8s0.7,1.3,0.7,2.4c0,0,0,0.1,0,0.2c0,0.1,0,0.1,0,0.2H133c0,0.6,0.2,1.1,0.6,1.5
			s0.8,0.5,1.5,0.5c0.4,0,0.7,0,1-0.1s0.5-0.1,0.6-0.2l0.2,0.9c-0.1,0.1-0.4,0.1-0.7,0.2c-0.3,0.1-0.7,0.1-1.2,0.1s-1-0.1-1.4-0.2
			c-0.4-0.2-0.7-0.4-1-0.7s-0.4-0.6-0.6-1C131.9,485.8,131.8,485.4,131.8,484.9z M136.1,484.3c0-0.5-0.1-0.9-0.4-1.2
			c-0.3-0.3-0.6-0.5-1.1-0.5c-0.3,0-0.5,0.1-0.7,0.2s-0.4,0.2-0.5,0.4s-0.2,0.3-0.3,0.6c-0.1,0.2-0.1,0.4-0.2,0.6h3.2V484.3z"/>
		<path id="XMLID_1275_" class="st0" d="M140.3,487.2c0.5,0,0.8-0.1,1-0.2c0.2-0.1,0.3-0.3,0.3-0.6s-0.1-0.5-0.3-0.6
			s-0.6-0.3-1.1-0.5c-0.2-0.1-0.5-0.2-0.7-0.3c-0.2-0.1-0.4-0.2-0.6-0.4c-0.2-0.1-0.3-0.3-0.4-0.5c-0.1-0.2-0.1-0.4-0.1-0.7
			c0-0.6,0.2-1,0.6-1.3c0.4-0.3,1-0.5,1.7-0.5c0.2,0,0.4,0,0.5,0c0.2,0,0.3,0,0.5,0.1c0.2,0,0.3,0.1,0.4,0.1s0.2,0.1,0.3,0.1l-0.2,1
			c-0.1-0.1-0.3-0.1-0.6-0.2c-0.3-0.1-0.6-0.1-0.9-0.1c-0.3,0-0.6,0.1-0.8,0.2c-0.2,0.1-0.3,0.3-0.3,0.6c0,0.1,0,0.3,0.1,0.4
			c0.1,0.1,0.1,0.2,0.2,0.3s0.2,0.2,0.4,0.2c0.2,0.1,0.4,0.1,0.6,0.2c0.3,0.1,0.6,0.2,0.8,0.3c0.2,0.1,0.4,0.2,0.6,0.4
			c0.2,0.1,0.3,0.3,0.4,0.5c0.1,0.2,0.1,0.5,0.1,0.8c0,0.6-0.2,1-0.6,1.3c-0.4,0.3-1,0.4-1.8,0.4c-0.6,0-1,0-1.3-0.1
			c-0.3-0.1-0.5-0.2-0.6-0.2l0.2-1c0.1,0,0.3,0.1,0.6,0.2C139.4,487.2,139.8,487.2,140.3,487.2z"/>
		<path id="XMLID_1272_" class="st0" d="M146.1,481.6c0.4,0,0.8,0.1,1.1,0.2c0.3,0.1,0.6,0.3,0.7,0.5c0.2,0.2,0.3,0.5,0.4,0.8
			c0.1,0.3,0.1,0.6,0.1,1v3.9c-0.1,0-0.2,0-0.4,0.1c-0.2,0.1-0.4,0.1-0.6,0.1s-0.5,0-0.7,0.1c-0.3,0-0.5,0-0.8,0c-0.4,0-0.7,0-1-0.1
			c-0.3-0.1-0.6-0.2-0.8-0.3c-0.2-0.2-0.4-0.4-0.5-0.6c-0.1-0.3-0.2-0.6-0.2-0.9c0-0.3,0.1-0.6,0.2-0.9s0.3-0.4,0.6-0.6
			c0.2-0.2,0.5-0.3,0.8-0.3c0.3-0.1,0.7-0.1,1-0.1c0.1,0,0.2,0,0.3,0c0.1,0,0.2,0,0.3,0c0.1,0,0.2,0,0.3,0.1c0.1,0,0.1,0,0.2,0v-0.3
			c0-0.2,0-0.4-0.1-0.5s-0.1-0.3-0.2-0.5c-0.1-0.1-0.2-0.3-0.4-0.3c-0.2-0.1-0.4-0.1-0.7-0.1c-0.4,0-0.7,0-1,0.1
			c-0.3,0.1-0.5,0.1-0.6,0.2l-0.1-0.9c0.1-0.1,0.4-0.1,0.7-0.2C145.3,481.7,145.7,481.6,146.1,481.6z M146.2,487.2
			c0.3,0,0.5,0,0.7,0s0.4,0,0.5-0.1v-1.9c-0.1,0-0.2-0.1-0.4-0.1c-0.2,0-0.4,0-0.7,0c-0.2,0-0.3,0-0.5,0s-0.4,0.1-0.5,0.2
			c-0.2,0.1-0.3,0.2-0.4,0.3c-0.1,0.1-0.2,0.3-0.2,0.5c0,0.4,0.1,0.7,0.4,0.8C145.4,487.2,145.8,487.2,146.2,487.2z"/>
		<path id="XMLID_1270_" class="st0" d="M149.4,489.2c0.1,0,0.2,0.1,0.3,0.1c0.1,0,0.3,0.1,0.4,0.1c0.4,0,0.8-0.1,1-0.3
			s0.5-0.5,0.7-1c-0.5-1-1-2-1.4-3.1s-0.8-2.2-1.1-3.3h1.2c0.1,0.4,0.2,0.7,0.3,1.2s0.3,0.8,0.4,1.3c0.2,0.4,0.3,0.9,0.5,1.3
			c0.2,0.4,0.4,0.9,0.6,1.3c0.3-0.8,0.6-1.7,0.8-2.5c0.2-0.8,0.4-1.7,0.6-2.5h1.2c-0.3,1.2-0.6,2.3-1,3.4c-0.4,1.1-0.7,2.1-1.1,3
			c-0.2,0.4-0.3,0.7-0.5,0.9c-0.2,0.2-0.4,0.5-0.6,0.6c-0.2,0.1-0.4,0.3-0.7,0.4c-0.3,0.1-0.6,0.1-0.9,0.1c-0.1,0-0.2,0-0.3,0
			c-0.1,0-0.2,0-0.3,0c-0.1,0-0.2,0-0.3-0.1c-0.1-0.1-0.1,0-0.2-0.1L149.4,489.2z"/>
		<path id="XMLID_1268_" class="st0" d="M161,487.9c-0.3,0.1-0.6,0.1-1,0.2c-0.4,0.1-0.9,0.1-1.5,0.1c-0.5,0-0.9-0.1-1.2-0.2
			s-0.6-0.3-0.8-0.6s-0.3-0.6-0.4-0.9s-0.1-0.7-0.1-1.2v-3.5h1.1v3.3c0,0.8,0.1,1.3,0.4,1.6s0.6,0.5,1.2,0.5c0.1,0,0.2,0,0.4,0
			c0.1,0,0.2,0,0.4,0c0.1,0,0.2,0,0.3,0c0.1,0,0.2,0,0.2,0v-5.3h1.1v6H161z"/>
		<path id="XMLID_1266_" class="st0" d="M162.8,482c0.3-0.1,0.6-0.1,1-0.2c0.4-0.1,0.9-0.1,1.5-0.1c0.5,0,0.9,0.1,1.2,0.2
			c0.3,0.1,0.6,0.3,0.8,0.6c0.2,0.3,0.3,0.6,0.4,0.9c0.1,0.4,0.1,0.7,0.1,1.2v3.5h-1.1v-3.3c0-0.4,0-0.7-0.1-1s-0.1-0.5-0.3-0.7
			c-0.1-0.2-0.3-0.3-0.5-0.4c-0.2-0.1-0.4-0.1-0.7-0.1c-0.1,0-0.2,0-0.4,0s-0.3,0-0.4,0s-0.2,0-0.3,0c-0.1,0-0.2,0-0.2,0v5.3h-1.1
			V482H162.8z"/>
		<path id="XMLID_1263_" class="st0" d="M175.1,484.9c0,0.5-0.1,0.9-0.2,1.3c-0.1,0.4-0.3,0.7-0.6,1c-0.3,0.3-0.6,0.5-0.9,0.7
			s-0.8,0.2-1.2,0.2c-0.4,0-0.8-0.1-1.2-0.2c-0.4-0.2-0.7-0.4-0.9-0.7c-0.2-0.3-0.5-0.6-0.6-1c-0.1-0.4-0.2-0.8-0.2-1.3
			s0.1-0.9,0.2-1.3c0.1-0.4,0.3-0.8,0.6-1c0.3-0.2,0.6-0.5,0.9-0.7c0.4-0.2,0.8-0.2,1.2-0.2c0.4,0,0.8,0.1,1.2,0.2s0.7,0.4,0.9,0.7
			c0.2,0.3,0.5,0.6,0.6,1C175.1,484,175.1,484.4,175.1,484.9z M174,484.9c0-0.7-0.2-1.3-0.5-1.7c-0.3-0.4-0.7-0.6-1.3-0.6
			s-1,0.2-1.3,0.6c-0.3,0.4-0.5,1-0.5,1.7s0.2,1.3,0.5,1.7c0.3,0.4,0.7,0.6,1.3,0.6s1-0.2,1.3-0.6C173.8,486.2,174,485.6,174,484.9z
			"/>
		<path id="XMLID_1261_" class="st0" d="M177.8,486.7c0,0.1,0,0.1,0,0.2s0,0.1,0,0.2c0,0.5-0.1,1-0.2,1.5s-0.4,1-0.6,1.4l-0.9-0.3
			c0.2-0.4,0.3-0.8,0.4-1.2c0.1-0.4,0.1-0.8,0.1-1.2c0-0.1,0-0.2,0-0.3c0-0.1,0-0.2,0-0.3L177.8,486.7L177.8,486.7z"/>
		<path id="XMLID_1259_" class="st0" d="M182.2,482c0.3-0.1,0.6-0.1,1-0.2c0.4-0.1,0.9-0.1,1.5-0.1c0.4,0,0.7,0.1,1,0.2
			s0.5,0.3,0.7,0.5c0.1,0,0.1-0.1,0.3-0.2c0.1-0.1,0.3-0.1,0.4-0.2c0.2-0.1,0.4-0.1,0.6-0.2c0.2-0.1,0.4-0.1,0.7-0.1
			c0.5,0,0.9,0.1,1.2,0.2c0.3,0.1,0.5,0.3,0.7,0.6s0.3,0.6,0.3,0.9c0.1,0.4,0.1,0.7,0.1,1.2v3.5h-1.1v-3.3c0-0.4,0-0.7-0.1-0.9
			c0-0.3-0.1-0.5-0.2-0.7c-0.1-0.2-0.2-0.3-0.4-0.4c-0.2-0.1-0.4-0.1-0.7-0.1c-0.4,0-0.7,0-0.9,0.1c-0.2,0.1-0.4,0.2-0.5,0.3
			c0.1,0.2,0.1,0.4,0.1,0.7c0,0.3,0,0.5,0,0.8v3.5h-1.1v-3.3c0-0.4,0-0.7-0.1-0.9c-0.1-0.2-0.1-0.5-0.2-0.7s-0.2-0.3-0.4-0.4
			s-0.4-0.1-0.7-0.1c-0.1,0-0.2,0-0.4,0s-0.3,0-0.4,0s-0.2,0-0.3,0c-0.1,0-0.2,0-0.2,0v5.3H182v-6H182.2z"/>
		<path id="XMLID_1256_" class="st0" d="M192.1,484.9c0-0.6,0.1-1,0.2-1.4s0.4-0.8,0.6-1c0.3-0.3,0.6-0.5,0.9-0.6s0.7-0.2,1.1-0.2
			c0.8,0,1.5,0.3,1.9,0.8s0.7,1.3,0.7,2.4c0,0,0,0.1,0,0.2c0,0.1,0,0.1,0,0.2h-4.3c0,0.6,0.2,1.1,0.6,1.5s0.8,0.5,1.5,0.5
			c0.4,0,0.7,0,1-0.1s0.5-0.1,0.6-0.2l0.2,0.9c-0.1,0.1-0.4,0.1-0.7,0.2c-0.3,0.1-0.7,0.1-1.2,0.1s-1-0.1-1.4-0.2
			c-0.4-0.2-0.7-0.4-1-0.7s-0.4-0.6-0.6-1C192.2,485.8,192.1,485.4,192.1,484.9z M196.4,484.3c0-0.5-0.1-0.9-0.4-1.2
			c-0.3-0.3-0.6-0.5-1.1-0.5c-0.3,0-0.5,0.1-0.7,0.2s-0.4,0.2-0.5,0.4s-0.2,0.3-0.3,0.6c-0.1,0.2-0.1,0.4-0.2,0.6h3.2V484.3z"/>
		<path id="XMLID_1254_" class="st0" d="M201.4,481.7c0.1,0,0.2,0,0.3,0c0.1,0,0.2,0,0.4,0c0.1,0,0.2,0,0.3,0.1c0.1,0,0.2,0,0.2,0.1
			l-0.2,1c-0.1,0-0.2-0.1-0.4-0.1c-0.2,0-0.5-0.1-0.8-0.1c-0.2,0-0.4,0-0.6,0.1c-0.2,0.1-0.3,0.1-0.4,0.1v5.2h-1.1v-6
			c0.3-0.1,0.6-0.2,1-0.3C200.5,481.7,200.9,481.7,201.4,481.7z"/>
		<path id="XMLID_1251_" class="st0" d="M204.2,480.7c-0.2,0-0.4-0.1-0.5-0.2c-0.1-0.1-0.2-0.3-0.2-0.5s0.1-0.4,0.2-0.5
			s0.3-0.2,0.5-0.2s0.4,0.1,0.5,0.2c0.1,0.1,0.2,0.3,0.2,0.5s-0.1,0.4-0.2,0.5C204.6,480.6,204.4,480.7,204.2,480.7z M204.8,488
			h-1.1v-6.2h1.1V488z"/>
		<path id="XMLID_1248_" class="st0" d="M206.3,484.9c0-0.6,0.1-1,0.2-1.4s0.4-0.8,0.6-1c0.3-0.3,0.6-0.5,0.9-0.6s0.7-0.2,1.1-0.2
			c0.8,0,1.5,0.3,1.9,0.8s0.7,1.3,0.7,2.4c0,0,0,0.1,0,0.2c0,0.1,0,0.1,0,0.2h-4.3c0,0.6,0.2,1.1,0.6,1.5s0.8,0.5,1.5,0.5
			c0.4,0,0.7,0,1-0.1s0.5-0.1,0.6-0.2l0.2,0.9c-0.1,0.1-0.4,0.1-0.7,0.2c-0.3,0.1-0.7,0.1-1.2,0.1s-1-0.1-1.4-0.2
			c-0.4-0.2-0.7-0.4-1-0.7s-0.4-0.6-0.6-1C206.3,485.8,206.3,485.4,206.3,484.9z M210.6,484.3c0-0.5-0.1-0.9-0.4-1.2
			c-0.3-0.3-0.6-0.5-1.1-0.5c-0.3,0-0.5,0.1-0.7,0.2c-0.2,0.1-0.4,0.2-0.5,0.4s-0.2,0.3-0.3,0.6c-0.1,0.2-0.1,0.4-0.1,0.6h3.1V484.3
			z"/>
		<path id="XMLID_1246_" class="st0" d="M213.3,482c0.3-0.1,0.6-0.1,1-0.2c0.4-0.1,0.9-0.1,1.5-0.1c0.5,0,0.9,0.1,1.2,0.2
			c0.3,0.1,0.6,0.3,0.8,0.6s0.3,0.6,0.4,0.9c0.1,0.4,0.1,0.7,0.1,1.2v3.5h-1.1v-3.3c0-0.4,0-0.7-0.1-1s-0.1-0.5-0.3-0.7
			c-0.2-0.2-0.3-0.3-0.5-0.4c-0.2-0.1-0.4-0.1-0.7-0.1c-0.1,0-0.2,0-0.4,0s-0.3,0-0.4,0s-0.2,0-0.3,0c-0.1,0-0.2,0-0.2,0v5.3h-1.1
			V482H213.3z"/>
		<path id="XMLID_1243_" class="st0" d="M224.1,478.9l1.1-0.2v9.1c-0.3,0.1-0.6,0.1-1,0.2c-0.4,0.1-0.9,0.1-1.4,0.1
			s-0.9-0.1-1.3-0.2c-0.4-0.2-0.7-0.4-1-0.6c-0.3-0.3-0.5-0.6-0.6-1c-0.1-0.4-0.2-0.9-0.2-1.4s0.1-0.9,0.2-1.3s0.3-0.7,0.5-1
			s0.5-0.5,0.9-0.7c0.3-0.2,0.7-0.2,1.2-0.2c0.4,0,0.7,0,1,0.1s0.5,0.2,0.6,0.3L224.1,478.9L224.1,478.9z M224.1,483.1
			c-0.1-0.1-0.3-0.2-0.6-0.3c-0.3-0.1-0.5-0.2-0.8-0.2s-0.6,0.1-0.8,0.2c-0.2,0.1-0.4,0.3-0.6,0.5c-0.1,0.2-0.2,0.4-0.3,0.7
			c-0.1,0.3-0.1,0.6-0.1,0.9c0,0.7,0.2,1.3,0.5,1.7c0.4,0.4,0.8,0.6,1.4,0.6c0.3,0,0.6,0,0.8,0s0.4-0.1,0.5-0.1V483.1z"/>
		<path id="XMLID_1240_" class="st0" d="M229.1,481.6c0.4,0,0.8,0.1,1.1,0.2c0.3,0.1,0.6,0.3,0.7,0.5c0.2,0.2,0.3,0.5,0.4,0.8
			c0.1,0.3,0.1,0.6,0.1,1v3.9c-0.1,0-0.2,0-0.4,0.1c-0.2,0-0.4,0.1-0.6,0.1s-0.5,0-0.7,0.1c-0.3,0-0.5,0-0.8,0c-0.4,0-0.7,0-1-0.1
			c-0.3-0.1-0.6-0.2-0.8-0.3c-0.2-0.2-0.4-0.4-0.5-0.6c-0.1-0.3-0.2-0.6-0.2-0.9c0-0.3,0.1-0.6,0.2-0.9s0.3-0.4,0.6-0.6
			c0.2-0.2,0.5-0.3,0.8-0.3c0.3-0.1,0.7-0.1,1-0.1c0.1,0,0.2,0,0.3,0c0.1,0,0.2,0,0.3,0c0.1,0,0.2,0,0.3,0.1c0.1,0,0.1,0,0.2,0v-0.3
			c0-0.2,0-0.4-0.1-0.5s-0.1-0.3-0.2-0.5c-0.1-0.1-0.2-0.3-0.4-0.3c-0.2-0.1-0.4-0.1-0.7-0.1c-0.4,0-0.7,0-1,0.1
			c-0.3,0.1-0.5,0.1-0.6,0.2l-0.1-0.9c0.1-0.1,0.4-0.1,0.7-0.2C228.3,481.7,228.7,481.6,229.1,481.6z M229.2,487.2
			c0.3,0,0.5,0,0.7,0s0.4,0,0.5-0.1v-1.9c-0.1,0-0.2-0.1-0.4-0.1c-0.2,0-0.4,0-0.7,0c-0.2,0-0.3,0-0.5,0s-0.4,0.1-0.5,0.2
			c-0.2,0.1-0.3,0.2-0.4,0.3c-0.1,0.1-0.2,0.3-0.2,0.5c0,0.4,0.1,0.7,0.4,0.8C228.4,487.2,228.7,487.2,229.2,487.2z"/>
		<path id="XMLID_1238_" class="st0" d="M234.4,486.7c0,0.1,0,0.1,0,0.2s0,0.1,0,0.2c0,0.5-0.1,1-0.2,1.5s-0.4,1-0.6,1.4l-0.9-0.3
			c0.2-0.4,0.3-0.8,0.4-1.2c0.1-0.4,0.1-0.8,0.1-1.2c0-0.1,0-0.2,0-0.3c0-0.1,0-0.2,0-0.3L234.4,486.7L234.4,486.7z"/>
		<path id="XMLID_1236_" class="st0" d="M241.6,488.2c-0.5,0-0.9-0.1-1.3-0.2c-0.4-0.2-0.7-0.4-1-0.7c-0.3-0.3-0.5-0.6-0.6-1
			c-0.1-0.4-0.2-0.8-0.2-1.3s0.1-0.9,0.2-1.3c0.1-0.4,0.3-0.7,0.6-1c0.3-0.3,0.6-0.5,0.9-0.7c0.4-0.2,0.8-0.2,1.2-0.2
			c0.3,0,0.6,0,0.8,0.1c0.2,0.1,0.5,0.1,0.8,0.2l-0.3,0.9c-0.2-0.1-0.4-0.1-0.6-0.2c-0.2,0-0.5-0.1-0.7-0.1c-0.6,0-1.1,0.2-1.4,0.6
			c-0.3,0.4-0.5,1-0.5,1.7c0,0.3,0,0.6,0.1,0.9c0.1,0.3,0.2,0.5,0.4,0.7c0.2,0.2,0.4,0.4,0.6,0.5c0.3,0.1,0.6,0.2,0.9,0.2
			s0.6,0,0.8-0.1c0.2-0.1,0.4-0.1,0.6-0.2l0.2,0.9c-0.1,0-0.2,0.1-0.3,0.1s-0.3,0.1-0.4,0.1c-0.2,0-0.3,0.1-0.5,0.1
			C241.9,488.2,241.7,488.2,241.6,488.2z"/>
		<path id="XMLID_1233_" class="st0" d="M244,484.9c0-0.6,0.1-1,0.2-1.4s0.4-0.8,0.6-1c0.3-0.3,0.6-0.5,0.9-0.6s0.7-0.2,1.1-0.2
			c0.8,0,1.5,0.3,1.9,0.8s0.7,1.3,0.7,2.4c0,0,0,0.1,0,0.2c0,0.1,0,0.1,0,0.2h-4.3c0,0.6,0.2,1.1,0.6,1.5s0.8,0.5,1.5,0.5
			c0.4,0,0.7,0,1-0.1s0.5-0.1,0.6-0.2l0.2,0.9c-0.1,0.1-0.4,0.1-0.7,0.2c-0.3,0.1-0.7,0.1-1.2,0.1s-1-0.1-1.4-0.2
			c-0.4-0.2-0.7-0.4-1-0.7s-0.4-0.6-0.6-1C244.1,485.8,244,485.4,244,484.9z M248.3,484.3c0-0.5-0.1-0.9-0.4-1.2
			c-0.3-0.3-0.6-0.5-1.1-0.5c-0.3,0-0.5,0.1-0.7,0.2s-0.4,0.2-0.5,0.4s-0.2,0.3-0.3,0.6c-0.1,0.2-0.1,0.4-0.1,0.6h3.1V484.3z"/>
		<path id="XMLID_1231_" class="st0" d="M251,482c0.3-0.1,0.6-0.1,1-0.2c0.4-0.1,0.9-0.1,1.5-0.1c0.5,0,0.9,0.1,1.2,0.2
			c0.3,0.1,0.6,0.3,0.8,0.6c0.2,0.3,0.3,0.6,0.4,0.9c0.1,0.4,0.1,0.7,0.1,1.2v3.5h-1.1v-3.3c0-0.4,0-0.7-0.1-1s-0.1-0.5-0.3-0.7
			c-0.2-0.2-0.3-0.3-0.5-0.4c-0.2-0.1-0.4-0.1-0.7-0.1c-0.1,0-0.2,0-0.4,0s-0.3,0-0.4,0s-0.2,0-0.3,0c-0.1,0-0.2,0-0.2,0v5.3h-1V482
			z"/>
		<path id="XMLID_1228_" class="st0" d="M259.8,481.6c0.4,0,0.8,0.1,1.1,0.2s0.6,0.3,0.7,0.5c0.2,0.2,0.3,0.5,0.4,0.8
			c0.1,0.3,0.1,0.6,0.1,1v3.9c-0.1,0-0.2,0-0.4,0.1c-0.2,0.1-0.4,0.1-0.6,0.1s-0.5,0-0.7,0.1c-0.3,0-0.5,0-0.8,0c-0.4,0-0.7,0-1-0.1
			c-0.3-0.1-0.6-0.2-0.8-0.3c-0.2-0.2-0.4-0.4-0.5-0.6c-0.1-0.3-0.2-0.6-0.2-0.9c0-0.3,0.1-0.6,0.2-0.9s0.3-0.4,0.6-0.6
			c0.2-0.2,0.5-0.3,0.8-0.3c0.3-0.1,0.7-0.1,1-0.1c0.1,0,0.2,0,0.3,0c0.1,0,0.2,0,0.3,0c0.1,0,0.2,0,0.3,0.1c0.1,0.1,0.1,0,0.2,0
			v-0.3c0-0.2,0-0.4-0.1-0.5s-0.1-0.3-0.2-0.5c-0.1-0.1-0.2-0.3-0.4-0.3c-0.2-0.1-0.4-0.1-0.7-0.1c-0.4,0-0.7,0-1,0.1
			c-0.3,0.1-0.5,0.1-0.6,0.2l0.2-1.3c0.1-0.1,0.4-0.1,0.7-0.2C259.1,481.7,259.4,481.6,259.8,481.6z M259.9,487.2c0.3,0,0.5,0,0.7,0
			s0.4,0,0.5-0.1v-1.9c-0.1,0-0.2-0.1-0.4-0.1c-0.2,0-0.4,0-0.7,0c-0.2,0-0.3,0-0.5,0s-0.4,0.1-0.5,0.2s-0.3,0.2-0.4,0.3
			c-0.1,0.1-0.2,0.3-0.2,0.5c0,0.4,0.1,0.7,0.4,0.8S259.5,487.2,259.9,487.2z"/>
		<path id="XMLID_1226_" class="st0" d="M265.3,487.4c0,0.2-0.1,0.4-0.2,0.6s-0.3,0.2-0.6,0.2s-0.4-0.1-0.6-0.2
			c-0.1-0.2-0.2-0.3-0.2-0.6c0-0.2,0.1-0.4,0.2-0.6s0.3-0.2,0.6-0.2s0.4,0.1,0.6,0.2C265.2,487,265.3,487.2,265.3,487.4z"/>
	</g>
</g>
<g id="_x37_ab2M5.tif_2_">
	<g id="XMLID_77_">
		<path id="XMLID_84_" class="st1" d="M-86.4,398c0,0.2,0,0.3,0,0.5c0,4.4,0,8.8,0,13.2c0,0.2,0,0.5,0.1,0.7c0.3,1.2,1.9,1.7,2.8,1
			c0.6-0.4,0.7-1,0.7-1.7c0-7.7,0-15.5,0-23.2c0-0.6-0.1-0.6,0.6-0.6h0.1c0,0.3,0,0.5,0,0.8c0,2.6,0,5.2,0,7.8
			c0,0.5,0.1,0.9,0.5,1.1c0.5,0.3,1,0.4,1.5,0.1c0.5-0.3,0.7-0.7,0.7-1.3c0-3.2,0-6.3,0-9.5c0-2.2-1.7-4.2-4.1-4.1
			c-2.3,0-4.5,0-6.8,0c-0.8,0-1.6,0.2-2.3,0.7c-1.2,0.9-1.8,2-1.8,3.5c0,3.1,0,6.2,0,9.3c0,0.2,0,0.4,0,0.5c0.1,0.6,0.7,1,1.3,1
			s1.1-0.3,1.3-0.9c0.1-0.2,0.1-0.5,0.1-0.7c0-2.7,0-5.4,0-8.1c0-0.2,0-0.4,0.3-0.4c0.3,0,0.4,0.1,0.4,0.4c0,4.1,0,8.3,0,12.4
			c0,3.7,0,7.4,0,11c0,0.9,0.5,1.6,1.2,1.8c1.3,0.4,2.5-0.4,2.5-1.8c0-4.4,0-8.9,0-13.3c0-0.2,0-0.3,0-0.5
			C-86.9,398-86.7,398-86.4,398z M-86.8,382c1.8,0,3.1-1.3,3.1-3.1c0-1.7-1.4-3.1-3.1-3.1c-1.7,0-3.1,1.4-3.1,3.1
			C-89.9,380.7-88.6,382-86.8,382z"/>
		<path id="XMLID_83_" class="st1" d="M-86.4,398c-0.3,0-0.5,0-0.8,0c0,0.2,0,0.3,0,0.5c0,4.4,0,8.9,0,13.3c0,1.4-1.2,2.2-2.5,1.8
			c-0.7-0.2-1.2-1-1.2-1.8c0-3.7,0-7.4,0-11c0-4.1,0-8.3,0-12.4c0-0.3-0.1-0.4-0.4-0.4c-0.3,0-0.3,0.2-0.3,0.4c0,2.7,0,5.4,0,8.1
			c0,0.2,0,0.5-0.1,0.7c-0.1,0.4-0.7,0.7-1.3,0.7s-1.1-0.5-1.3-1c0-0.2,0-0.4,0-0.5c0-3.1,0-6.2,0-9.3c0-1.5,0.6-2.6,1.8-3.5
			c0.7-0.5,1.5-0.7,2.3-0.7c2.3,0,4.5,0,6.8,0c2.4,0,4.1,2,4.1,4.1c0,3.2,0,6.3,0,9.5c0,0.5-0.2,1-0.7,1.3c-0.5,0.3-1,0.2-1.5-0.1
			c-0.4-0.3-0.5-0.7-0.5-1.1c0-2.6,0-5.2,0-7.8c0-0.3,0-0.5,0-0.8c-0.1,0-0.1,0-0.1,0c-0.8,0-0.6,0-0.6,0.6c0,7.7,0,15.5,0,23.2
			c0,0.7-0.1,1.3-0.7,1.7c-0.9,0.7-2.5,0.2-2.8-1c-0.1-0.2-0.1-0.5-0.1-0.7c0-4.4,0-8.8,0-13.2C-86.4,398.3-86.4,398.2-86.4,398z"/>
		<path id="XMLID_82_" class="st1" d="M-101.8,387.1c1.4,4.7,2.8,9.5,4.2,14.2c-1.4,0-2.7,0-4,0c0,0.2,0,0.3,0,0.5
			c0,3.4,0,6.8,0,10.2c0,1.2-1.1,1.8-2.1,1.4c-0.4-0.2-0.7-0.5-0.8-0.9c0-0.2-0.1-0.5-0.1-0.7c0-3.3,0-6.6,0-9.9
			c0-0.6,0-0.6-0.7-0.6c0,0.1,0,0.3,0,0.4c0,3.3,0,6.7,0,10c0,0.1,0,0.3,0,0.4c-0.1,0.9-0.7,1.4-1.5,1.3c-0.9,0-1.4-0.6-1.4-1.5
			c0-3.4,0-6.9,0-10.3c0-0.1,0-0.3,0-0.4c-1.3,0-2.7,0-4.1,0c1.5-4.6,2.9-9.3,4.3-14c-0.5-0.2-0.7-0.1-0.8,0.4
			c-0.8,2.7-1.6,5.3-2.4,8c-0.2,0.7-0.8,1.1-1.4,0.9c-0.7-0.2-1.1-0.8-0.9-1.4c0.1-0.4,0.3-0.9,0.4-1.3c0.6-2.1,1.2-4.3,1.9-6.4
			c0.2-0.7,0.4-1.4,0.7-2c0.3-1.2,1.7-2.5,3.3-2.5c1.4,0,2.9,0,4.3,0c1.9-0.1,3.1,0.9,3.8,2.5c0.4,0.8,0.5,1.7,0.8,2.5
			c0.7,2.3,1.4,4.7,2,7c0.2,0.6,0,1.2-0.5,1.4c-0.6,0.3-1.3,0.3-1.6-0.2c-0.1-0.2-0.2-0.4-0.3-0.6c-0.6-2-1.2-3.9-1.8-5.9
			c-0.2-0.6-0.4-1.2-0.5-1.9C-101,387-101,387-101.8,387.1z"/>
		<path id="XMLID_81_" class="st1" d="M-104.8,382c-1.9,0-3.2-1.3-3.2-3.1c0-1.7,1.4-3,3.2-3.1c1.7,0,3.1,1.5,3,3.2
			C-101.8,380.7-103.1,382-104.8,382z"/>
		<path id="XMLID_80_" class="st1" d="M-86.8,382c-1.8,0-3.1-1.3-3.1-3c0-1.7,1.4-3.1,3.1-3.1c1.7,0,3.1,1.4,3.1,3.1
			S-85,382-86.8,382z"/>
	</g>
</g>
</svg>
