<?xml version="1.0" encoding="utf-8"?>
<!-- Generator: Adobe Illustrator 19.0.0, SVG Export Plug-In . SVG Version: 6.00 Build 0)  -->
<svg version="1.1" id="Layer_1" xmlns="http://www.w3.org/2000/svg" xmlns:xlink="http://www.w3.org/1999/xlink" x="0px" y="0px"
	 viewBox="57.4 373.4 39.3 50.7" style="enable-background:new 57.4 373.4 39.3 50.7;" xml:space="preserve">
<style type="text/css">
	.st0{fill:#0A783D;}
	.st1{fill:#F3EAE3;}
	.st2{fill:none;stroke:#F3EAE3;stroke-width:0.4993;stroke-linecap:round;stroke-linejoin:round;stroke-miterlimit:10;}
</style>
<g id="XMLID_432_">
	<path id="XMLID_437_" class="st0" d="M77.3,406.6c5.2-6.9,10.1-14.1,10.9-17.3c0,0-0.1-9.7-3.5-13.9c0,0-4.8-3.8-12.4-0.9
		c0,0-5.1,6.7-5.4,14c0,0,3.9,8.9,4.8,9.3L77.3,406.6"/>
	<path id="XMLID_436_" class="st0" d="M77.3,408c-6.1,8.2-14,16.5-14.4,16.2c-3-2.3-5.5-12-5.5-14c0-1.5,14.3-11,14.3-11L77.3,408z"
		/>
	<path id="XMLID_435_" class="st1" d="M77.5,391.7c-0.2,0-1.6-3-1.8-3.3c-0.6-1.2-1.5-2.4-2-3.7c-0.9-2,1.9-2.5,3.5-2.5
		c1.5,0,3.2-0.2,4.7,0.3c2.3,0.8-0.2,3.3-0.9,4.5C79.8,388.5,78.6,390,77.5,391.7z"/>
	<path id="XMLID_434_" class="st0" d="M77.3,406.6c0,0,13.2,17.9,13.9,17.6c1.4-0.7,5.5-10.5,5.5-13.5c0-1.8-14.2-12.5-14.2-12.5
		L77.3,406.6z"/>
	<path id="XMLID_433_" class="st2" d="M77.5,391.3c0,0,4.2,6.5,5.8,7.1"/>
</g>
</svg>
