<?xml version="1.0" encoding="utf-8"?>
<!-- Generator: Adobe Illustrator 19.0.0, SVG Export Plug-In . SVG Version: 6.00 Build 0)  -->
<svg version="1.1" id="Layer_1" xmlns="http://www.w3.org/2000/svg" xmlns:xlink="http://www.w3.org/1999/xlink" x="0px" y="0px"
	 viewBox="0 0 461.6 91.1" style="enable-background:new 0 0 461.6 91.1;" xml:space="preserve">
<style type="text/css">
	.st0{fill:none;stroke:#0B7A6F;stroke-linecap:round;stroke-linejoin:round;stroke-miterlimit:10;stroke-dasharray:4;}
	.st1{fill:#39B54A;}
</style>
<line class="st0" x1="0.5" y1="0.5" x2="461.1" y2="0.5"/>
<line class="st0" x1="0.5" y1="90.6" x2="461.1" y2="90.6"/>
<g>
	<g>
		<path class="st1" d="M298.2,12.6c0,0,0.1,3.9-2.3,6.3c-2.4,2.4-6.3,2.3-6.3,2.3s-0.1-3.9,2.3-6.3
			C294.2,12.6,298.2,12.6,298.2,12.6z"/>
		<path class="st1" d="M190.3,12.6c0,0,0.1,3.9-2.3,6.3c-2.4,2.4-6.3,2.3-6.3,2.3s-0.1-3.9,2.3-6.3
			C186.4,12.6,190.3,12.6,190.3,12.6z"/>
		<g>
			<path class="st1" d="M175.5,31.3l-11.2,30c-0.6,1.4-2,2.5-3.6,2.5c-1.6,0-3-1-3.5-2.5l-7.8-20.8l-7.7,20.8
				c-0.6,1.4-2,2.5-3.6,2.5c-1.6,0-3-1-3.5-2.5l-11.2-30c-0.7-1.9,0.2-4.1,2.2-4.8c1.9-0.8,4,0.2,4.7,2.2l7.9,20.9l7.8-20.8
				c0.4-1,1.1-1.9,2.3-2.3c0.4-0.1,0.8-0.2,1.1-0.2c0.1,0,0.2,0,0.2,0c0.1,0,0.1,0,0.1,0c0.1,0,0.1,0,0.1,0c0,0,0,0,0.1,0h0.1
				c0.1,0,0.1,0,0.1,0c0.1,0,0.1,0,0.1,0c0.1,0,0.1,0,0.2,0c0,0,0,0.1,0.1,0.1h0.1c0.1,0,0.1,0,0.1,0c0.1,0,0.1,0,0.2,0.1
				c0.1,0,0.1,0,0.1,0c0.1,0.1,0.1,0.1,0.1,0.1c1,0.4,1.9,1.3,2.2,2.3l7.8,20.8l7.9-20.9c0.8-1.9,2.8-2.9,4.8-2.2
				C175.3,27.2,176.2,29.4,175.5,31.3z"/>
			<path class="st1" d="M180.3,60.1V29.9c0-2,1.7-3.7,3.7-3.7c2,0,3.7,1.6,3.7,3.7v30.2c0,2.1-1.6,3.7-3.7,3.7
				C181.9,63.9,180.3,62.2,180.3,60.1z"/>
			<path class="st1" d="M229.6,45V60c0,2.1-1.7,3.8-3.8,3.8c-2,0-3.7-1.6-3.7-3.8V45c0-6.3-5.1-11.4-11.4-11.4
				c-6.3,0-11.4,5.1-11.4,11.4V60c0,2.1-1.6,3.8-3.7,3.8c-2,0-3.7-1.6-3.7-3.8V45c0-10.4,8.5-18.8,18.8-18.8
				C221.1,26.1,229.6,34.5,229.6,45z"/>
			<path class="st1" d="M283.3,31.3l-11.2,30c-0.6,1.4-2,2.5-3.6,2.5c-1.6,0-3-1-3.5-2.5l-7.8-20.8l-7.7,20.8
				c-0.6,1.4-2,2.5-3.6,2.5c-1.6,0-3-1-3.5-2.5l-11.2-30c-0.8-1.9,0.2-4.1,2.2-4.8c1.9-0.8,4,0.2,4.7,2.2l7.9,20.9l7.8-20.8
				c0.4-1,1.1-1.9,2.3-2.3c0.4-0.1,0.7-0.2,1.1-0.2c0.1,0,0.2,0,0.2,0c0.1,0,0.1,0,0.1,0c0.1,0,0.1,0,0.1,0c0,0,0,0,0.1,0h0.1
				c0.1,0,0.1,0,0.1,0c0.1,0,0.1,0,0.1,0c0.1,0,0.1,0,0.2,0c0,0,0,0.1,0.1,0.1h0.1c0.1,0,0.1,0,0.1,0c0.1,0,0.1,0,0.2,0.1
				c0.1,0,0.1,0,0.1,0c0.1,0.1,0.1,0.1,0.1,0.1c1.1,0.4,1.9,1.3,2.2,2.3l7.8,20.8l7.9-20.9c0.8-1.9,2.9-2.9,4.8-2.2
				C283,27.2,284,29.4,283.3,31.3z"/>
			<path class="st1" d="M288.1,60.1V29.9c0-2,1.6-3.7,3.7-3.7c2,0,3.7,1.6,3.7,3.7v30.2c0,2.1-1.6,3.7-3.7,3.7
				C289.7,63.9,288.1,62.2,288.1,60.1z"/>
			<path class="st1" d="M337.4,45V60c0,2.1-1.7,3.8-3.7,3.8c-2,0-3.7-1.6-3.7-3.8V45c0-6.3-5.1-11.4-11.4-11.4
				c-6.3,0-11.4,5.1-11.4,11.4V60c0,2.1-1.6,3.8-3.7,3.8c-2,0-3.7-1.6-3.7-3.8V45c0-10.4,8.5-18.8,18.8-18.8S337.4,34.5,337.4,45z"
				/>
		</g>
	</g>
</g>
<g id="XMLID_27_">
	<path id="XMLID_28_" class="st1" d="M196.5,74.2c0,1.6-1.3,2.9-2.9,2.9c-1.6,0-2.9-1.3-2.9-2.9v0V69c0-0.3,0.3-0.6,0.6-0.6
		c0.3,0,0.6,0.3,0.6,0.6v2.9c0.5-0.4,1.1-0.6,1.8-0.6C195.2,71.3,196.5,72.6,196.5,74.2z M195.3,74.2c0-1-0.8-1.8-1.8-1.8
		s-1.8,0.8-1.8,1.7v0c0,1,0.8,1.8,1.8,1.8S195.3,75.2,195.3,74.2z"/>
	<path id="XMLID_31_" class="st1" d="M197.2,74.2c0-1.6,1.3-2.9,2.9-2.9c1.6,0,2.9,1.3,2.9,2.9c0,1.6-1.3,2.9-2.9,2.9
		C198.5,77.2,197.2,75.8,197.2,74.2z M198.3,74.2c0,1,0.8,1.8,1.8,1.8s1.8-0.8,1.8-1.8c0-1-0.8-1.8-1.8-1.8S198.3,73.3,198.3,74.2z"
		/>
	<path id="XMLID_34_" class="st1" d="M203.6,76.6v-7.5c0-0.3,0.3-0.6,0.6-0.6c0.3,0,0.6,0.3,0.6,0.6v7.5c0,0.3-0.3,0.6-0.6,0.6
		C203.9,77.2,203.6,76.9,203.6,76.6z"/>
	<path id="XMLID_36_" class="st1" d="M208.9,75.4c0,1-0.8,1.7-1.7,1.7c-0.8,0-1.5-0.6-1.7-1.3c-0.1-0.3,0.1-0.6,0.4-0.7
		c0.3-0.1,0.5,0.2,0.7,0.5c0.2,0.3,0.3,0.3,0.6,0.3c0.3,0,0.6-0.3,0.6-0.6c0-0.3-0.3-0.6-0.6-0.6c-0.5,0-0.9-0.2-1.2-0.5
		c-0.3-0.3-0.5-0.8-0.5-1.2c0-1,0.8-1.7,1.7-1.7c0.8,0,1.5,0.6,1.7,1.2c0.1,0.3-0.1,0.6-0.4,0.7c-0.3,0.1-0.6-0.1-0.7-0.4
		c-0.1-0.2-0.3-0.3-0.5-0.3c-0.3,0-0.6,0.3-0.6,0.6c0,0.3,0.3,0.6,0.6,0.6c0.5,0,0.9,0.2,1.2,0.5C208.8,74.5,208.9,75,208.9,75.4z"
		/>
	<path id="XMLID_38_" class="st1" d="M215.3,74.3v2.3c0,0.3-0.2,0.6-0.6,0.6c-0.2,0-0.6-0.2-0.6-0.6c-0.5,0.4-1.1,0.6-1.7,0.6
		c-1.6,0-2.9-1.2-2.9-2.8s1.3-2.9,2.9-2.9S215.3,72.7,215.3,74.3z M214.1,74.3c0-1-0.7-1.8-1.7-1.8c-1,0-1.8,0.8-1.8,1.8
		c0,1,0.8,1.7,1.8,1.7C213.4,76,214.1,75.3,214.1,74.3z"/>
	<path id="XMLID_43_" class="st1" d="M225.1,74.2c0,0.3-0.3,0.6-0.6,0.6h-4c0.2,0.7,0.9,1.2,1.7,1.2c0.3,0,0.7,0,1.3-0.4
		c0.3-0.2,0.6,0,0.8,0.3c0.1,0.3,0,0.6-0.3,0.8c-0.8,0.5-1.4,0.5-1.8,0.5c-1.6,0-2.9-1.3-2.9-2.9c0-1.6,1.3-2.9,2.9-2.9
		C223.5,71.3,225.1,72.4,225.1,74.2z M220.5,73.7h3.3c-0.2-0.8-1-1.2-1.7-1.2C221.4,72.5,220.7,73,220.5,73.7z"/>
	<path id="XMLID_57_" class="st1" d="M225.7,74.3c0-1.6,1.3-2.9,2.9-2.9c1,0,2,0.6,2.5,1.4c0.2,0.3,0.1,0.6-0.2,0.8
		c-0.3,0.2-0.6,0.1-0.8-0.2c-0.3-0.5-0.9-0.9-1.5-0.9c-1,0-1.8,0.8-1.8,1.8c0,1,0.8,1.8,1.8,1.8c0.6,0,1.2-0.3,1.5-0.8
		c0.2-0.3,0.5-0.3,0.8-0.2c0.3,0.2,0.3,0.5,0.2,0.8c-0.5,0.8-1.4,1.3-2.4,1.3C227,77.2,225.7,75.9,225.7,74.3z"/>
	<path id="XMLID_59_" class="st1" d="M231.8,74.2c0-1.6,1.3-2.9,2.9-2.9c1.6,0,2.9,1.3,2.9,2.9c0,1.6-1.3,2.9-2.9,2.9
		C233.1,77.2,231.8,75.8,231.8,74.2z M232.9,74.2c0,1,0.8,1.8,1.8,1.8s1.8-0.8,1.8-1.8c0-1-0.8-1.8-1.8-1.8S232.9,73.3,232.9,74.2z"
		/>
	<path id="XMLID_62_" class="st1" d="M238.2,76.6v-7.5c0-0.3,0.3-0.6,0.6-0.6c0.3,0,0.6,0.3,0.6,0.6v7.5c0,0.3-0.3,0.6-0.6,0.6
		C238.5,77.2,238.2,76.9,238.2,76.6z"/>
	<path id="XMLID_64_" class="st1" d="M240,74.2c0-1.6,1.3-2.9,2.9-2.9c1.6,0,2.9,1.3,2.9,2.9c0,1.6-1.3,2.9-2.9,2.9
		C241.3,77.2,240,75.8,240,74.2z M241.2,74.2c0,1,0.8,1.8,1.8,1.8s1.8-0.8,1.8-1.8c0-1-0.8-1.8-1.8-1.8S241.2,73.3,241.2,74.2z
		 M242.1,69.2l0.9-0.9c0.2-0.2,0.6-0.2,0.8,0c0.2,0.2,0.2,0.6,0,0.8l-0.9,0.9c-0.2,0.2-0.6,0.2-0.8,0
		C241.9,69.8,241.9,69.5,242.1,69.2z"/>
	<path id="XMLID_68_" class="st1" d="M252.3,77.2c0,1.6-1.3,2.9-2.9,2.9c-1.1,0-2.1-0.6-2.6-1.6c-0.1-0.3,0-0.6,0.3-0.8
		c0.3-0.1,0.6,0,0.8,0.3c0.3,0.6,0.9,1,1.6,1c1,0,1.7-0.8,1.8-1.7c0,0,0,0,0-0.6c-0.5,0.4-1.1,0.6-1.8,0.6c-1.6,0-2.9-1.3-2.9-2.9
		c0-1.6,1.3-2.9,2.9-2.9c1.6,0,2.9,1.3,2.9,2.9C252.3,74.2,252.3,74.2,252.3,77.2z M251.1,74.2c0-1-0.8-1.8-1.8-1.8
		c-1,0-1.8,0.8-1.8,1.8c0,1,0.8,1.8,1.8,1.8C250.3,76,251.1,75.2,251.1,74.2z"/>
	<path id="XMLID_71_" class="st1" d="M253.1,70c-0.1-0.1-0.2-0.3-0.2-0.4s0.1-0.3,0.2-0.4c0.1-0.1,0.3-0.2,0.4-0.2s0.3,0.1,0.4,0.2
		c0.1,0.1,0.2,0.3,0.2,0.4s-0.1,0.3-0.2,0.4c-0.1,0.1-0.3,0.2-0.4,0.2S253.2,70.1,253.1,70z M252.9,76.6v-4.7c0-0.3,0.3-0.6,0.6-0.6
		c0.3,0,0.6,0.3,0.6,0.6v4.7c0,0.3-0.3,0.6-0.6,0.6C253.2,77.2,252.9,76.9,252.9,76.6z"/>
	<path id="XMLID_74_" class="st1" d="M254.7,74.3c0-1.6,1.3-2.9,2.9-2.9c1,0,2,0.6,2.5,1.4c0.2,0.3,0.1,0.6-0.2,0.8
		c-0.3,0.2-0.6,0.1-0.8-0.2c-0.3-0.5-0.9-0.9-1.5-0.9c-1,0-1.8,0.8-1.8,1.8c0,1,0.8,1.8,1.8,1.8c0.6,0,1.2-0.3,1.5-0.8
		c0.2-0.3,0.5-0.3,0.8-0.2c0.3,0.2,0.3,0.5,0.2,0.8c-0.5,0.8-1.4,1.3-2.4,1.3C256,77.2,254.7,75.9,254.7,74.3z"/>
	<path id="XMLID_76_" class="st1" d="M266.5,74.3v2.3c0,0.3-0.2,0.6-0.6,0.6c-0.2,0-0.6-0.2-0.6-0.6c-0.5,0.4-1.1,0.6-1.7,0.6
		c-1.6,0-2.9-1.2-2.9-2.8s1.3-2.9,2.9-2.9S266.5,72.7,266.5,74.3z M265.4,74.3c0-1-0.7-1.8-1.7-1.8c-1,0-1.8,0.8-1.8,1.8
		c0,1,0.8,1.7,1.8,1.7C264.7,76,265.4,75.3,265.4,74.3z"/>
</g>
</svg>
